QLD Beginners-QLD Beginners Regular.ufo
<glyph name="exclam" format="2">
	<advance width="156"/>
	<unicode hex="0021"/>
	<outline>
		<contour>
			<point x="182" y="629" type="line" smooth="yes"/>
			<point x="184" y="643"/>
			<point x="174" y="650"/>
			<point x="162" y="650" type="curve" smooth="yes"/>
			<point x="149" y="650"/>
			<point x="134" y="643"/>
			<point x="131" y="629" type="curve" smooth="yes"/>
			<point x="55" y="202" type="line" smooth="yes"/>
			<point x="52" y="185"/>
			<point x="64" y="176"/>
			<point x="76" y="175" type="curve" smooth="yes"/>
			<point x="88" y="174"/>
			<point x="103" y="183"/>
			<point x="106" y="202" type="curve" smooth="yes"/>
		</contour>
		<contour>
			<point x="47" y="-24" type="curve" smooth="yes"/>
			<point x="65" y="-24"/>
			<point x="81" y="-8"/>
			<point x="81" y="9" type="curve" smooth="yes"/>
			<point x="81" y="26"/>
			<point x="65" y="41"/>
			<point x="47" y="41" type="curve" smooth="yes"/>
			<point x="29" y="41"/>
			<point x="16" y="25"/>
			<point x="16" y="9" type="curve" smooth="yes"/>
			<point x="16" y="-7"/>
			<point x="29" y="-24"/>
		</contour>
	</outline>
</glyph>
<glyph name="quotedbl" format="2">
	<advance width="340"/>
	<unicode hex="0022"/>
	<outline>
		<contour>
			<point x="220" y="620" type="line" smooth="yes"/>
			<point x="224" y="640"/>
			<point x="211" y="650"/>
			<point x="198" y="650" type="curve" smooth="yes"/>
			<point x="186" y="650"/>
			<point x="172" y="641"/>
			<point x="169" y="624" type="curve" smooth="yes"/>
			<point x="152" y="528" type="line" smooth="yes"/>
			<point x="149" y="510"/>
			<point x="161" y="500"/>
			<point x="174" y="500" type="curve" smooth="yes"/>
			<point x="186" y="500"/>
			<point x="200" y="508"/>
			<point x="203" y="524" type="curve" smooth="yes"/>
		</contour>
		<contour>
			<point x="328" y="620" type="line" smooth="yes"/>
			<point x="331" y="640"/>
			<point x="319" y="650"/>
			<point x="305" y="650" type="curve" smooth="yes"/>
			<point x="293" y="650"/>
			<point x="281" y="642"/>
			<point x="278" y="628" type="curve" smooth="yes"/>
			<point x="260" y="528" type="line" smooth="yes"/>
			<point x="257" y="509"/>
			<point x="269" y="500"/>
			<point x="283" y="500" type="curve" smooth="yes"/>
			<point x="295" y="500"/>
			<point x="309" y="507"/>
			<point x="311" y="521" type="curve" smooth="yes"/>
		</contour>
	</outline>
</glyph>
<glyph name="numbersign" format="2">
	<advance width="779"/>
	<unicode hex="0023"/>
	<outline>
		<contour>
			<point x="352" y="543" type="line" smooth="yes"/>
			<point x="355" y="559"/>
			<point x="344" y="568"/>
			<point x="331" y="568" type="curve" smooth="yes"/>
			<point x="318" y="568"/>
			<point x="304" y="560"/>
			<point x="301" y="543" type="curve" smooth="yes"/>
			<point x="210" y="28" type="line" smooth="yes"/>
			<point x="207" y="10"/>
			<point x="217" y="0"/>
			<point x="229" y="0" type="curve" smooth="yes"/>
			<point x="242" y="-1"/>
			<point x="257" y="8"/>
			<point x="261" y="28" type="curve" smooth="yes"/>
		</contour>
		<contour>
			<point x="661" y="147" type="line" smooth="yes"/>
			<point x="678" y="147"/>
			<point x="687" y="159"/>
			<point x="687" y="170" type="curve" smooth="yes"/>
			<point x="687" y="181"/>
			<point x="679" y="192"/>
			<point x="661" y="192" type="curve" smooth="yes"/>
			<point x="116" y="192" type="line" smooth="yes"/>
			<point x="98" y="192"/>
			<point x="90" y="181"/>
			<point x="90" y="170" type="curve" smooth="yes"/>
			<point x="90" y="159"/>
			<point x="99" y="147"/>
			<point x="116" y="147" type="curve" smooth="yes"/>
		</contour>
		<contour>
			<point x="608" y="543" type="line" smooth="yes"/>
			<point x="611" y="559"/>
			<point x="600" y="567"/>
			<point x="588" y="568" type="curve" smooth="yes"/>
			<point x="575" y="568"/>
			<point x="560" y="560"/>
			<point x="557" y="543" type="curve" smooth="yes"/>
			<point x="466" y="28" type="line" smooth="yes"/>
			<point x="463" y="9"/>
			<point x="474" y="-1"/>
			<point x="487" y="0" type="curve" smooth="yes"/>
			<point x="500" y="0"/>
			<point x="514" y="9"/>
			<point x="517" y="28" type="curve" smooth="yes"/>
		</contour>
		<contour>
			<point x="702" y="384" type="line" smooth="yes"/>
			<point x="720" y="384"/>
			<point x="729" y="395"/>
			<point x="729" y="406" type="curve" smooth="yes"/>
			<point x="729" y="417"/>
			<point x="720" y="429"/>
			<point x="702" y="429" type="curve" smooth="yes"/>
			<point x="158" y="429" type="line" smooth="yes"/>
			<point x="140" y="429"/>
			<point x="131" y="417"/>
			<point x="131" y="406" type="curve" smooth="yes"/>
			<point x="131" y="395"/>
			<point x="140" y="384"/>
			<point x="158" y="384" type="curve" smooth="yes"/>
		</contour>
	</outline>
</glyph>
<glyph name="dollar" format="2">
  <advance width="530"/>
  <unicode hex="0024"/>
  <outline>
    <contour>
      <point x="163" y="0" type="line" smooth="yes"/>
      <point x="261" y="0"/>
      <point x="435" y="17"/>
      <point x="435" y="153" type="curve" smooth="yes"/>
      <point x="435" y="236"/>
      <point x="371" y="262"/>
      <point x="285" y="312" type="curve" smooth="yes"/>
      <point x="219" y="350"/>
      <point x="154" y="381"/>
      <point x="154" y="425" type="curve" smooth="yes"/>
      <point x="154" y="482"/>
      <point x="263" y="519"/>
      <point x="340" y="519" type="curve" smooth="yes"/>
      <point x="483" y="519" type="line" smooth="yes"/>
      <point x="498" y="519"/>
      <point x="506" y="532"/>
      <point x="506" y="545" type="curve" smooth="yes"/>
      <point x="506" y="557"/>
      <point x="498" y="569"/>
      <point x="479" y="569" type="curve" smooth="yes"/>
      <point x="341" y="569" type="line" smooth="yes"/>
      <point x="209" y="569"/>
      <point x="104" y="503"/>
      <point x="104" y="420" type="curve" smooth="yes"/>
      <point x="104" y="349"/>
      <point x="181" y="315"/>
      <point x="259" y="269" type="curve" smooth="yes"/>
      <point x="335" y="225"/>
      <point x="385" y="206"/>
      <point x="385" y="152" type="curve" smooth="yes"/>
      <point x="385" y="57"/>
      <point x="228" y="50"/>
      <point x="163" y="50" type="curve" smooth="yes"/>
      <point x="60" y="50" type="line" smooth="yes"/>
      <point x="44" y="50"/>
      <point x="33" y="37"/>
      <point x="33" y="24" type="curve" smooth="yes"/>
      <point x="33" y="12"/>
      <point x="41" y="0"/>
      <point x="60" y="0" type="curve" smooth="yes"/>
    </contour>
    <contour>
      <point x="358" y="618" type="line" smooth="yes"/>
      <point x="362" y="639"/>
      <point x="352" y="650"/>
      <point x="340" y="650" type="curve" smooth="yes"/>
      <point x="329" y="650"/>
      <point x="316" y="641"/>
      <point x="313" y="622" type="curve" smooth="yes"/>
      <point x="194" y="-52" type="line" smooth="yes"/>
      <point x="191" y="-71"/>
      <point x="201" y="-80"/>
      <point x="212" y="-80" type="curve" smooth="yes"/>
      <point x="223" y="-80"/>
      <point x="236" y="-71"/>
      <point x="239" y="-54" type="curve" smooth="yes"/>
    </contour>
  </outline>
</glyph>
<glyph name="percent" format="2">
	<advance width="562"/>
	<unicode hex="0025"/>
	<outline>
		<contour>
			<point x="457" y="616" type="line" smooth="yes"/>
			<point x="466" y="637"/>
			<point x="451" y="650"/>
			<point x="436" y="650" type="curve" smooth="yes"/>
			<point x="425" y="650"/>
			<point x="414" y="644"/>
			<point x="407" y="627" type="curve" smooth="yes"/>
			<point x="150" y="31" type="line" smooth="yes"/>
			<point x="142" y="12"/>
			<point x="156" y="0"/>
			<point x="172" y="0" type="curve" smooth="yes"/>
			<point x="183" y="0"/>
			<point x="194" y="6"/>
			<point x="200" y="20" type="curve" smooth="yes"/>
		</contour>
		<contour>
			<point x="337" y="-4" type="curve" smooth="yes"/>
			<point x="401" y="-4"/>
			<point x="467" y="95"/>
			<point x="467" y="158" type="curve" smooth="yes"/>
			<point x="467" y="197"/>
			<point x="444" y="218"/>
			<point x="399" y="218" type="curve" smooth="yes"/>
			<point x="362" y="218"/>
			<point x="336" y="193"/>
			<point x="321" y="167" type="curve" smooth="yes"/>
			<point x="310" y="146"/>
			<point x="293" y="106"/>
			<point x="293" y="59" type="curve" smooth="yes"/>
			<point x="293" y="12"/>
			<point x="310" y="-4"/>
		</contour>
		<contour>
			<point x="344" y="35" type="curve" smooth="yes"/>
			<point x="332" y="35"/>
			<point x="332" y="49"/>
			<point x="332" y="66" type="curve" smooth="yes"/>
			<point x="332" y="93"/>
			<point x="344" y="122"/>
			<point x="358" y="151" type="curve"/>
			<point x="370" y="171"/>
			<point x="380" y="178"/>
			<point x="397" y="178" type="curve" smooth="yes"/>
			<point x="419" y="178"/>
			<point x="427" y="172"/>
			<point x="427" y="151" type="curve" smooth="yes"/>
			<point x="427" y="113"/>
			<point x="375" y="35"/>
		</contour>
		<contour>
			<point x="194" y="432" type="curve" smooth="yes"/>
			<point x="258" y="432"/>
			<point x="324" y="531"/>
			<point x="324" y="594" type="curve" smooth="yes"/>
			<point x="324" y="633"/>
			<point x="301" y="654"/>
			<point x="256" y="654" type="curve" smooth="yes"/>
			<point x="219" y="654"/>
			<point x="193" y="629"/>
			<point x="178" y="603" type="curve" smooth="yes"/>
			<point x="167" y="582"/>
			<point x="150" y="542"/>
			<point x="150" y="495" type="curve" smooth="yes"/>
			<point x="150" y="448"/>
			<point x="167" y="432"/>
		</contour>
		<contour>
			<point x="201" y="471" type="curve" smooth="yes"/>
			<point x="189" y="471"/>
			<point x="189" y="485"/>
			<point x="189" y="502" type="curve" smooth="yes"/>
			<point x="189" y="529"/>
			<point x="201" y="558"/>
			<point x="215" y="587" type="curve"/>
			<point x="227" y="607"/>
			<point x="237" y="614"/>
			<point x="254" y="614" type="curve" smooth="yes"/>
			<point x="276" y="614"/>
			<point x="284" y="608"/>
			<point x="284" y="587" type="curve" smooth="yes"/>
			<point x="284" y="549"/>
			<point x="232" y="471"/>
		</contour>
	</outline>
</glyph>
<glyph name="ampersand" format="2">
	<advance width="479"/>
	<unicode hex="0026"/>
	<outline>
		<contour>
			<point x="372" y="14" type="line" smooth="yes"/>
			<point x="379" y="4"/>
			<point x="397" y="-7"/>
			<point x="412" y="4" type="curve" smooth="yes"/>
			<point x="425" y="14"/>
			<point x="422" y="29"/>
			<point x="414" y="41" type="curve" smooth="yes"/>
			<point x="224" y="317" type="line"/>
			<point x="155" y="324" type="line"/>
			<point x="94" y="279"/>
			<point x="53" y="227"/>
			<point x="44" y="178" type="curve" smooth="yes"/>
			<point x="30" y="103"/>
			<point x="84" y="-4"/>
			<point x="204" y="-4" type="curve" smooth="yes"/>
			<point x="294" y="-4"/>
			<point x="333" y="56"/>
			<point x="401" y="169" type="curve"/>
			<point x="409" y="181"/>
			<point x="405" y="195"/>
			<point x="393" y="201" type="curve" smooth="yes"/>
			<point x="381" y="208"/>
			<point x="365" y="203"/>
			<point x="356" y="190" type="curve"/>
			<point x="295" y="96"/>
			<point x="273" y="46"/>
			<point x="204" y="46" type="curve" smooth="yes"/>
			<point x="130" y="46"/>
			<point x="81" y="103"/>
			<point x="92" y="164" type="curve" smooth="yes"/>
			<point x="100" y="205"/>
			<point x="135" y="249"/>
			<point x="186" y="285" type="curve"/>
		</contour>
		<contour>
			<point x="208" y="335" type="line"/>
			<point x="189" y="363"/>
			<point x="144" y="424"/>
			<point x="144" y="455" type="curve" smooth="yes"/>
			<point x="144" y="487"/>
			<point x="190" y="518"/>
			<point x="247" y="518" type="curve" smooth="yes"/>
			<point x="291" y="518"/>
			<point x="308" y="500"/>
			<point x="312" y="486" type="curve" smooth="yes"/>
			<point x="321" y="449"/>
			<point x="249" y="383"/>
			<point x="148" y="319" type="curve"/>
			<point x="224" y="309" type="line"/>
			<point x="311" y="371"/>
			<point x="378" y="432"/>
			<point x="358" y="500" type="curve" smooth="yes"/>
			<point x="345" y="547"/>
			<point x="300" y="568"/>
			<point x="247" y="568" type="curve" smooth="yes"/>
			<point x="159" y="568"/>
			<point x="94" y="510"/>
			<point x="94" y="453" type="curve" smooth="yes"/>
			<point x="94" y="403"/>
			<point x="143" y="342"/>
			<point x="165" y="309" type="curve"/>
		</contour>
	</outline>
</glyph>
<glyph name="quotesingle" format="2">
	<advance width="232"/>
	<unicode hex="0027"/>
	<outline>
		<contour>
			<point x="220" y="620" type="line" smooth="yes"/>
			<point x="223" y="640"/>
			<point x="211" y="650"/>
			<point x="197" y="650" type="curve" smooth="yes"/>
			<point x="185" y="650"/>
			<point x="173" y="642"/>
			<point x="170" y="628" type="curve" smooth="yes"/>
			<point x="152" y="528" type="line" smooth="yes"/>
			<point x="149" y="509"/>
			<point x="161" y="500"/>
			<point x="175" y="500" type="curve" smooth="yes"/>
			<point x="187" y="500"/>
			<point x="201" y="507"/>
			<point x="203" y="521" type="curve" smooth="yes"/>
		</contour>
	</outline>
</glyph>
<glyph name="parenleft" format="2">
	<advance width="401"/>
	<unicode hex="0028"/>
	<outline>
		<contour>
			<point x="223" y="-297" type="curve" smooth="yes"/>
			<point x="231" y="-292"/>
			<point x="232" y="-278"/>
			<point x="224" y="-261" type="curve" smooth="yes"/>
			<point x="138" y="-81"/>
			<point x="125" y="77"/>
			<point x="150" y="219" type="curve" smooth="yes"/>
			<point x="173" y="347"/>
			<point x="249" y="480"/>
			<point x="375" y="607" type="curve" smooth="yes"/>
			<point x="393" y="625"/>
			<point x="395" y="639"/>
			<point x="388" y="646" type="curve" smooth="yes"/>
			<point x="380" y="654"/>
			<point x="362" y="651"/>
			<point x="342" y="633" type="curve" smooth="yes"/>
			<point x="210" y="506"/>
			<point x="113" y="329"/>
			<point x="94" y="219" type="curve" smooth="yes"/>
			<point x="72" y="94"/>
			<point x="98" y="-101"/>
			<point x="188" y="-283" type="curve" smooth="yes"/>
			<point x="196" y="-299"/>
			<point x="212" y="-303"/>
		</contour>
	</outline>
</glyph>
<glyph name="parenright" format="2">
  <advance width="377"/>
  <unicode hex="0029"/>
  <outline>
    <contour>
      <point x="-11" y="-274" type="curve" smooth="yes"/>
      <point x="-3" y="-284"/>
      <point x="14" y="-285"/>
      <point x="27" y="-273" type="curve" smooth="yes"/>
      <point x="173" y="-133"/>
      <point x="264" y="42"/>
      <point x="287" y="167" type="curve" smooth="yes"/>
      <point x="306" y="276"/>
      <point x="276" y="476"/>
      <point x="195" y="640" type="curve" smooth="yes"/>
      <point x="182" y="664"/>
      <point x="167" y="673"/>
      <point x="156" y="668" type="curve" smooth="yes"/>
      <point x="147" y="664"/>
      <point x="144" y="650"/>
      <point x="155" y="627" type="curve" smooth="yes"/>
      <point x="230" y="465"/>
      <point x="256" y="314"/>
      <point x="234" y="186" type="curve" smooth="yes"/>
      <point x="209" y="44"/>
      <point x="143" y="-100"/>
      <point x="0" y="-240" type="curve" smooth="yes"/>
      <point x="-13" y="-253"/>
      <point x="-17" y="-267"/>
    </contour>
  </outline>
</glyph>
<glyph name="asterisk" format="2">
	<advance width="352"/>
	<unicode hex="002A"/>
	<outline>
		<contour>
			<point x="319" y="574" type="line" smooth="yes"/>
			<point x="336" y="584"/>
			<point x="339" y="598"/>
			<point x="333" y="607" type="curve" smooth="yes"/>
			<point x="328" y="614"/>
			<point x="316" y="617"/>
			<point x="301" y="608" type="curve" smooth="yes"/>
			<point x="165" y="524" type="line" smooth="yes"/>
			<point x="148" y="513"/>
			<point x="144" y="499"/>
			<point x="150" y="491" type="curve" smooth="yes"/>
			<point x="155" y="483"/>
			<point x="167" y="481"/>
			<point x="183" y="490" type="curve" smooth="yes"/>
		</contour>
		<contour>
			<point x="283" y="492" type="line" smooth="yes"/>
			<point x="296" y="482"/>
			<point x="309" y="484"/>
			<point x="316" y="492" type="curve" smooth="yes"/>
			<point x="321" y="499"/>
			<point x="321" y="511"/>
			<point x="308" y="521" type="curve" smooth="yes"/>
			<point x="200" y="606" type="line" smooth="yes"/>
			<point x="188" y="616"/>
			<point x="176" y="614"/>
			<point x="170" y="606" type="curve" smooth="yes"/>
			<point x="163" y="599"/>
			<point x="163" y="586"/>
			<point x="176" y="576" type="curve" smooth="yes"/>
		</contour>
		<contour>
			<point x="274" y="623" type="line" smooth="yes"/>
			<point x="277" y="641"/>
			<point x="269" y="650"/>
			<point x="260" y="650" type="curve" smooth="yes"/>
			<point x="250" y="650"/>
			<point x="238" y="641"/>
			<point x="235" y="623" type="curve" smooth="yes"/>
			<point x="209" y="475" type="line" smooth="yes"/>
			<point x="206" y="458"/>
			<point x="213" y="450"/>
			<point x="222" y="448" type="curve" smooth="yes"/>
			<point x="232" y="447"/>
			<point x="245" y="456"/>
			<point x="248" y="475" type="curve" smooth="yes"/>
		</contour>
	</outline>
</glyph>
<glyph name="plus" format="2">
	<advance width="370"/>
	<unicode hex="002B"/>
	<outline>
		<contour>
			<point x="231" y="304" type="line" smooth="yes"/>
			<point x="234" y="323"/>
			<point x="222" y="334"/>
			<point x="210" y="334" type="curve" smooth="yes"/>
			<point x="200" y="334"/>
			<point x="190" y="327"/>
			<point x="187" y="311" type="curve" smooth="yes"/>
			<point x="148" y="87" type="line" smooth="yes"/>
			<point x="145" y="68"/>
			<point x="157" y="57"/>
			<point x="169" y="57" type="curve" smooth="yes"/>
			<point x="179" y="57"/>
			<point x="189" y="64"/>
			<point x="192" y="80" type="curve" smooth="yes"/>
		</contour>
		<contour>
			<point x="303" y="175" type="line" smooth="yes"/>
			<point x="321" y="175"/>
			<point x="330" y="187"/>
			<point x="330" y="198" type="curve" smooth="yes"/>
			<point x="330" y="209"/>
			<point x="321" y="220"/>
			<point x="303" y="220" type="curve" smooth="yes"/>
			<point x="76" y="220" type="line" smooth="yes"/>
			<point x="58" y="220"/>
			<point x="49" y="209"/>
			<point x="49" y="198" type="curve" smooth="yes"/>
			<point x="49" y="187"/>
			<point x="58" y="175"/>
			<point x="76" y="175" type="curve" smooth="yes"/>
		</contour>
	</outline>
</glyph>
<glyph name="comma" format="2">
	<advance width="229"/>
	<unicode hex="002C"/>
	<outline>
		<contour>
			<point x="114" y="21" type="line" smooth="yes"/>
			<point x="117" y="39"/>
			<point x="106" y="49"/>
			<point x="93" y="50" type="curve" smooth="yes"/>
			<point x="80" y="52"/>
			<point x="67" y="45"/>
			<point x="64" y="28" type="curve" smooth="yes"/>
			<point x="47" y="-71" type="line" smooth="yes"/>
			<point x="44" y="-89"/>
			<point x="54" y="-99"/>
			<point x="66" y="-101" type="curve" smooth="yes"/>
			<point x="78" y="-103"/>
			<point x="93" y="-96"/>
			<point x="96" y="-78" type="curve" smooth="yes"/>
		</contour>
	</outline>
</glyph>
<glyph name="hyphen" format="2">
	<advance width="291"/>
	<unicode hex="002D"/>
	<outline>
		<contour>
			<point x="224" y="175" type="line" smooth="yes"/>
			<point x="242" y="175"/>
			<point x="251" y="186"/>
			<point x="251" y="198" type="curve" smooth="yes"/>
			<point x="251" y="209"/>
			<point x="242" y="220"/>
			<point x="224" y="220" type="curve" smooth="yes"/>
			<point x="76" y="220" type="line" smooth="yes"/>
			<point x="57" y="220"/>
			<point x="48" y="208"/>
			<point x="49" y="196" type="curve" smooth="yes"/>
			<point x="50" y="185"/>
			<point x="59" y="175"/>
			<point x="76" y="175" type="curve" smooth="yes"/>
		</contour>
	</outline>
</glyph>
<glyph name="period" format="2">
  <advance width="202"/>
  <unicode hex="002E"/>
  <outline>
    <contour>
      <point x="71" y="-12" type="curve" smooth="yes"/>
      <point x="91" y="-12"/>
      <point x="109" y="6"/>
      <point x="109" y="27" type="curve" smooth="yes"/>
      <point x="109" y="47"/>
      <point x="91" y="64"/>
      <point x="71" y="64" type="curve" smooth="yes"/>
      <point x="50" y="64"/>
      <point x="34" y="47"/>
      <point x="34" y="27" type="curve" smooth="yes"/>
      <point x="34" y="7"/>
      <point x="50" y="-12"/>
    </contour>
  </outline>
</glyph>
<glyph name="slash" format="2">
	<advance width="385"/>
	<unicode hex="002F"/>
	<outline>
		<contour>
			<point x="372" y="616" type="line" smooth="yes"/>
			<point x="381" y="637"/>
			<point x="366" y="650"/>
			<point x="351" y="650" type="curve" smooth="yes"/>
			<point x="340" y="650"/>
			<point x="329" y="644"/>
			<point x="322" y="627" type="curve" smooth="yes"/>
			<point x="65" y="31" type="line" smooth="yes"/>
			<point x="57" y="12"/>
			<point x="71" y="0"/>
			<point x="87" y="0" type="curve" smooth="yes"/>
			<point x="98" y="0"/>
			<point x="109" y="6"/>
			<point x="115" y="20" type="curve" smooth="yes"/>
		</contour>
	</outline>
</glyph>
<glyph name="zero" format="2">
  <advance width="445"/>
  <unicode hex="0030"/>
  <outline>
    <contour>
      <point x="131" y="-4" type="curve" smooth="yes"/>
      <point x="254" y="-3"/>
      <point x="423" y="228"/>
      <point x="423" y="402" type="curve" smooth="yes"/>
      <point x="423" y="477"/>
      <point x="394" y="568"/>
      <point x="288" y="568" type="curve" smooth="yes"/>
      <point x="99" y="568"/>
      <point x="22" y="280"/>
      <point x="22" y="160" type="curve" smooth="yes"/>
      <point x="22" y="81"/>
      <point x="56" y="-4"/>
    </contour>
    <contour>
      <point x="130" y="47" type="curve" smooth="yes"/>
      <point x="99" y="47"/>
      <point x="74" y="84"/>
      <point x="74" y="155" type="curve" smooth="yes"/>
      <point x="74" y="279"/>
      <point x="153" y="517"/>
      <point x="290" y="517" type="curve" smooth="yes"/>
      <point x="355" y="517"/>
      <point x="371" y="463"/>
      <point x="371" y="405" type="curve" smooth="yes"/>
      <point x="371" y="212"/>
      <point x="195" y="47"/>
    </contour>
  </outline>
</glyph>
<glyph name="one" format="2">
  <advance width="445"/>
  <unicode hex="0031"/>
  <outline>
    <contour>
      <point x="285" y="543" type="line" smooth="yes"/>
      <point x="288" y="560"/>
      <point x="277" y="568"/>
      <point x="264" y="568" type="curve" smooth="yes"/>
      <point x="251" y="568"/>
      <point x="237" y="561"/>
      <point x="234" y="543" type="curve" smooth="yes"/>
      <point x="143" y="28" type="line" smooth="yes"/>
      <point x="140" y="9"/>
      <point x="152" y="0"/>
      <point x="165" y="0" type="curve" smooth="yes"/>
      <point x="177" y="0"/>
      <point x="190" y="6"/>
      <point x="193" y="23" type="curve" smooth="yes"/>
    </contour>
  </outline>
</glyph>
<glyph name="two" format="2">
  <advance width="445"/>
  <unicode hex="0032"/>
  <outline>
    <contour>
      <point x="49" y="0" type="line"/>
      <point x="99" y="49" type="line"/>
      <point x="156" y="115"/>
      <point x="284" y="263"/>
      <point x="297" y="278" type="curve" smooth="yes"/>
      <point x="422" y="431"/>
      <point x="433" y="501"/>
      <point x="354" y="549" type="curve" smooth="yes"/>
      <point x="285" y="591"/>
      <point x="166" y="558"/>
      <point x="103" y="505" type="curve" smooth="yes"/>
      <point x="79" y="485"/>
      <point x="83" y="472"/>
      <point x="91" y="463" type="curve" smooth="yes"/>
      <point x="99" y="454"/>
      <point x="115" y="451"/>
      <point x="140" y="471" type="curve" smooth="yes"/>
      <point x="192" y="513"/>
      <point x="288" y="531"/>
      <point x="331" y="505" type="curve" smooth="yes"/>
      <point x="381" y="475"/>
      <point x="328" y="393"/>
      <point x="276" y="332" type="curve" smooth="yes"/>
      <point x="250" y="301"/>
      <point x="147" y="185"/>
      <point x="12" y="35" type="curve" smooth="yes"/>
      <point x="-5" y="16"/>
      <point x="6" y="0"/>
      <point x="28" y="0" type="curve"/>
    </contour>
    <contour>
      <point x="45" y="0" type="line"/>
      <point x="300" y="0" type="line" smooth="yes"/>
      <point x="320" y="0"/>
      <point x="326" y="13"/>
      <point x="326" y="25" type="curve" smooth="yes"/>
      <point x="326" y="37"/>
      <point x="320" y="50"/>
      <point x="300" y="50" type="curve" smooth="yes"/>
      <point x="45" y="50" type="line"/>
    </contour>
  </outline>
</glyph>
<glyph name="three" format="2">
	<advance width="445"/>
	<unicode hex="0033"/>
	<outline>
		<contour>
			<point x="148" y="275" type="line"/>
			<point x="196" y="296"/>
			<point x="233" y="305"/>
			<point x="261" y="305" type="curve" smooth="yes"/>
			<point x="320" y="305"/>
			<point x="340" y="266"/>
			<point x="340" y="225" type="curve" smooth="yes"/>
			<point x="340" y="125"/>
			<point x="222" y="47"/>
			<point x="134" y="47" type="curve" smooth="yes"/>
			<point x="110" y="47"/>
			<point x="88" y="53"/>
			<point x="71" y="66" type="curve" smooth="yes"/>
			<point x="47" y="84"/>
			<point x="33" y="72"/>
			<point x="28" y="65" type="curve" smooth="yes"/>
			<point x="23" y="58"/>
			<point x="18" y="45"/>
			<point x="43" y="25" type="curve" smooth="yes"/>
			<point x="67" y="5"/>
			<point x="99" y="-4"/>
			<point x="133" y="-4" type="curve" smooth="yes"/>
			<point x="247" y="-4"/>
			<point x="390" y="98"/>
			<point x="390" y="226" type="curve" smooth="yes"/>
			<point x="390" y="303"/>
			<point x="339" y="354"/>
			<point x="256" y="354" type="curve" smooth="yes"/>
			<point x="220" y="354"/>
			<point x="178" y="345"/>
			<point x="132" y="324" type="curve"/>
		</contour>
		<contour>
			<point x="146" y="273" type="curve" smooth="yes"/>
			<point x="269" y="355"/>
			<point x="387" y="437"/>
			<point x="387" y="499" type="curve" smooth="yes"/>
			<point x="387" y="542"/>
			<point x="347" y="568"/>
			<point x="288" y="568" type="curve" smooth="yes"/>
			<point x="240" y="568"/>
			<point x="179" y="551"/>
			<point x="119" y="511" type="curve" smooth="yes"/>
			<point x="94" y="495"/>
			<point x="99" y="478"/>
			<point x="104" y="470" type="curve" smooth="yes"/>
			<point x="110" y="460"/>
			<point x="126" y="455"/>
			<point x="139" y="464" type="curve" smooth="yes"/>
			<point x="200" y="505"/>
			<point x="257" y="522"/>
			<point x="294" y="522" type="curve" smooth="yes"/>
			<point x="321" y="522"/>
			<point x="337" y="513"/>
			<point x="337" y="499" type="curve" smooth="yes"/>
			<point x="337" y="466"/>
			<point x="202" y="368"/>
			<point x="118" y="316" type="curve" smooth="yes"/>
			<point x="101" y="305"/>
			<point x="104" y="288"/>
			<point x="108" y="280" type="curve" smooth="yes"/>
			<point x="113" y="270"/>
			<point x="131" y="263"/>
		</contour>
	</outline>
</glyph>
<glyph name="four" format="2">
	<advance width="445"/>
	<unicode hex="0034"/>
	<outline>
		<contour>
			<point x="186" y="540" type="line" smooth="yes"/>
			<point x="189" y="558"/>
			<point x="177" y="568"/>
			<point x="165" y="568" type="curve" smooth="yes"/>
			<point x="153" y="568"/>
			<point x="139" y="562"/>
			<point x="136" y="544" type="curve" smooth="yes"/>
			<point x="67" y="159" type="line" smooth="yes"/>
			<point x="65" y="147"/>
			<point x="74" y="135"/>
			<point x="92" y="135" type="curve" smooth="yes"/>
			<point x="109" y="135"/>
			<point x="116" y="148"/>
			<point x="118" y="160" type="curve" smooth="yes"/>
		</contour>
		<contour>
			<point x="298" y="282" type="line" smooth="yes"/>
			<point x="301" y="299"/>
			<point x="290" y="309"/>
			<point x="278" y="311" type="curve" smooth="yes"/>
			<point x="265" y="313"/>
			<point x="251" y="306"/>
			<point x="248" y="289" type="curve" smooth="yes"/>
			<point x="201" y="31" type="line" smooth="yes"/>
			<point x="197" y="11"/>
			<point x="208" y="1"/>
			<point x="221" y="0" type="curve" smooth="yes"/>
			<point x="233" y="-1"/>
			<point x="247" y="6"/>
			<point x="251" y="26" type="curve" smooth="yes"/>
		</contour>
		<contour>
			<point x="93" y="135" type="line"/>
			<point x="392" y="135" type="line" smooth="yes"/>
			<point x="408" y="135"/>
			<point x="418" y="146"/>
			<point x="418" y="158" type="curve" smooth="yes"/>
			<point x="418" y="170"/>
			<point x="408" y="180"/>
			<point x="392" y="180" type="curve" smooth="yes"/>
			<point x="93" y="180" type="line"/>
		</contour>
	</outline>
</glyph>
<glyph name="five" format="2">
	<advance width="445"/>
	<unicode hex="0035"/>
	<outline>
		<contour>
			<point x="123" y="288" type="line"/>
			<point x="160" y="299"/>
			<point x="188" y="304"/>
			<point x="213" y="304" type="curve" smooth="yes"/>
			<point x="292" y="304"/>
			<point x="326" y="252"/>
			<point x="326" y="211" type="curve" smooth="yes"/>
			<point x="326" y="149"/>
			<point x="250" y="47"/>
			<point x="153" y="47" type="curve" smooth="yes"/>
			<point x="128" y="47"/>
			<point x="106" y="54"/>
			<point x="92" y="67" type="curve" smooth="yes"/>
			<point x="85" y="74"/>
			<point x="78" y="76"/>
			<point x="71" y="76" type="curve" smooth="yes"/>
			<point x="58" y="76"/>
			<point x="47" y="67"/>
			<point x="47" y="54" type="curve" smooth="yes"/>
			<point x="47" y="46"/>
			<point x="51" y="37"/>
			<point x="60" y="28" type="curve" smooth="yes"/>
			<point x="81" y="8"/>
			<point x="114" y="-3"/>
			<point x="153" y="-3" type="curve" smooth="yes"/>
			<point x="284" y="-3"/>
			<point x="376" y="125"/>
			<point x="376" y="212" type="curve" smooth="yes"/>
			<point x="376" y="287"/>
			<point x="312" y="354"/>
			<point x="210" y="354" type="curve" smooth="yes"/>
			<point x="182" y="354"/>
			<point x="154" y="349"/>
			<point x="119" y="337" type="curve"/>
		</contour>
		<contour>
			<point x="183" y="541" type="line"/>
			<point x="166" y="568" type="line"/>
			<point x="156" y="568"/>
			<point x="148" y="566"/>
			<point x="143" y="562" type="curve" smooth="yes"/>
			<point x="138" y="558"/>
			<point x="134" y="551"/>
			<point x="132" y="541" type="curve" smooth="yes"/>
			<point x="91" y="310" type="line" smooth="yes"/>
			<point x="88" y="295"/>
			<point x="101" y="286"/>
			<point x="114" y="286" type="curve" smooth="yes"/>
			<point x="126" y="286"/>
			<point x="139" y="294"/>
			<point x="142" y="310" type="curve" smooth="yes"/>
		</contour>
		<contour>
			<point x="165" y="523" type="line"/>
			<point x="409" y="523" type="line" smooth="yes"/>
			<point x="429" y="523"/>
			<point x="435" y="533"/>
			<point x="435" y="545" type="curve" smooth="yes"/>
			<point x="435" y="557"/>
			<point x="429" y="568"/>
			<point x="409" y="568" type="curve" smooth="yes"/>
			<point x="165" y="568" type="line"/>
		</contour>
	</outline>
</glyph>
<glyph name="six" format="2">
	<advance width="445"/>
	<unicode hex="0036"/>
	<outline>
		<contour>
			<point x="127" y="113" type="line"/>
			<point x="127" y="209"/>
			<point x="161" y="288"/>
			<point x="231" y="387" type="curve" smooth="yes"/>
			<point x="258" y="425"/>
			<point x="304" y="471"/>
			<point x="379" y="523" type="curve" smooth="yes"/>
			<point x="390" y="530"/>
			<point x="394" y="540"/>
			<point x="394" y="548" type="curve" smooth="yes"/>
			<point x="393" y="559"/>
			<point x="385" y="568"/>
			<point x="372" y="568" type="curve" smooth="yes"/>
			<point x="366" y="568"/>
			<point x="359" y="566"/>
			<point x="351" y="562" type="curve" smooth="yes"/>
			<point x="304" y="535"/>
			<point x="221" y="460"/>
			<point x="187" y="412" type="curve" smooth="yes"/>
			<point x="119" y="316"/>
			<point x="78" y="213"/>
			<point x="78" y="113" type="curve"/>
		</contour>
		<contour>
			<point x="78" y="114" type="line"/>
			<point x="78" y="53"/>
			<point x="126" y="0"/>
			<point x="194" y="0" type="curve" smooth="yes"/>
			<point x="296" y="0"/>
			<point x="404" y="149"/>
			<point x="404" y="257" type="curve" smooth="yes"/>
			<point x="404" y="321"/>
			<point x="366" y="353"/>
			<point x="294" y="353" type="curve" smooth="yes"/>
			<point x="207" y="353"/>
			<point x="146" y="306"/>
			<point x="111" y="244" type="curve"/>
		</contour>
		<contour>
			<point x="192" y="50" type="curve" smooth="yes"/>
			<point x="159" y="50"/>
			<point x="128" y="78"/>
			<point x="128" y="135" type="curve" smooth="yes"/>
			<point x="128" y="215"/>
			<point x="189" y="303"/>
			<point x="292" y="303" type="curve" smooth="yes"/>
			<point x="333" y="303"/>
			<point x="354" y="289"/>
			<point x="354" y="251" type="curve" smooth="yes"/>
			<point x="354" y="173"/>
			<point x="262" y="50"/>
		</contour>
	</outline>
</glyph>
<glyph name="seven" format="2">
  <advance width="445"/>
  <unicode hex="0037"/>
  <outline>
    <contour>
      <point x="362" y="544" type="line" smooth="yes"/>
      <point x="364" y="556"/>
      <point x="358" y="568"/>
      <point x="338" y="568" type="curve" smooth="yes"/>
      <point x="327" y="568"/>
      <point x="315" y="560"/>
      <point x="313" y="549" type="curve" smooth="yes"/>
      <point x="220" y="26" type="line" smooth="yes"/>
      <point x="217" y="8"/>
      <point x="228" y="0"/>
      <point x="241" y="0" type="curve" smooth="yes"/>
      <point x="253" y="0"/>
      <point x="267" y="8"/>
      <point x="270" y="26" type="curve" smooth="yes"/>
    </contour>
    <contour>
      <point x="339" y="523" type="line"/>
      <point x="339" y="568" type="line"/>
      <point x="92" y="568" type="line" smooth="yes"/>
      <point x="74" y="568"/>
      <point x="65" y="557"/>
      <point x="65" y="546" type="curve" smooth="yes"/>
      <point x="65" y="534"/>
      <point x="74" y="523"/>
      <point x="92" y="523" type="curve" smooth="yes"/>
    </contour>
  </outline>
</glyph>
<glyph name="eight" format="2">
	<advance width="445"/>
	<unicode hex="0038"/>
	<outline>
		<contour>
			<point x="249" y="321" type="line"/>
			<point x="183" y="325" type="line"/>
			<point x="93" y="259"/>
			<point x="68" y="185"/>
			<point x="68" y="132" type="curve" smooth="yes"/>
			<point x="68" y="74"/>
			<point x="97" y="-4"/>
			<point x="194" y="-4" type="curve" smooth="yes"/>
			<point x="298" y="-4"/>
			<point x="354" y="84"/>
			<point x="354" y="149" type="curve" smooth="yes"/>
			<point x="354" y="208"/>
			<point x="308" y="266"/>
			<point x="264" y="307" type="curve" smooth="yes"/>
		</contour>
		<contour>
			<point x="227" y="273" type="line" smooth="yes"/>
			<point x="262" y="238"/>
			<point x="303" y="190"/>
			<point x="303" y="149" type="curve" smooth="yes"/>
			<point x="303" y="105"/>
			<point x="257" y="45"/>
			<point x="200" y="45" type="curve" smooth="yes"/>
			<point x="150" y="45"/>
			<point x="117" y="90"/>
			<point x="117" y="139" type="curve" smooth="yes"/>
			<point x="117" y="178"/>
			<point x="138" y="231"/>
			<point x="215" y="285" type="curve"/>
		</contour>
		<contour>
			<point x="251" y="312" type="line"/>
			<point x="332" y="368"/>
			<point x="413" y="431"/>
			<point x="413" y="488" type="curve" smooth="yes"/>
			<point x="413" y="542"/>
			<point x="339" y="568"/>
			<point x="280" y="568" type="curve" smooth="yes"/>
			<point x="207" y="568"/>
			<point x="120" y="529"/>
			<point x="120" y="442" type="curve" smooth="yes"/>
			<point x="120" y="386"/>
			<point x="157" y="350"/>
			<point x="183" y="323" type="curve"/>
			<point x="226" y="349" type="line"/>
			<point x="203" y="371"/>
			<point x="171" y="405"/>
			<point x="171" y="447" type="curve" smooth="yes"/>
			<point x="171" y="504"/>
			<point x="229" y="518"/>
			<point x="270" y="518" type="curve" smooth="yes"/>
			<point x="306" y="518"/>
			<point x="366" y="507"/>
			<point x="366" y="488" type="curve" smooth="yes"/>
			<point x="366" y="462"/>
			<point x="257" y="369"/>
			<point x="182" y="322" type="curve"/>
		</contour>
	</outline>
</glyph>
<glyph name="nine" format="2">
  <advance width="407"/>
  <unicode hex="0039"/>
  <outline>
    <contour>
      <point x="40" y="291" type="curve" smooth="yes"/>
      <point x="40" y="240"/>
      <point x="60" y="214"/>
      <point x="93" y="214" type="curve" smooth="yes"/>
      <point x="158" y="214"/>
      <point x="248" y="287"/>
      <point x="367" y="528" type="curve"/>
      <point x="328" y="528" type="line"/>
      <point x="215" y="340"/>
      <point x="133" y="265"/>
      <point x="104" y="265" type="curve" smooth="yes"/>
      <point x="93" y="265.0"/>
      <point x="90.0" y="276.0"/>
      <point x="90" y="296" type="curve" smooth="yes"/>
      <point x="90" y="334"/>
      <point x="108" y="424"/>
      <point x="134" y="463" type="curve" smooth="yes"/>
      <point x="164" y="508"/>
      <point x="215" y="518"/>
      <point x="249" y="518" type="curve" smooth="yes"/>
      <point x="332" y="518" type="line"/>
      <point x="343" y="518" type="line"/>
      <point x="343" y="568" type="line"/>
      <point x="249" y="568" type="line" smooth="yes"/>
      <point x="192.0" y="568.0"/>
      <point x="133" y="551"/>
      <point x="95" y="494" type="curve" smooth="yes"/>
      <point x="63" y="446"/>
      <point x="40" y="349"/>
    </contour>
    <contour>
      <point x="256" y="0" type="curve" smooth="yes"/>
      <point x="269" y="0"/>
      <point x="282" y="8"/>
      <point x="285" y="24" type="curve" smooth="yes"/>
      <point x="387" y="546" type="line" smooth="yes"/>
      <point x="389" y="558"/>
      <point x="383.0" y="568.0"/>
      <point x="371" y="568" type="curve" smooth="yes"/>
      <point x="323" y="568" type="line"/>
      <point x="323" y="479" type="line"/>
      <point x="235" y="24" type="line" smooth="yes"/>
      <point x="232" y="8"/>
      <point x="244" y="0"/>
    </contour>
  </outline>
</glyph>
<glyph name="colon" format="2">
	<advance width="166"/>
	<unicode hex="003A"/>
	<outline>
		<contour>
			<point x="53" y="-30" type="curve" smooth="yes"/>
			<point x="74" y="-30"/>
			<point x="92" y="-12"/>
			<point x="92" y="9" type="curve" smooth="yes"/>
			<point x="92" y="29"/>
			<point x="74" y="46"/>
			<point x="53" y="46" type="curve" smooth="yes"/>
			<point x="32" y="46"/>
			<point x="16" y="29"/>
			<point x="16" y="9" type="curve" smooth="yes"/>
			<point x="16" y="-11"/>
			<point x="32" y="-30"/>
		</contour>
		<contour>
			<point x="89" y="175" type="curve" smooth="yes"/>
			<point x="109" y="175"/>
			<point x="127" y="194"/>
			<point x="127" y="214" type="curve" smooth="yes"/>
			<point x="127" y="235"/>
			<point x="109" y="251"/>
			<point x="89" y="251" type="curve" smooth="yes"/>
			<point x="68" y="251"/>
			<point x="52" y="234"/>
			<point x="52" y="214" type="curve" smooth="yes"/>
			<point x="52" y="195"/>
			<point x="68" y="175"/>
		</contour>
	</outline>
</glyph>
<glyph name="semicolon" format="2">
	<advance width="165"/>
	<unicode hex="003B"/>
	<outline>
		<contour>
			<point x="82" y="21" type="line" smooth="yes"/>
			<point x="85" y="39"/>
			<point x="74" y="49"/>
			<point x="61" y="50" type="curve" smooth="yes"/>
			<point x="48" y="52"/>
			<point x="35" y="45"/>
			<point x="32" y="28" type="curve" smooth="yes"/>
			<point x="15" y="-71" type="line" smooth="yes"/>
			<point x="12" y="-90"/>
			<point x="24" y="-101"/>
			<point x="37" y="-102" type="curve" smooth="yes"/>
			<point x="48" y="-103"/>
			<point x="61" y="-95"/>
			<point x="64" y="-78" type="curve" smooth="yes"/>
		</contour>
		<contour>
			<point x="89" y="175" type="curve" smooth="yes"/>
			<point x="109" y="175"/>
			<point x="127" y="194"/>
			<point x="127" y="214" type="curve" smooth="yes"/>
			<point x="127" y="235"/>
			<point x="109" y="251"/>
			<point x="89" y="251" type="curve" smooth="yes"/>
			<point x="68" y="251"/>
			<point x="52" y="234"/>
			<point x="52" y="214" type="curve" smooth="yes"/>
			<point x="52" y="195"/>
			<point x="68" y="175"/>
		</contour>
	</outline>
</glyph>
<glyph name="less" format="2">
	<advance width="430"/>
	<unicode hex="003C"/>
	<outline>
		<contour>
			<point x="131" y="177" type="line"/>
			<point x="346" y="290" type="line" smooth="yes"/>
			<point x="366" y="300"/>
			<point x="369" y="312"/>
			<point x="365" y="323" type="curve" smooth="yes"/>
			<point x="361" y="333"/>
			<point x="350" y="343"/>
			<point x="331" y="333" type="curve" smooth="yes"/>
			<point x="105" y="214" type="line"/>
		</contour>
		<contour>
			<point x="283" y="63" type="line" smooth="yes"/>
			<point x="299" y="53"/>
			<point x="312" y="54"/>
			<point x="320" y="64" type="curve" smooth="yes"/>
			<point x="328" y="75"/>
			<point x="325" y="89"/>
			<point x="310" y="99" type="curve" smooth="yes"/>
			<point x="132" y="212" type="line" smooth="yes"/>
			<point x="117" y="222"/>
			<point x="106" y="217"/>
			<point x="99" y="207" type="curve" smooth="yes"/>
			<point x="91" y="196"/>
			<point x="91" y="186"/>
			<point x="106" y="176" type="curve" smooth="yes"/>
		</contour>
	</outline>
</glyph>
<glyph name="equal" format="2">
	<advance width="460"/>
	<unicode hex="003D"/>
	<outline>
		<contour>
			<point x="361" y="248" type="line" smooth="yes"/>
			<point x="379" y="248"/>
			<point x="388" y="260"/>
			<point x="388" y="271" type="curve" smooth="yes"/>
			<point x="388" y="282"/>
			<point x="379" y="293"/>
			<point x="361" y="293" type="curve" smooth="yes"/>
			<point x="134" y="293" type="line" smooth="yes"/>
			<point x="116" y="293"/>
			<point x="107" y="282"/>
			<point x="107" y="271" type="curve" smooth="yes"/>
			<point x="107" y="260"/>
			<point x="116" y="248"/>
			<point x="134" y="248" type="curve" smooth="yes"/>
		</contour>
		<contour>
			<point x="335" y="97" type="line" smooth="yes"/>
			<point x="353" y="97"/>
			<point x="362" y="108"/>
			<point x="362" y="120" type="curve" smooth="yes"/>
			<point x="362" y="131"/>
			<point x="353" y="142"/>
			<point x="335" y="142" type="curve" smooth="yes"/>
			<point x="108" y="142" type="line" smooth="yes"/>
			<point x="90" y="142"/>
			<point x="81" y="131"/>
			<point x="81" y="120" type="curve" smooth="yes"/>
			<point x="81" y="109"/>
			<point x="90" y="97"/>
			<point x="108" y="97" type="curve" smooth="yes"/>
		</contour>
	</outline>
</glyph>
<glyph name="greater" format="2">
	<advance width="430"/>
	<unicode hex="003E"/>
	<outline>
		<contour>
			<point x="335" y="179" type="line"/>
			<point x="309" y="216" type="line"/>
			<point x="94" y="103" type="line" smooth="yes"/>
			<point x="74" y="93"/>
			<point x="71" y="81"/>
			<point x="75" y="70" type="curve" smooth="yes"/>
			<point x="79" y="60"/>
			<point x="90" y="50"/>
			<point x="109" y="60" type="curve" smooth="yes"/>
		</contour>
		<contour>
			<point x="308" y="181" type="line" smooth="yes"/>
			<point x="323" y="171"/>
			<point x="334" y="176"/>
			<point x="341" y="186" type="curve" smooth="yes"/>
			<point x="349" y="197"/>
			<point x="349" y="207"/>
			<point x="334" y="217" type="curve" smooth="yes"/>
			<point x="157" y="330" type="line" smooth="yes"/>
			<point x="141" y="340"/>
			<point x="128" y="339"/>
			<point x="120" y="329" type="curve" smooth="yes"/>
			<point x="112" y="318"/>
			<point x="115" y="304"/>
			<point x="130" y="294" type="curve" smooth="yes"/>
		</contour>
	</outline>
</glyph>
<glyph name="question" format="2">
	<advance width="487"/>
	<unicode hex="003F"/>
	<outline>
		<contour>
			<point x="234" y="272" type="line"/>
			<point x="390" y="272"/>
			<point x="458" y="364"/>
			<point x="483" y="503" type="curve" smooth="yes"/>
			<point x="497" y="582"/>
			<point x="429" y="654"/>
			<point x="338" y="654" type="curve" smooth="yes"/>
			<point x="223" y="654"/>
			<point x="159" y="590"/>
			<point x="142" y="495" type="curve" smooth="yes"/>
			<point x="138" y="473"/>
			<point x="143" y="460"/>
			<point x="154" y="457" type="curve" smooth="yes"/>
			<point x="167" y="454"/>
			<point x="187" y="463"/>
			<point x="191" y="485" type="curve" smooth="yes"/>
			<point x="201" y="542"/>
			<point x="239" y="604"/>
			<point x="324" y="604" type="curve" smooth="yes"/>
			<point x="390" y="604"/>
			<point x="444" y="568"/>
			<point x="433" y="507" type="curve" smooth="yes"/>
			<point x="425" y="461"/>
			<point x="401" y="322"/>
			<point x="239" y="322" type="curve"/>
		</contour>
		<contour>
			<point x="184" y="-24" type="curve" smooth="yes"/>
			<point x="202" y="-24"/>
			<point x="218" y="-9"/>
			<point x="218" y="7" type="curve" smooth="yes"/>
			<point x="218" y="26"/>
			<point x="203" y="41"/>
			<point x="184" y="41" type="curve" smooth="yes"/>
			<point x="167" y="41"/>
			<point x="153" y="25"/>
			<point x="153" y="7" type="curve" smooth="yes"/>
			<point x="153" y="-8"/>
			<point x="167" y="-24"/>
		</contour>
		<contour>
			<point x="263" y="303" type="line" smooth="yes"/>
			<point x="264" y="310"/>
			<point x="257" y="322"/>
			<point x="237" y="322" type="curve" smooth="yes"/>
			<point x="226" y="322"/>
			<point x="214" y="314"/>
			<point x="212" y="303" type="curve" smooth="yes"/>
			<point x="194" y="202" type="line" smooth="yes"/>
			<point x="192" y="188"/>
			<point x="202" y="178"/>
			<point x="214" y="175" type="curve" smooth="yes"/>
			<point x="227" y="173"/>
			<point x="241" y="180"/>
			<point x="245" y="202" type="curve" smooth="yes"/>
		</contour>
	</outline>
</glyph>
<glyph name="at" format="2">
	<advance width="667"/>
	<unicode hex="0040"/>
	<outline>
		<contour>
			<point x="584" y="98" type="line"/>
			<point x="622" y="153"/>
			<point x="637" y="204"/>
			<point x="641" y="238" type="curve" smooth="yes"/>
			<point x="663" y="403"/>
			<point x="580" y="476"/>
			<point x="423" y="476" type="curve" smooth="yes"/>
			<point x="333" y="476"/>
			<point x="233" y="458"/>
			<point x="176" y="418" type="curve" smooth="yes"/>
			<point x="88" y="356"/>
			<point x="45" y="228"/>
			<point x="32" y="124" type="curve" smooth="yes"/>
			<point x="13" y="-20"/>
			<point x="66" y="-118"/>
			<point x="213" y="-118" type="curve" smooth="yes"/>
			<point x="267" y="-118"/>
			<point x="309" y="-105"/>
			<point x="342" y="-84" type="curve" smooth="yes"/>
			<point x="380" y="-60"/>
			<point x="388" y="-36"/>
			<point x="377" y="-22" type="curve" smooth="yes"/>
			<point x="369" y="-11"/>
			<point x="356" y="-15"/>
			<point x="335" y="-29" type="curve" smooth="yes"/>
			<point x="291" y="-60"/>
			<point x="246" y="-68"/>
			<point x="209" y="-68" type="curve" smooth="yes"/>
			<point x="98" y="-68"/>
			<point x="64" y="4"/>
			<point x="83" y="123" type="curve" smooth="yes"/>
			<point x="94" y="192"/>
			<point x="123" y="317"/>
			<point x="202" y="375" type="curve" smooth="yes"/>
			<point x="248" y="409"/>
			<point x="337" y="426"/>
			<point x="421" y="426" type="curve" smooth="yes"/>
			<point x="543" y="426"/>
			<point x="608" y="379"/>
			<point x="594" y="256" type="curve" smooth="yes"/>
			<point x="589" y="214"/>
			<point x="572" y="166"/>
			<point x="543" y="125" type="curve"/>
		</contour>
		<contour>
			<point x="483" y="300" type="line"/>
			<point x="438" y="300" type="line"/>
			<point x="410" y="253"/>
			<point x="377" y="204"/>
			<point x="336" y="152" type="curve" smooth="yes"/>
			<point x="275" y="76"/>
			<point x="238" y="46"/>
			<point x="219" y="46" type="curve" smooth="yes"/>
			<point x="205" y="46"/>
			<point x="205" y="61"/>
			<point x="205" y="77" type="curve" smooth="yes"/>
			<point x="205" y="115"/>
			<point x="223" y="205"/>
			<point x="249" y="244" type="curve" smooth="yes"/>
			<point x="279" y="289"/>
			<point x="330" y="299"/>
			<point x="364" y="299" type="curve" smooth="yes"/>
			<point x="371" y="299"/>
			<point x="439" y="299"/>
			<point x="447" y="299" type="curve"/>
			<point x="458" y="299" type="line"/>
			<point x="458" y="301"/>
			<point x="458" y="346"/>
			<point x="458" y="349" type="curve"/>
			<point x="446" y="349"/>
			<point x="384" y="349"/>
			<point x="364" y="349" type="curve" smooth="yes"/>
			<point x="307" y="349"/>
			<point x="248" y="332"/>
			<point x="210" y="275" type="curve" smooth="yes"/>
			<point x="178" y="227"/>
			<point x="155" y="130"/>
			<point x="155" y="72" type="curve" smooth="yes"/>
			<point x="155" y="21"/>
			<point x="178" y="0"/>
			<point x="211" y="0" type="curve" smooth="yes"/>
			<point x="269" y="0"/>
			<point x="318" y="49"/>
			<point x="360" y="101" type="curve" smooth="yes"/>
			<point x="408" y="162"/>
			<point x="456" y="239"/>
			<point x="479" y="291" type="curve" smooth="yes"/>
		</contour>
		<contour>
			<point x="550" y="135" type="line"/>
			<point x="521" y="92"/>
			<point x="477" y="48"/>
			<point x="461" y="48" type="curve" smooth="yes"/>
			<point x="450" y="48"/>
			<point x="453" y="66"/>
			<point x="453" y="78" type="curve" smooth="yes"/>
			<point x="453" y="93"/>
			<point x="458" y="124"/>
			<point x="459" y="132" type="curve" smooth="yes"/>
			<point x="494" y="327" type="line" smooth="yes"/>
			<point x="497" y="343"/>
			<point x="491" y="349"/>
			<point x="476" y="349" type="curve" smooth="yes"/>
			<point x="446" y="349" type="line"/>
			<point x="410" y="146" type="line" smooth="yes"/>
			<point x="406" y="122"/>
			<point x="403" y="95"/>
			<point x="403" y="75" type="curve" smooth="yes"/>
			<point x="403" y="26"/>
			<point x="420" y="0"/>
			<point x="456" y="0" type="curve" smooth="yes"/>
			<point x="509" y="0"/>
			<point x="553" y="54"/>
			<point x="589" y="105" type="curve"/>
		</contour>
	</outline>
</glyph>
<glyph name="A" format="2">
	<advance width="479"/>
	<unicode hex="0041"/>
	<outline>
		<contour>
			<point x="369" y="619" type="line"/>
			<point x="371" y="625" type="line"/>
			<point x="375" y="638"/>
			<point x="367" y="650"/>
			<point x="348" y="650" type="curve" smooth="yes"/>
			<point x="326" y="650"/>
			<point x="325" y="639"/>
			<point x="318" y="625" type="curve" smooth="yes"/>
			<point x="9" y="32" type="line" smooth="yes"/>
			<point x="-1" y="12"/>
			<point x="11" y="0"/>
			<point x="26" y="0" type="curve" smooth="yes"/>
			<point x="46" y="0"/>
			<point x="51" y="7"/>
			<point x="60" y="25" type="curve" smooth="yes"/>
		</contour>
		<contour>
			<point x="180" y="304" type="line"/>
			<point x="376" y="304" type="line"/>
			<point x="371" y="350" type="line"/>
			<point x="202" y="350" type="line"/>
		</contour>
		<contour>
			<point x="372" y="635" type="line"/>
			<point x="325" y="613" type="line"/>
			<point x="375" y="24" type="line" smooth="yes"/>
			<point x="376" y="14"/>
			<point x="379" y="0"/>
			<point x="401" y="0" type="curve"/>
			<point x="419" y="0"/>
			<point x="425" y="11"/>
			<point x="424" y="26" type="curve" smooth="yes"/>
		</contour>
	</outline>
</glyph>
<glyph name="B" format="2">
	<advance width="463"/>
	<unicode hex="0042"/>
	<outline>
		<contour>
			<point x="110" y="300" type="line"/>
			<point x="413" y="300"/>
			<point x="466" y="367"/>
			<point x="485" y="475" type="curve" smooth="yes"/>
			<point x="506" y="593"/>
			<point x="378" y="650"/>
			<point x="153" y="650" type="curve"/>
			<point x="144" y="605" type="line"/>
			<point x="330" y="605"/>
			<point x="451" y="565"/>
			<point x="435" y="477" type="curve" smooth="yes"/>
			<point x="422" y="405"/>
			<point x="385" y="350"/>
			<point x="118" y="350" type="curve"/>
		</contour>
		<contour>
			<point x="39" y="0" type="line"/>
			<point x="330" y="0"/>
			<point x="407" y="31"/>
			<point x="427" y="144" type="curve" smooth="yes"/>
			<point x="449" y="270"/>
			<point x="324" y="350"/>
			<point x="114" y="350" type="curve"/>
			<point x="107" y="300" type="line"/>
			<point x="297" y="300"/>
			<point x="393" y="239"/>
			<point x="378" y="151" type="curve" smooth="yes"/>
			<point x="363" y="66"/>
			<point x="256" y="45"/>
			<point x="46" y="45" type="curve"/>
		</contour>
		<contour>
			<point x="174" y="619" type="line" smooth="yes"/>
			<point x="178" y="641"/>
			<point x="172" y="650"/>
			<point x="153" y="650" type="curve" smooth="yes"/>
			<point x="136" y="650"/>
			<point x="128" y="643"/>
			<point x="124" y="623" type="curve" smooth="yes"/>
			<point x="20" y="31" type="line" smooth="yes"/>
			<point x="17" y="14"/>
			<point x="27" y="0"/>
			<point x="44" y="0" type="curve" smooth="yes"/>
			<point x="58" y="0"/>
			<point x="66" y="9"/>
			<point x="70" y="29" type="curve" smooth="yes"/>
		</contour>
	</outline>
</glyph>
<glyph name="C" format="2">
	<advance width="563"/>
	<unicode hex="0043"/>
	<outline>
		<contour>
			<point x="219" y="-4" type="curve" smooth="yes"/>
			<point x="299" y="-4"/>
			<point x="375" y="46"/>
			<point x="457" y="169" type="curve" smooth="yes"/>
			<point x="478" y="200"/>
			<point x="479" y="206"/>
			<point x="479" y="212" type="curve" smooth="yes"/>
			<point x="479" y="224"/>
			<point x="469" y="232"/>
			<point x="457" y="232" type="curve" smooth="yes"/>
			<point x="441" y="232"/>
			<point x="433" y="223"/>
			<point x="416" y="198" type="curve" smooth="yes"/>
			<point x="338" y="87"/>
			<point x="280" y="46"/>
			<point x="218" y="46" type="curve" smooth="yes"/>
			<point x="155" y="46"/>
			<point x="141" y="99"/>
			<point x="141" y="137" type="curve" smooth="yes"/>
			<point x="141" y="210"/>
			<point x="161" y="310"/>
			<point x="168" y="349" type="curve" smooth="yes"/>
			<point x="191" y="468"/>
			<point x="227" y="600"/>
			<point x="464" y="600" type="curve" smooth="yes"/>
			<point x="527" y="600"/>
			<point x="533" y="601"/>
			<point x="543" y="607" type="curve" smooth="yes"/>
			<point x="554" y="613"/>
			<point x="556" y="635"/>
			<point x="545" y="642" type="curve" smooth="yes"/>
			<point x="536" y="648"/>
			<point x="527" y="650"/>
			<point x="465" y="650" type="curve" smooth="yes"/>
			<point x="192" y="650"/>
			<point x="143" y="498"/>
			<point x="115" y="338" type="curve" smooth="yes"/>
			<point x="111" y="318"/>
			<point x="91" y="203"/>
			<point x="91" y="138" type="curve" smooth="yes"/>
			<point x="91" y="70"/>
			<point x="121" y="-4"/>
		</contour>
	</outline>
</glyph>
<glyph name="D" format="2">
	<advance width="463"/>
	<unicode hex="0044"/>
	<outline>
		<contour>
			<point x="43" y="0" type="line"/>
			<point x="106" y="0" type="line" smooth="yes"/>
			<point x="298" y="0"/>
			<point x="424" y="128"/>
			<point x="463" y="351" type="curve" smooth="yes"/>
			<point x="493" y="521"/>
			<point x="378" y="650"/>
			<point x="189" y="650" type="curve" smooth="yes"/>
			<point x="153" y="650" type="line"/>
			<point x="148" y="600" type="line"/>
			<point x="193" y="600" type="line" smooth="yes"/>
			<point x="352" y="600"/>
			<point x="437" y="489"/>
			<point x="413" y="350" type="curve" smooth="yes"/>
			<point x="379" y="155"/>
			<point x="268" y="50"/>
			<point x="106" y="50" type="curve" smooth="yes"/>
			<point x="53" y="50" type="line"/>
		</contour>
		<contour>
			<point x="174" y="619" type="line" smooth="yes"/>
			<point x="177" y="637"/>
			<point x="175" y="650"/>
			<point x="154" y="650" type="curve" smooth="yes"/>
			<point x="132" y="650"/>
			<point x="127" y="639"/>
			<point x="124" y="623" type="curve" smooth="yes"/>
			<point x="19" y="27" type="line" smooth="yes"/>
			<point x="16" y="12"/>
			<point x="24" y="0"/>
			<point x="42" y="0" type="curve" smooth="yes"/>
			<point x="64" y="0"/>
			<point x="68" y="15"/>
			<point x="70" y="25" type="curve" smooth="yes"/>
		</contour>
	</outline>
</glyph>
<glyph name="E" format="2">
	<advance width="567"/>
	<unicode hex="0045"/>
	<outline>
		<contour>
			<point x="219" y="619" type="line"/>
			<point x="222" y="637"/>
			<point x="220" y="650"/>
			<point x="199" y="650" type="curve" smooth="yes"/>
			<point x="177" y="650"/>
			<point x="172" y="639"/>
			<point x="169" y="623" type="curve"/>
			<point x="64" y="27" type="line"/>
			<point x="61" y="12"/>
			<point x="69" y="0"/>
			<point x="87" y="0" type="curve" smooth="yes"/>
			<point x="109" y="0"/>
			<point x="113" y="15"/>
			<point x="115" y="25" type="curve"/>
		</contour>
		<contour>
			<point x="88" y="0" type="line"/>
			<point x="422" y="0" type="line" smooth="yes"/>
			<point x="442" y="0"/>
			<point x="448" y="14"/>
			<point x="448" y="26" type="curve" smooth="yes"/>
			<point x="448" y="38"/>
			<point x="442" y="50"/>
			<point x="422" y="50" type="curve" smooth="yes"/>
			<point x="96" y="50" type="line"/>
		</contour>
		<contour>
			<point x="136" y="304" type="line"/>
			<point x="448" y="304" type="line" smooth="yes"/>
			<point x="468" y="304"/>
			<point x="474" y="315"/>
			<point x="474" y="327" type="curve" smooth="yes"/>
			<point x="474" y="339"/>
			<point x="468" y="350"/>
			<point x="448" y="350" type="curve" smooth="yes"/>
			<point x="144" y="350" type="line"/>
		</contour>
		<contour>
			<point x="194" y="600" type="line"/>
			<point x="530" y="600" type="line" smooth="yes"/>
			<point x="550" y="600"/>
			<point x="556" y="613"/>
			<point x="556" y="625" type="curve" smooth="yes"/>
			<point x="556" y="637"/>
			<point x="550" y="650"/>
			<point x="530" y="650" type="curve" smooth="yes"/>
			<point x="203" y="650" type="line"/>
		</contour>
	</outline>
</glyph>
<glyph name="F" format="2">
	<advance width="477"/>
	<unicode hex="0046"/>
	<outline>
		<contour>
			<point x="174" y="619" type="line" smooth="yes"/>
			<point x="177" y="637"/>
			<point x="175" y="650"/>
			<point x="154" y="650" type="curve" smooth="yes"/>
			<point x="132" y="650"/>
			<point x="127" y="639"/>
			<point x="124" y="623" type="curve" smooth="yes"/>
			<point x="19" y="27" type="line" smooth="yes"/>
			<point x="16" y="12"/>
			<point x="24" y="0"/>
			<point x="42" y="0" type="curve" smooth="yes"/>
			<point x="64" y="0"/>
			<point x="68" y="15"/>
			<point x="70" y="25" type="curve" smooth="yes"/>
		</contour>
		<contour>
			<point x="99" y="305" type="line"/>
			<point x="402" y="305" type="line" smooth="yes"/>
			<point x="422" y="305"/>
			<point x="428" y="315"/>
			<point x="428" y="327" type="curve" smooth="yes"/>
			<point x="428" y="339"/>
			<point x="422" y="350"/>
			<point x="402" y="350" type="curve" smooth="yes"/>
			<point x="106" y="350" type="line"/>
		</contour>
		<contour>
			<point x="148" y="600" type="line"/>
			<point x="485" y="600" type="line" smooth="yes"/>
			<point x="505" y="600"/>
			<point x="511" y="613"/>
			<point x="511" y="625" type="curve" smooth="yes"/>
			<point x="511" y="637"/>
			<point x="505" y="650"/>
			<point x="485" y="650" type="curve" smooth="yes"/>
			<point x="155" y="650" type="line"/>
		</contour>
	</outline>
</glyph>
<glyph name="G" format="2">
	<advance width="515"/>
	<unicode hex="0047"/>
	<outline>
		<contour>
			<point x="458" y="350" type="line"/>
			<point x="434" y="350"/>
			<point x="431" y="343"/>
			<point x="373" y="255" type="curve" smooth="yes"/>
			<point x="336" y="199"/>
			<point x="233" y="42"/>
			<point x="164" y="42" type="curve" smooth="yes"/>
			<point x="128" y="42"/>
			<point x="119" y="89"/>
			<point x="119" y="135" type="curve" smooth="yes"/>
			<point x="119" y="200"/>
			<point x="137" y="310"/>
			<point x="148" y="364" type="curve" smooth="yes"/>
			<point x="169" y="468"/>
			<point x="212" y="604"/>
			<point x="449" y="604" type="curve" smooth="yes"/>
			<point x="505" y="604" type="line" smooth="yes"/>
			<point x="520" y="604"/>
			<point x="530" y="614"/>
			<point x="530" y="627" type="curve" smooth="yes"/>
			<point x="530" y="639"/>
			<point x="521" y="650"/>
			<point x="509" y="650" type="curve" smooth="yes"/>
			<point x="450" y="650" type="line" smooth="yes"/>
			<point x="177" y="650"/>
			<point x="121" y="498"/>
			<point x="93" y="338" type="curve" smooth="yes"/>
			<point x="89" y="318"/>
			<point x="69" y="203"/>
			<point x="69" y="140" type="curve" smooth="yes"/>
			<point x="69" y="70"/>
			<point x="94" y="-4"/>
			<point x="161" y="-4" type="curve" smooth="yes"/>
			<point x="255" y="-4"/>
			<point x="354" y="134"/>
			<point x="446" y="275" type="curve"/>
		</contour>
		<contour>
			<point x="477" y="323" type="line" smooth="yes"/>
			<point x="480" y="340"/>
			<point x="476" y="350"/>
			<point x="459" y="350" type="curve"/>
			<point x="439" y="350"/>
			<point x="429" y="342"/>
			<point x="426" y="323" type="curve" smooth="yes"/>
			<point x="374" y="27" type="line" smooth="yes"/>
			<point x="372" y="15"/>
			<point x="375" y="1"/>
			<point x="395" y="0" type="curve" smooth="yes"/>
			<point x="418" y="-1"/>
			<point x="423" y="16"/>
			<point x="425" y="27" type="curve" smooth="yes"/>
		</contour>
	</outline>
</glyph>
<glyph name="H" format="2">
	<advance width="517"/>
	<unicode hex="0048"/>
	<outline>
		<contour>
			<point x="195" y="619" type="line" smooth="yes"/>
			<point x="198" y="637"/>
			<point x="192" y="650"/>
			<point x="175" y="650" type="curve" smooth="yes"/>
			<point x="156" y="650"/>
			<point x="148" y="639"/>
			<point x="145" y="623" type="curve" smooth="yes"/>
			<point x="40" y="27" type="line" smooth="yes"/>
			<point x="37" y="12"/>
			<point x="45" y="0"/>
			<point x="63" y="0" type="curve" smooth="yes"/>
			<point x="85" y="0"/>
			<point x="89" y="15"/>
			<point x="91" y="25" type="curve" smooth="yes"/>
		</contour>
		<contour>
			<point x="131" y="304" type="line"/>
			<point x="433" y="304" type="line"/>
			<point x="441" y="350" type="line"/>
			<point x="139" y="350" type="line"/>
		</contour>
		<contour>
			<point x="531" y="621" type="line" smooth="yes"/>
			<point x="534" y="638"/>
			<point x="528" y="650"/>
			<point x="508" y="650" type="curve" smooth="yes"/>
			<point x="490" y="650"/>
			<point x="483" y="638"/>
			<point x="481" y="628" type="curve" smooth="yes"/>
			<point x="376" y="27" type="line" smooth="yes"/>
			<point x="374" y="15"/>
			<point x="376" y="0"/>
			<point x="399" y="0" type="curve" smooth="yes"/>
			<point x="418" y="0"/>
			<point x="424" y="13"/>
			<point x="426" y="22" type="curve" smooth="yes"/>
		</contour>
	</outline>
</glyph>
<glyph name="I" format="2">
	<advance width="274"/>
	<unicode hex="0049"/>
	<outline>
		<contour>
			<point x="87" y="25" type="line"/>
			<point x="138" y="25" type="line"/>
			<point x="242" y="619" type="line"/>
			<point x="191" y="620" type="line"/>
		</contour>
		<contour>
			<point x="155" y="0" type="line" smooth="yes"/>
			<point x="175" y="0"/>
			<point x="181" y="11"/>
			<point x="181" y="23" type="curve" smooth="yes"/>
			<point x="181" y="35"/>
			<point x="175" y="46"/>
			<point x="155" y="46" type="curve" smooth="yes"/>
			<point x="66" y="46" type="line" smooth="yes"/>
			<point x="46" y="46"/>
			<point x="40" y="35"/>
			<point x="40" y="23" type="curve" smooth="yes"/>
			<point x="40" y="11"/>
			<point x="46" y="0"/>
			<point x="66" y="0" type="curve" smooth="yes"/>
		</contour>
		<contour>
			<point x="263" y="604" type="line" smooth="yes"/>
			<point x="283" y="604"/>
			<point x="289" y="616"/>
			<point x="289" y="628" type="curve" smooth="yes"/>
			<point x="289" y="640"/>
			<point x="283" y="650"/>
			<point x="263" y="650" type="curve" smooth="yes"/>
			<point x="174" y="650" type="line" smooth="yes"/>
			<point x="154" y="650"/>
			<point x="148" y="640"/>
			<point x="148" y="628" type="curve" smooth="yes"/>
			<point x="148" y="616"/>
			<point x="154" y="604"/>
			<point x="174" y="604" type="curve" smooth="yes"/>
		</contour>
	</outline>
</glyph>
<glyph name="J" format="2">
	<advance width="610"/>
	<unicode hex="004A"/>
	<outline>
		<contour>
			<point x="446" y="621" type="line"/>
			<point x="395" y="621" type="line"/>
			<point x="338" y="301" type="line" smooth="yes"/>
			<point x="326" y="232"/>
			<point x="317" y="161"/>
			<point x="288" y="113" type="curve" smooth="yes"/>
			<point x="270" y="82"/>
			<point x="244" y="59"/>
			<point x="203" y="54" type="curve" smooth="yes"/>
			<point x="176" y="51"/>
			<point x="83" y="46"/>
			<point x="59" y="46" type="curve" smooth="yes"/>
			<point x="47" y="46"/>
			<point x="34" y="38"/>
			<point x="34" y="24" type="curve" smooth="yes"/>
			<point x="34" y="9"/>
			<point x="47" y="0"/>
			<point x="59" y="0" type="curve" smooth="yes"/>
			<point x="90" y="0"/>
			<point x="180" y="5"/>
			<point x="199" y="7" type="curve" smooth="yes"/>
			<point x="269" y="16"/>
			<point x="306" y="46"/>
			<point x="331" y="86" type="curve" smooth="yes"/>
			<point x="365" y="140"/>
			<point x="373" y="211"/>
			<point x="388" y="296" type="curve" smooth="yes"/>
		</contour>
		<contour>
			<point x="573" y="600" type="line" smooth="yes"/>
			<point x="593" y="600"/>
			<point x="599" y="613"/>
			<point x="599" y="625" type="curve" smooth="yes"/>
			<point x="599" y="637"/>
			<point x="593" y="650"/>
			<point x="573" y="650" type="curve" smooth="yes"/>
			<point x="269" y="650" type="line" smooth="yes"/>
			<point x="249" y="650"/>
			<point x="243" y="637"/>
			<point x="243" y="625" type="curve" smooth="yes"/>
			<point x="243" y="613"/>
			<point x="249" y="600"/>
			<point x="269" y="600" type="curve" smooth="yes"/>
		</contour>
	</outline>
</glyph>
<glyph name="K" format="2">
	<advance width="467"/>
	<unicode hex="004B"/>
	<outline>
		<contour>
			<point x="203" y="343" type="line"/>
			<point x="514" y="599" type="line" smooth="yes"/>
			<point x="526" y="609"/>
			<point x="531" y="619"/>
			<point x="533" y="628" type="curve" smooth="yes"/>
			<point x="534" y="640"/>
			<point x="526" y="650"/>
			<point x="513" y="650" type="curve" smooth="yes"/>
			<point x="505" y="651"/>
			<point x="494" y="647"/>
			<point x="482" y="637" type="curve" smooth="yes"/>
			<point x="145" y="360" type="line"/>
			<point x="145" y="348" type="line"/>
		</contour>
		<contour>
			<point x="201" y="354" type="line"/>
			<point x="145" y="356" type="line"/>
			<point x="146" y="345" type="line"/>
			<point x="373" y="19" type="line" smooth="yes"/>
			<point x="380" y="9"/>
			<point x="389" y="0"/>
			<point x="402" y="0" type="curve" smooth="yes"/>
			<point x="412" y="0"/>
			<point x="422" y="6"/>
			<point x="425" y="17" type="curve" smooth="yes"/>
			<point x="427" y="24"/>
			<point x="425" y="32"/>
			<point x="418" y="42" type="curve" smooth="yes"/>
		</contour>
		<contour>
			<point x="196" y="619" type="line" smooth="yes"/>
			<point x="199" y="637"/>
			<point x="195" y="650"/>
			<point x="176" y="650" type="curve" smooth="yes"/>
			<point x="156" y="650"/>
			<point x="149" y="639"/>
			<point x="146" y="623" type="curve" smooth="yes"/>
			<point x="41" y="32" type="line" smooth="yes"/>
			<point x="38" y="17"/>
			<point x="46" y="0"/>
			<point x="64" y="0" type="curve" smooth="yes"/>
			<point x="85" y="0"/>
			<point x="90" y="18"/>
			<point x="92" y="31" type="curve" smooth="yes"/>
		</contour>
	</outline>
</glyph>
<glyph name="L" format="2">
  <advance width="396"/>
  <unicode hex="004C"/>
  <outline>
    <contour>
      <point x="168" y="619" type="line" smooth="yes"/>
      <point x="171" y="637"/>
      <point x="168" y="650"/>
      <point x="148" y="650" type="curve" smooth="yes"/>
      <point x="128" y="650"/>
      <point x="121" y="639"/>
      <point x="118" y="623" type="curve" smooth="yes"/>
      <point x="13" y="27" type="line" smooth="yes"/>
      <point x="10" y="12"/>
      <point x="18" y="0"/>
      <point x="36" y="0" type="curve" smooth="yes"/>
      <point x="58" y="0"/>
      <point x="61" y="15"/>
      <point x="63" y="25" type="curve" smooth="yes"/>
    </contour>
    <contour>
      <point x="41" y="0" type="line"/>
      <point x="333" y="0" type="line" smooth="yes"/>
      <point x="351" y="0"/>
      <point x="359" y="14"/>
      <point x="359" y="26" type="curve" smooth="yes"/>
      <point x="359" y="38"/>
      <point x="351" y="50"/>
      <point x="333" y="50" type="curve" smooth="yes"/>
      <point x="41" y="50" type="line"/>
    </contour>
  </outline>
</glyph>
<glyph name="M" format="2">
	<advance width="879"/>
	<unicode hex="004D"/>
	<outline>
		<contour>
			<point x="384" y="593" type="line"/>
			<point x="375" y="650" type="line"/>
			<point x="357" y="650"/>
			<point x="351" y="639"/>
			<point x="344" y="625" type="curve" smooth="yes"/>
			<point x="38" y="38" type="line" smooth="yes"/>
			<point x="32" y="26"/>
			<point x="32" y="16"/>
			<point x="36" y="10" type="curve" smooth="yes"/>
			<point x="40" y="4"/>
			<point x="47" y="0"/>
			<point x="55" y="0" type="curve" smooth="yes"/>
			<point x="66" y="0"/>
			<point x="78" y="7"/>
			<point x="88" y="25" type="curve" smooth="yes"/>
		</contour>
		<contour>
			<point x="446" y="61" type="line"/>
			<point x="400" y="631" type="line" smooth="yes"/>
			<point x="399" y="639"/>
			<point x="392" y="650"/>
			<point x="374" y="650" type="curve"/>
			<point x="354" y="584" type="line"/>
			<point x="399" y="24" type="line" smooth="yes"/>
			<point x="400" y="14"/>
			<point x="404" y="0"/>
			<point x="428" y="0" type="curve"/>
		</contour>
		<contour>
			<point x="426" y="0" type="line"/>
			<point x="446" y="0"/>
			<point x="454" y="17"/>
			<point x="458" y="24" type="curve" smooth="yes"/>
			<point x="751" y="586" type="line"/>
			<point x="741" y="650" type="line"/>
			<point x="726" y="650"/>
			<point x="720" y="635"/>
			<point x="714" y="624" type="curve" smooth="yes"/>
			<point x="421" y="61" type="line"/>
		</contour>
		<contour>
			<point x="773" y="622" type="line" smooth="yes"/>
			<point x="772" y="638"/>
			<point x="769" y="650"/>
			<point x="740" y="650" type="curve"/>
			<point x="724" y="608" type="line"/>
			<point x="772" y="24" type="line" smooth="yes"/>
			<point x="773" y="14"/>
			<point x="778" y="0"/>
			<point x="799" y="0" type="curve"/>
			<point x="815" y="0"/>
			<point x="823" y="11"/>
			<point x="822" y="26" type="curve" smooth="yes"/>
		</contour>
	</outline>
</glyph>
<glyph name="N" format="2">
	<advance width="517"/>
	<unicode hex="004E"/>
	<outline>
		<contour>
			<point x="408" y="67" type="line"/>
			<point x="205" y="630" type="line" smooth="yes"/>
			<point x="202" y="639"/>
			<point x="192" y="650"/>
			<point x="174" y="650" type="curve"/>
			<point x="167" y="589" type="line"/>
			<point x="375" y="18" type="line" smooth="yes"/>
			<point x="379" y="8"/>
			<point x="388" y="0"/>
			<point x="402" y="0" type="curve"/>
		</contour>
		<contour>
			<point x="194" y="612" type="line"/>
			<point x="175" y="650" type="line"/>
			<point x="153" y="650"/>
			<point x="148" y="639"/>
			<point x="145" y="623" type="curve" smooth="yes"/>
			<point x="40" y="27" type="line" smooth="yes"/>
			<point x="37" y="12"/>
			<point x="45" y="0"/>
			<point x="63" y="0" type="curve" smooth="yes"/>
			<point x="85" y="0"/>
			<point x="89" y="16"/>
			<point x="91" y="28" type="curve" smooth="yes"/>
		</contour>
		<contour>
			<point x="401" y="0" type="line"/>
			<point x="423" y="0"/>
			<point x="425" y="15"/>
			<point x="427" y="25" type="curve" smooth="yes"/>
			<point x="531" y="619" type="line" smooth="yes"/>
			<point x="534" y="637"/>
			<point x="531" y="650"/>
			<point x="512" y="650" type="curve" smooth="yes"/>
			<point x="492" y="650"/>
			<point x="485" y="639"/>
			<point x="482" y="623" type="curve" smooth="yes"/>
			<point x="380" y="48" type="line"/>
		</contour>
	</outline>
</glyph>
<glyph name="O" format="2">
  <advance width="497"/>
  <unicode hex="004F"/>
  <outline>
    <contour>
      <point x="163.0" y="-11" type="curve" smooth="yes"/>
      <point x="321" y="-11"/>
      <point x="458.0" y="245"/>
      <point x="475.0" y="439" type="curve" smooth="yes"/>
      <point x="485" y="554"/>
      <point x="440" y="658"/>
      <point x="298.0" y="656" type="curve" smooth="yes"/>
      <point x="178.0" y="654"/>
      <point x="105" y="563"/>
      <point x="68.0" y="410" type="curve" smooth="yes"/>
      <point x="17" y="199"/>
      <point x="51" y="-11"/>
    </contour>
    <contour>
      <point x="167.0" y="35" type="curve" smooth="yes"/>
      <point x="97" y="35"/>
      <point x="78.0" y="222"/>
      <point x="116.0" y="391" type="curve" smooth="yes"/>
      <point x="147" y="530"/>
      <point x="198" y="606"/>
      <point x="295.0" y="608" type="curve" smooth="yes"/>
      <point x="408" y="610"/>
      <point x="433" y="533"/>
      <point x="425.0" y="433" type="curve" smooth="yes"/>
      <point x="412" y="268"/>
      <point x="278" y="35"/>
    </contour>
  </outline>
</glyph>
<glyph name="P" format="2">
	<advance width="477"/>
	<unicode hex="0050"/>
	<outline>
		<contour>
			<point x="157" y="304" type="line"/>
			<point x="347" y="304"/>
			<point x="508" y="321"/>
			<point x="530" y="476" type="curve" smooth="yes"/>
			<point x="547" y="597"/>
			<point x="417" y="650"/>
			<point x="203" y="650" type="curve"/>
			<point x="206" y="604" type="line"/>
			<point x="410" y="604"/>
			<point x="490" y="557"/>
			<point x="480" y="481" type="curve" smooth="yes"/>
			<point x="465" y="367"/>
			<point x="318" y="350"/>
			<point x="164" y="350" type="curve"/>
		</contour>
		<contour>
			<point x="219" y="619" type="line" smooth="yes"/>
			<point x="222" y="637"/>
			<point x="220" y="650"/>
			<point x="199" y="650" type="curve" smooth="yes"/>
			<point x="177" y="650"/>
			<point x="172" y="639"/>
			<point x="169" y="623" type="curve" smooth="yes"/>
			<point x="64" y="27" type="line" smooth="yes"/>
			<point x="61" y="12"/>
			<point x="69" y="-4"/>
			<point x="87" y="-4" type="curve" smooth="yes"/>
			<point x="109" y="-4"/>
			<point x="112" y="15"/>
			<point x="114" y="25" type="curve" smooth="yes"/>
		</contour>
	</outline>
</glyph>
<glyph name="Q" format="2">
	<advance width="535"/>
	<unicode hex="0051"/>
	<outline>
		<contour>
			<point x="280" y="151" type="line" smooth="yes"/>
			<point x="270" y="165"/>
			<point x="252" y="172"/>
			<point x="238" y="160" type="curve" smooth="yes"/>
			<point x="226" y="151"/>
			<point x="228" y="139"/>
			<point x="239" y="123" type="curve" smooth="yes"/>
			<point x="343" y="-29" type="line" smooth="yes"/>
			<point x="353" y="-44"/>
			<point x="369" y="-52"/>
			<point x="382" y="-45" type="curve" smooth="yes"/>
			<point x="396" y="-37"/>
			<point x="396" y="-18"/>
			<point x="388" y="-6" type="curve" smooth="yes"/>
		</contour>
		<contour>
			<point x="200" y="-4" type="curve" smooth="yes"/>
			<point x="345" y="-4"/>
			<point x="495" y="256"/>
			<point x="519" y="438" type="curve" smooth="yes"/>
			<point x="534" y="551"/>
			<point x="503" y="650"/>
			<point x="361" y="650" type="curve" smooth="yes"/>
			<point x="238" y="650"/>
			<point x="173" y="557"/>
			<point x="131" y="409" type="curve" smooth="yes"/>
			<point x="120" y="369"/>
			<point x="111" y="322"/>
			<point x="107" y="278" type="curve" smooth="yes"/>
			<point x="95" y="143"/>
			<point x="107" y="-4"/>
		</contour>
		<contour>
			<point x="199" y="42" type="curve" smooth="yes"/>
			<point x="146" y="42"/>
			<point x="149" y="178"/>
			<point x="156" y="268" type="curve" smooth="yes"/>
			<point x="160" y="310"/>
			<point x="170" y="355"/>
			<point x="179" y="388" type="curve" smooth="yes"/>
			<point x="217" y="526"/>
			<point x="259" y="604"/>
			<point x="356" y="604" type="curve" smooth="yes"/>
			<point x="489" y="604"/>
			<point x="478" y="495"/>
			<point x="469" y="432" type="curve" smooth="yes"/>
			<point x="447" y="270"/>
			<point x="288" y="42"/>
		</contour>
	</outline>
</glyph>
<glyph name="R" format="2">
	<advance width="567"/>
	<unicode hex="0052"/>
	<outline>
		<contour>
			<point x="150" y="304" type="line"/>
			<point x="340" y="304"/>
			<point x="508" y="321"/>
			<point x="530" y="476" type="curve" smooth="yes"/>
			<point x="547" y="597"/>
			<point x="420" y="650"/>
			<point x="203" y="650" type="curve"/>
			<point x="203" y="604" type="line"/>
			<point x="396" y="604"/>
			<point x="491" y="560"/>
			<point x="480" y="481" type="curve" smooth="yes"/>
			<point x="464" y="368"/>
			<point x="316" y="350"/>
			<point x="157" y="350" type="curve"/>
		</contour>
		<contour>
			<point x="214" y="321" type="line"/>
			<point x="143" y="328" type="line"/>
			<point x="400" y="18" type="line" smooth="yes"/>
			<point x="410" y="5"/>
			<point x="417" y="0"/>
			<point x="425" y="0" type="curve" smooth="yes"/>
			<point x="435" y="0"/>
			<point x="445" y="7"/>
			<point x="448" y="15" type="curve" smooth="yes"/>
			<point x="451" y="23"/>
			<point x="450" y="35"/>
			<point x="444" y="43" type="curve" smooth="yes"/>
		</contour>
		<contour>
			<point x="219" y="619" type="line" smooth="yes"/>
			<point x="222" y="637"/>
			<point x="220" y="650"/>
			<point x="199" y="650" type="curve" smooth="yes"/>
			<point x="177" y="650"/>
			<point x="172" y="639"/>
			<point x="169" y="623" type="curve" smooth="yes"/>
			<point x="65" y="33" type="line" smooth="yes"/>
			<point x="62" y="16"/>
			<point x="69" y="0"/>
			<point x="87" y="0" type="curve" smooth="yes"/>
			<point x="109" y="0"/>
			<point x="113" y="16"/>
			<point x="116" y="31" type="curve" smooth="yes"/>
		</contour>
	</outline>
</glyph>
<glyph name="S" format="2">
	<advance width="463"/>
	<unicode hex="0053"/>
	<outline>
		<contour>
			<point x="161" y="0" type="line" smooth="yes"/>
			<point x="259" y="0"/>
			<point x="428" y="50"/>
			<point x="428" y="184" type="curve" smooth="yes"/>
			<point x="428" y="269"/>
			<point x="363" y="318"/>
			<point x="345" y="330" type="curve" smooth="yes"/>
			<point x="218" y="419"/>
			<point x="153" y="452"/>
			<point x="153" y="497" type="curve" smooth="yes"/>
			<point x="153" y="555"/>
			<point x="261" y="600"/>
			<point x="338" y="600" type="curve" smooth="yes"/>
			<point x="488" y="600" type="line" smooth="yes"/>
			<point x="501" y="600"/>
			<point x="511" y="613"/>
			<point x="511" y="626" type="curve" smooth="yes"/>
			<point x="511" y="650"/>
			<point x="491" y="650"/>
			<point x="487" y="650" type="curve" smooth="yes"/>
			<point x="339" y="650" type="line" smooth="yes"/>
			<point x="210" y="650"/>
			<point x="102" y="576"/>
			<point x="102" y="493" type="curve" smooth="yes"/>
			<point x="102" y="422"/>
			<point x="180" y="385"/>
			<point x="304" y="296" type="curve" smooth="yes"/>
			<point x="330" y="278"/>
			<point x="378" y="241"/>
			<point x="378" y="183" type="curve" smooth="yes"/>
			<point x="378" y="83"/>
			<point x="226" y="50"/>
			<point x="161" y="50" type="curve" smooth="yes"/>
			<point x="41" y="50" type="line" smooth="yes"/>
			<point x="28" y="50"/>
			<point x="17" y="37"/>
			<point x="17" y="24" type="curve" smooth="yes"/>
			<point x="17" y="0"/>
			<point x="39" y="0"/>
			<point x="41" y="0" type="curve" smooth="yes"/>
		</contour>
	</outline>
</glyph>
<glyph name="T" format="2">
  <advance width="445"/>
  <unicode hex="0054"/>
  <outline>
    <contour>
      <point x="167" y="0" type="curve" smooth="yes"/>
      <point x="189" y="0"/>
      <point x="192" y="15"/>
      <point x="194" y="25" type="curve" smooth="yes"/>
      <point x="298" y="619" type="line"/>
      <point x="247" y="619" type="line"/>
      <point x="144" y="27" type="line" smooth="yes"/>
      <point x="141" y="12"/>
      <point x="149" y="0"/>
    </contour>
    <contour>
      <point x="37" y="625" type="curve" smooth="yes"/>
      <point x="37" y="613"/>
      <point x="43" y="600"/>
      <point x="63" y="600" type="curve" smooth="yes"/>
      <point x="487" y="600" type="line" smooth="yes"/>
      <point x="507" y="600"/>
      <point x="513" y="613"/>
      <point x="513" y="625" type="curve" smooth="yes"/>
      <point x="513" y="637"/>
      <point x="507" y="650"/>
      <point x="487" y="650" type="curve" smooth="yes"/>
      <point x="63" y="650" type="line" smooth="yes"/>
      <point x="43" y="650"/>
      <point x="37" y="637"/>
    </contour>
  </outline>
</glyph>
<glyph name="U" format="2">
	<advance width="517"/>
	<unicode hex="0055"/>
	<outline>
		<contour>
			<point x="470" y="381" type="line"/>
			<point x="497" y="520" type="line"/>
			<point x="469" y="520" type="line"/>
			<point x="466" y="509" type="line"/>
			<point x="444" y="415"/>
			<point x="401" y="350"/>
			<point x="383" y="320" type="curve" smooth="yes"/>
			<point x="320" y="217"/>
			<point x="220" y="42"/>
			<point x="142" y="42" type="curve" smooth="yes"/>
			<point x="95" y="42"/>
			<point x="105" y="116"/>
			<point x="117" y="180" type="curve" smooth="yes"/>
			<point x="197" y="622" type="line" smooth="yes"/>
			<point x="200" y="636"/>
			<point x="191" y="649"/>
			<point x="176" y="650" type="curve" smooth="yes"/>
			<point x="160" y="650"/>
			<point x="149" y="636"/>
			<point x="146" y="620" type="curve" smooth="yes"/>
			<point x="67" y="183" type="line" smooth="yes"/>
			<point x="43" y="52"/>
			<point x="75" y="-4"/>
			<point x="134" y="-4" type="curve" smooth="yes"/>
			<point x="249" y="-4"/>
			<point x="349" y="160"/>
			<point x="439" y="321" type="curve"/>
		</contour>
		<contour>
			<point x="532" y="624" type="line" smooth="yes"/>
			<point x="535" y="639"/>
			<point x="528" y="650"/>
			<point x="508" y="650" type="curve" smooth="yes"/>
			<point x="490" y="650"/>
			<point x="483" y="638"/>
			<point x="481" y="626" type="curve" smooth="yes"/>
			<point x="376" y="27" type="line" smooth="yes"/>
			<point x="373" y="8"/>
			<point x="385" y="-1"/>
			<point x="399" y="-1" type="curve" smooth="yes"/>
			<point x="411" y="-1"/>
			<point x="423" y="7"/>
			<point x="426" y="22" type="curve" smooth="yes"/>
		</contour>
	</outline>
</glyph>
<glyph name="V" format="2">
	<advance width="447"/>
	<unicode hex="0056"/>
	<outline>
		<contour>
			<point x="170" y="0" type="line"/>
			<point x="189" y="0"/>
			<point x="193" y="11"/>
			<point x="200" y="25" type="curve" smooth="yes"/>
			<point x="493" y="618" type="line" smooth="yes"/>
			<point x="503" y="638"/>
			<point x="491" y="650"/>
			<point x="476" y="650" type="curve" smooth="yes"/>
			<point x="457" y="650"/>
			<point x="450" y="642"/>
			<point x="441" y="625" type="curve" smooth="yes"/>
			<point x="151" y="39" type="line"/>
		</contour>
		<contour>
			<point x="192" y="37" type="line"/>
			<point x="160" y="626" type="line" smooth="yes"/>
			<point x="159" y="636"/>
			<point x="155" y="650"/>
			<point x="133" y="650" type="curve"/>
			<point x="115" y="650"/>
			<point x="109" y="639"/>
			<point x="110" y="624" type="curve" smooth="yes"/>
			<point x="143" y="28" type="line" smooth="yes"/>
			<point x="144" y="15"/>
			<point x="152" y="0"/>
			<point x="171" y="0" type="curve"/>
		</contour>
	</outline>
</glyph>
<glyph name="W" format="2">
	<advance width="789"/>
	<unicode hex="0057"/>
	<outline>
		<contour>
			<point x="515" y="0" type="line"/>
			<point x="533" y="0"/>
			<point x="538" y="11"/>
			<point x="545" y="25" type="curve" smooth="yes"/>
			<point x="837" y="618" type="line" smooth="yes"/>
			<point x="842" y="627"/>
			<point x="843" y="635"/>
			<point x="840" y="640" type="curve" smooth="yes"/>
			<point x="836" y="647"/>
			<point x="828" y="650"/>
			<point x="821" y="650" type="curve" smooth="yes"/>
			<point x="813" y="650"/>
			<point x="807" y="649"/>
			<point x="803" y="646" type="curve" smooth="yes"/>
			<point x="793" y="640"/>
			<point x="789" y="632"/>
			<point x="785" y="625" type="curve" smooth="yes"/>
			<point x="492" y="31" type="line"/>
		</contour>
		<contour>
			<point x="195" y="37" type="line"/>
			<point x="163" y="626" type="line" smooth="yes"/>
			<point x="162" y="636"/>
			<point x="158" y="650"/>
			<point x="136" y="650" type="curve"/>
			<point x="118" y="650"/>
			<point x="112" y="639"/>
			<point x="113" y="624" type="curve" smooth="yes"/>
			<point x="146" y="28" type="line" smooth="yes"/>
			<point x="147" y="12"/>
			<point x="158" y="0"/>
			<point x="179" y="0" type="curve"/>
		</contour>
		<contour>
			<point x="178" y="0" type="line"/>
			<point x="192" y="0"/>
			<point x="199" y="15"/>
			<point x="205" y="26" type="curve" smooth="yes"/>
			<point x="496" y="619" type="line"/>
			<point x="474" y="650" type="line"/>
			<point x="458" y="650"/>
			<point x="448" y="633"/>
			<point x="444" y="626" type="curve" smooth="yes"/>
			<point x="156" y="40" type="line"/>
		</contour>
		<contour>
			<point x="539" y="30" type="line"/>
			<point x="504" y="626" type="line" smooth="yes"/>
			<point x="503" y="636"/>
			<point x="498" y="650"/>
			<point x="473" y="650" type="curve"/>
			<point x="455" y="617" type="line"/>
			<point x="489" y="19" type="line" smooth="yes"/>
			<point x="490" y="6"/>
			<point x="498" y="0"/>
			<point x="516" y="0" type="curve"/>
		</contour>
	</outline>
</glyph>
<glyph name="X" format="2">
	<advance width="487"/>
	<unicode hex="0058"/>
	<outline>
		<contour>
			<point x="522" y="609" type="line" smooth="yes"/>
			<point x="533" y="624"/>
			<point x="531" y="638"/>
			<point x="522" y="645" type="curve" smooth="yes"/>
			<point x="512" y="653"/>
			<point x="493" y="652"/>
			<point x="482" y="637" type="curve" smooth="yes"/>
			<point x="45" y="38" type="line" smooth="yes"/>
			<point x="36" y="26"/>
			<point x="38" y="13"/>
			<point x="47" y="6" type="curve" smooth="yes"/>
			<point x="58" y="-3"/>
			<point x="77" y="-4"/>
			<point x="88" y="11" type="curve" smooth="yes"/>
		</contour>
		<contour>
			<point x="199" y="631" type="line" smooth="yes"/>
			<point x="192" y="650"/>
			<point x="173" y="654"/>
			<point x="161" y="649" type="curve" smooth="yes"/>
			<point x="149" y="645"/>
			<point x="144" y="631"/>
			<point x="151" y="613" type="curve" smooth="yes"/>
			<point x="373" y="19" type="line" smooth="yes"/>
			<point x="380" y="0"/>
			<point x="400" y="-3"/>
			<point x="413" y="3" type="curve" smooth="yes"/>
			<point x="423" y="8"/>
			<point x="429" y="20"/>
			<point x="423" y="35" type="curve" smooth="yes"/>
		</contour>
	</outline>
</glyph>
<glyph name="Y" format="2">
	<advance width="447"/>
	<unicode hex="0059"/>
	<outline>
		<contour>
			<point x="285" y="291" type="line"/>
			<point x="519" y="609" type="line" smooth="yes"/>
			<point x="524" y="616"/>
			<point x="527" y="623"/>
			<point x="527" y="629" type="curve" smooth="yes"/>
			<point x="527" y="635"/>
			<point x="524" y="641"/>
			<point x="518" y="645" type="curve" smooth="yes"/>
			<point x="511" y="650"/>
			<point x="504" y="651"/>
			<point x="498" y="650" type="curve" smooth="yes"/>
			<point x="491" y="648"/>
			<point x="483" y="643"/>
			<point x="478" y="637" type="curve" smooth="yes"/>
			<point x="254" y="333" type="line"/>
		</contour>
		<contour>
			<point x="313" y="350" type="line"/>
			<point x="262" y="350" type="line"/>
			<point x="205" y="27" type="line" smooth="yes"/>
			<point x="202" y="12"/>
			<point x="210" y="0"/>
			<point x="228" y="0" type="curve" smooth="yes"/>
			<point x="250" y="0"/>
			<point x="254" y="15"/>
			<point x="256" y="25" type="curve" smooth="yes"/>
		</contour>
		<contour>
			<point x="261" y="307" type="line"/>
			<point x="298" y="349" type="line"/>
			<point x="192" y="630" type="line" smooth="yes"/>
			<point x="189" y="638"/>
			<point x="182" y="645"/>
			<point x="175" y="648" type="curve" smooth="yes"/>
			<point x="170" y="651"/>
			<point x="163" y="651"/>
			<point x="155" y="648" type="curve" smooth="yes"/>
			<point x="147" y="645"/>
			<point x="142" y="640"/>
			<point x="141" y="634" type="curve" smooth="yes"/>
			<point x="140" y="628"/>
			<point x="142" y="621"/>
			<point x="145" y="613" type="curve" smooth="yes"/>
		</contour>
	</outline>
</glyph>
<glyph name="Z" format="2">
	<advance width="566"/>
	<unicode hex="005A"/>
	<outline>
		<contour>
			<point x="548" y="608" type="line" smooth="yes"/>
			<point x="556" y="619"/>
			<point x="558" y="630"/>
			<point x="554" y="638" type="curve" smooth="yes"/>
			<point x="549" y="645"/>
			<point x="538" y="650"/>
			<point x="527" y="650" type="curve" smooth="yes"/>
			<point x="520" y="650"/>
			<point x="513" y="644"/>
			<point x="508" y="638" type="curve" smooth="yes"/>
			<point x="70" y="39" type="line" smooth="yes"/>
			<point x="65" y="32"/>
			<point x="61" y="22"/>
			<point x="66" y="13" type="curve" smooth="yes"/>
			<point x="70" y="6"/>
			<point x="80" y="0"/>
			<point x="97" y="0" type="curve" smooth="yes"/>
			<point x="103" y="0"/>
			<point x="109" y="7"/>
			<point x="112" y="11" type="curve" smooth="yes"/>
		</contour>
		<contour>
			<point x="90" y="0" type="line"/>
			<point x="423" y="0" type="line" smooth="yes"/>
			<point x="443" y="0"/>
			<point x="449" y="13"/>
			<point x="449" y="25" type="curve" smooth="yes"/>
			<point x="449" y="37"/>
			<point x="443" y="50"/>
			<point x="423" y="50" type="curve" smooth="yes"/>
			<point x="90" y="50" type="line"/>
		</contour>
		<contour>
			<point x="531" y="600" type="line"/>
			<point x="531" y="650" type="line"/>
			<point x="196" y="650" type="line" smooth="yes"/>
			<point x="176" y="650"/>
			<point x="170" y="637"/>
			<point x="170" y="625" type="curve" smooth="yes"/>
			<point x="170" y="613"/>
			<point x="176" y="600"/>
			<point x="196" y="600" type="curve" smooth="yes"/>
		</contour>
	</outline>
</glyph>
<glyph name="bracketleft" format="2">
	<advance width="284"/>
	<unicode hex="005B"/>
	<outline>
		<contour>
			<point x="174" y="618" type="line" smooth="yes"/>
			<point x="177" y="636"/>
			<point x="177" y="650"/>
			<point x="156" y="650" type="curve" smooth="yes"/>
			<point x="135" y="650"/>
			<point x="127" y="639"/>
			<point x="124" y="623" type="curve" smooth="yes"/>
			<point x="-34" y="-273" type="line" smooth="yes"/>
			<point x="-37" y="-288"/>
			<point x="-29" y="-300"/>
			<point x="-9" y="-300" type="curve" smooth="yes"/>
			<point x="13" y="-300"/>
			<point x="15" y="-283"/>
			<point x="17" y="-273" type="curve" smooth="yes"/>
		</contour>
		<contour>
			<point x="-12" y="-300" type="line"/>
			<point x="133" y="-300" type="line" smooth="yes"/>
			<point x="150" y="-300"/>
			<point x="159" y="-288"/>
			<point x="159" y="-277" type="curve" smooth="yes"/>
			<point x="159" y="-266"/>
			<point x="151" y="-255"/>
			<point x="133" y="-255" type="curve" smooth="yes"/>
			<point x="-6" y="-255" type="line"/>
		</contour>
		<contour>
			<point x="149" y="605" type="line"/>
			<point x="292" y="605" type="line" smooth="yes"/>
			<point x="309" y="605"/>
			<point x="318" y="616"/>
			<point x="319" y="627" type="curve" smooth="yes"/>
			<point x="320" y="638"/>
			<point x="311" y="650"/>
			<point x="292" y="650" type="curve" smooth="yes"/>
			<point x="154" y="650" type="line"/>
		</contour>
	</outline>
</glyph>
<glyph name="backslash" format="2">
  <advance width="385"/>
  <unicode hex="005C"/>
  <outline>
    <contour>
      <point x="106" y="627" type="line" smooth="yes"/>
      <point x="99" y="644"/>
      <point x="88" y="650"/>
      <point x="77" y="650" type="curve" smooth="yes"/>
      <point x="62" y="650"/>
      <point x="47" y="637"/>
      <point x="56" y="616" type="curve" smooth="yes"/>
      <point x="313" y="20" type="line" smooth="yes"/>
      <point x="319" y="5"/>
      <point x="331" y="0"/>
      <point x="342" y="0" type="curve" smooth="yes"/>
      <point x="357" y="0"/>
      <point x="371" y="13"/>
      <point x="363" y="31" type="curve" smooth="yes"/>
    </contour>
  </outline>
</glyph>
<glyph name="bracketright" format="2">
	<advance width="284"/>
	<unicode hex="005D"/>
	<outline>
		<contour>
			<point x="318" y="623" type="line" smooth="yes"/>
			<point x="321" y="638"/>
			<point x="313" y="650"/>
			<point x="293" y="650" type="curve" smooth="yes"/>
			<point x="271" y="650"/>
			<point x="269" y="634"/>
			<point x="267" y="624" type="curve" smooth="yes"/>
			<point x="110" y="-268" type="line" smooth="yes"/>
			<point x="107" y="-286"/>
			<point x="107" y="-300"/>
			<point x="128" y="-300" type="curve"/>
			<point x="150" y="-300"/>
			<point x="157" y="-289"/>
			<point x="160" y="-273" type="curve" smooth="yes"/>
		</contour>
		<contour>
			<point x="131" y="-300" type="line"/>
			<point x="138" y="-255" type="line"/>
			<point x="-7" y="-255" type="line" smooth="yes"/>
			<point x="-24" y="-255"/>
			<point x="-34" y="-266"/>
			<point x="-34" y="-277" type="curve" smooth="yes"/>
			<point x="-34" y="-289"/>
			<point x="-26" y="-300"/>
			<point x="-7" y="-300" type="curve" smooth="yes"/>
		</contour>
		<contour>
			<point x="289" y="605" type="line"/>
			<point x="297" y="650" type="line"/>
			<point x="152" y="650" type="line" smooth="yes"/>
			<point x="134" y="650"/>
			<point x="125" y="638"/>
			<point x="125" y="627" type="curve" smooth="yes"/>
			<point x="125" y="616"/>
			<point x="134" y="605"/>
			<point x="152" y="605" type="curve" smooth="yes"/>
		</contour>
	</outline>
</glyph>
<glyph name="asciicircum" format="2">
	<advance width="371"/>
	<unicode hex="005E"/>
	<outline>
		<contour>
			<point x="283" y="607" type="line" smooth="yes"/>
			<point x="297" y="619"/>
			<point x="295" y="634"/>
			<point x="286" y="642" type="curve" smooth="yes"/>
			<point x="277" y="651"/>
			<point x="261" y="654"/>
			<point x="247" y="642" type="curve" smooth="yes"/>
			<point x="114" y="531" type="line" smooth="yes"/>
			<point x="102" y="521"/>
			<point x="104" y="506"/>
			<point x="112" y="497" type="curve" smooth="yes"/>
			<point x="121" y="488"/>
			<point x="136" y="484"/>
			<point x="152" y="497" type="curve" smooth="yes"/>
		</contour>
		<contour>
			<point x="287" y="641" type="line"/>
			<point x="248" y="609" type="line"/>
			<point x="341" y="499" type="line" smooth="yes"/>
			<point x="352" y="486"/>
			<point x="367" y="488"/>
			<point x="376" y="496" type="curve" smooth="yes"/>
			<point x="386" y="504"/>
			<point x="389" y="520"/>
			<point x="379" y="532" type="curve" smooth="yes"/>
		</contour>
	</outline>
</glyph>
<glyph name="underscore" format="2">
	<advance width="522"/>
	<unicode hex="005F"/>
	<outline>
		<contour>
			<point x="366" y="-77" type="line" smooth="yes"/>
			<point x="384" y="-77"/>
			<point x="393" y="-66"/>
			<point x="393" y="-54" type="curve" smooth="yes"/>
			<point x="393" y="-43"/>
			<point x="384" y="-32"/>
			<point x="366" y="-32" type="curve" smooth="yes"/>
			<point x="77" y="-32" type="line" smooth="yes"/>
			<point x="58" y="-32"/>
			<point x="50" y="-43"/>
			<point x="50" y="-55" type="curve" smooth="yes"/>
			<point x="50" y="-66"/>
			<point x="60" y="-77"/>
			<point x="77" y="-77" type="curve" smooth="yes"/>
		</contour>
	</outline>
</glyph>
<glyph name="grave" format="2">
	<advance width="207"/>
	<unicode hex="0060"/>
	<outline>
		<contour>
			<point x="187" y="683" type="line" smooth="yes"/>
			<point x="181" y="696"/>
			<point x="168" y="701"/>
			<point x="157" y="701" type="curve" smooth="yes"/>
			<point x="141" y="700"/>
			<point x="126" y="686"/>
			<point x="139" y="664" type="curve" smooth="yes"/>
			<point x="193" y="572" type="line" smooth="yes"/>
			<point x="202" y="557"/>
			<point x="215" y="554"/>
			<point x="224" y="559" type="curve" smooth="yes"/>
			<point x="232" y="563"/>
			<point x="235" y="573"/>
			<point x="229" y="587" type="curve" smooth="yes"/>
		</contour>
	</outline>
</glyph>
<glyph name="a" format="2">
	<advance width="394"/>
	<unicode hex="0061"/>
	<outline>
		<contour>
			<point x="359" y="301" type="line"/>
			<point x="314" y="301" type="line"/>
			<point x="286" y="254"/>
			<point x="253" y="205"/>
			<point x="212" y="153" type="curve" smooth="yes"/>
			<point x="151" y="77"/>
			<point x="114" y="47"/>
			<point x="95" y="47" type="curve" smooth="yes"/>
			<point x="81" y="47"/>
			<point x="81" y="62"/>
			<point x="81" y="78" type="curve" smooth="yes"/>
			<point x="81" y="116"/>
			<point x="99" y="206"/>
			<point x="125" y="245" type="curve" smooth="yes"/>
			<point x="155" y="290"/>
			<point x="206" y="300"/>
			<point x="240" y="300" type="curve" smooth="yes"/>
			<point x="247" y="300"/>
			<point x="315" y="300"/>
			<point x="334" y="300" type="curve"/>
			<point x="334" y="350" type="line"/>
			<point x="322" y="350"/>
			<point x="260" y="350"/>
			<point x="240" y="350" type="curve" smooth="yes"/>
			<point x="183" y="350"/>
			<point x="124" y="333"/>
			<point x="86" y="276" type="curve" smooth="yes"/>
			<point x="54" y="228"/>
			<point x="31" y="131"/>
			<point x="31" y="73" type="curve" smooth="yes"/>
			<point x="31" y="22"/>
			<point x="51" y="-4"/>
			<point x="84" y="-4" type="curve" smooth="yes"/>
			<point x="142" y="-4"/>
			<point x="194" y="50"/>
			<point x="254" y="126" type="curve" smooth="yes"/>
			<point x="284" y="163"/>
			<point x="340" y="236"/>
			<point x="356" y="291" type="curve" smooth="yes"/>
		</contour>
		<contour>
			<point x="375" y="316" type="line" smooth="yes"/>
			<point x="377" y="329"/>
			<point x="377" y="337"/>
			<point x="374" y="342" type="curve" smooth="yes"/>
			<point x="371" y="347"/>
			<point x="367" y="350"/>
			<point x="360" y="350" type="curve" smooth="yes"/>
			<point x="314" y="350" type="line"/>
			<point x="314" y="261" type="line"/>
			<point x="272" y="23" type="line" smooth="yes"/>
			<point x="271" y="15"/>
			<point x="272" y="0"/>
			<point x="294" y="0" type="curve" smooth="yes"/>
			<point x="320" y="0"/>
			<point x="322" y="18"/>
			<point x="323" y="23" type="curve" smooth="yes"/>
		</contour>
	</outline>
</glyph>
<glyph name="b" format="2">
  <advance width="383"/>
  <unicode hex="0062"/>
  <outline>
    <contour>
      <point x="32" y="0" type="line"/>
      <point x="44" y="0"/>
      <point x="106" y="0"/>
      <point x="126" y="0" type="curve" smooth="yes"/>
      <point x="183" y="0"/>
      <point x="242" y="17"/>
      <point x="280" y="74" type="curve" smooth="yes"/>
      <point x="312" y="122"/>
      <point x="335" y="219"/>
      <point x="335" y="277" type="curve" smooth="yes"/>
      <point x="335" y="328"/>
      <point x="315" y="354"/>
      <point x="282" y="354" type="curve" smooth="yes"/>
      <point x="224" y="354"/>
      <point x="170" y="300"/>
      <point x="133" y="253" type="curve" smooth="yes"/>
      <point x="94" y="204"/>
      <point x="57" y="152"/>
      <point x="32" y="106" type="curve"/>
      <point x="32" y="49" type="line"/>
      <point x="52" y="49" type="line"/>
      <point x="80" y="96"/>
      <point x="113" y="145"/>
      <point x="168" y="214" type="curve" smooth="yes"/>
      <point x="215" y="273"/>
      <point x="252" y="303"/>
      <point x="267" y="303" type="curve" smooth="yes"/>
      <point x="285" y="303"/>
      <point x="286" y="289"/>
      <point x="286" y="273" type="curve" smooth="yes"/>
      <point x="286" y="243"/>
      <point x="267" y="144"/>
      <point x="241" y="105" type="curve" smooth="yes"/>
      <point x="211" y="60"/>
      <point x="165" y="50"/>
      <point x="126" y="50" type="curve" smooth="yes"/>
      <point x="119" y="50"/>
      <point x="51" y="50"/>
      <point x="43" y="50" type="curve"/>
      <point x="32" y="50" type="line"/>
    </contour>
    <contour>
      <point x="52" y="0" type="line"/>
      <point x="52" y="89" type="line"/>
      <point x="146" y="621" type="line" smooth="yes"/>
      <point x="149" y="640"/>
      <point x="139" y="650"/>
      <point x="127" y="650" type="curve" smooth="yes"/>
      <point x="114" y="650"/>
      <point x="100" y="641"/>
      <point x="96" y="621" type="curve" smooth="yes"/>
      <point x="-10" y="22" type="line" smooth="yes"/>
      <point x="-12" y="10"/>
      <point x="-6" y="0"/>
      <point x="6" y="0" type="curve"/>
    </contour>
  </outline>
</glyph>
<glyph name="c" format="2">
	<advance width="299"/>
	<unicode hex="0063"/>
	<outline>
		<contour>
			<point x="80" y="-4" type="curve" smooth="yes"/>
			<point x="118" y="-4"/>
			<point x="171" y="32"/>
			<point x="214" y="84" type="curve" smooth="yes"/>
			<point x="226" y="99"/>
			<point x="240" y="117"/>
			<point x="251" y="132" type="curve" smooth="yes"/>
			<point x="257" y="141"/>
			<point x="259" y="149"/>
			<point x="259" y="155" type="curve" smooth="yes"/>
			<point x="259" y="168"/>
			<point x="247" y="175"/>
			<point x="238" y="175" type="curve" smooth="yes"/>
			<point x="229" y="175"/>
			<point x="219" y="171"/>
			<point x="211" y="161" type="curve" smooth="yes"/>
			<point x="202" y="150"/>
			<point x="190" y="134"/>
			<point x="180" y="121" type="curve" smooth="yes"/>
			<point x="145" y="77"/>
			<point x="112" y="47"/>
			<point x="92" y="47" type="curve" smooth="yes"/>
			<point x="81" y="47"/>
			<point x="75" y="59"/>
			<point x="75" y="78" type="curve" smooth="yes"/>
			<point x="75" y="116"/>
			<point x="93" y="206"/>
			<point x="119" y="245" type="curve" smooth="yes"/>
			<point x="149" y="290"/>
			<point x="200" y="300"/>
			<point x="269" y="300" type="curve" smooth="yes"/>
			<point x="282" y="300"/>
			<point x="291" y="314"/>
			<point x="291" y="326" type="curve" smooth="yes"/>
			<point x="291" y="337"/>
			<point x="282" y="350"/>
			<point x="269" y="350" type="curve" smooth="yes"/>
			<point x="177" y="350"/>
			<point x="118" y="333"/>
			<point x="80" y="276" type="curve" smooth="yes"/>
			<point x="48" y="228"/>
			<point x="25" y="131"/>
			<point x="25" y="73" type="curve" smooth="yes"/>
			<point x="25" y="22"/>
			<point x="48" y="-4"/>
		</contour>
	</outline>
</glyph>
<glyph name="d" format="2">
	<advance width="515"/>
	<unicode hex="0064"/>
	<outline>
		<contour>
			<point x="419" y="81" type="line" smooth="yes"/>
			<point x="405" y="59"/>
			<point x="397" y="48"/>
			<point x="390" y="48" type="curve" smooth="yes"/>
			<point x="370" y="48"/>
			<point x="378" y="124"/>
			<point x="379" y="132" type="curve" smooth="yes"/>
			<point x="466" y="623" type="line" smooth="yes"/>
			<point x="469" y="642"/>
			<point x="459" y="650"/>
			<point x="446" y="650" type="curve" smooth="yes"/>
			<point x="433" y="650"/>
			<point x="418" y="640"/>
			<point x="415" y="623" type="curve" smooth="yes"/>
			<point x="330" y="146" type="line" smooth="yes"/>
			<point x="317" y="78"/>
			<point x="321" y="0"/>
			<point x="391" y="0" type="curve" smooth="yes"/>
			<point x="424" y="0"/>
			<point x="437" y="17"/>
			<point x="458" y="50" type="curve" smooth="yes"/>
			<point x="477" y="79"/>
			<point x="480" y="86"/>
			<point x="480" y="94" type="curve" smooth="yes"/>
			<point x="480" y="109"/>
			<point x="468" y="116"/>
			<point x="457" y="116" type="curve" smooth="yes"/>
			<point x="445" y="116"/>
			<point x="437" y="108"/>
			<point x="434" y="104" type="curve" smooth="yes"/>
		</contour>
		<contour>
			<point x="395" y="300" type="line"/>
			<point x="350" y="300" type="line"/>
			<point x="321" y="253"/>
			<point x="288" y="204"/>
			<point x="250" y="156" type="curve" smooth="yes"/>
			<point x="188" y="76"/>
			<point x="150" y="46"/>
			<point x="131" y="46" type="curve" smooth="yes"/>
			<point x="117" y="46"/>
			<point x="117" y="61"/>
			<point x="117" y="77" type="curve" smooth="yes"/>
			<point x="117" y="115"/>
			<point x="135" y="205"/>
			<point x="161" y="244" type="curve" smooth="yes"/>
			<point x="191" y="289"/>
			<point x="242" y="299"/>
			<point x="276" y="299" type="curve" smooth="yes"/>
			<point x="283" y="299"/>
			<point x="351" y="299"/>
			<point x="359" y="299" type="curve"/>
			<point x="370" y="299" type="line"/>
			<point x="370" y="349" type="line"/>
			<point x="358" y="349"/>
			<point x="296" y="349"/>
			<point x="276" y="349" type="curve" smooth="yes"/>
			<point x="219" y="349"/>
			<point x="160" y="332"/>
			<point x="122" y="275" type="curve" smooth="yes"/>
			<point x="90" y="227"/>
			<point x="67" y="130"/>
			<point x="67" y="72" type="curve" smooth="yes"/>
			<point x="67" y="21"/>
			<point x="87" y="-4"/>
			<point x="120" y="-4" type="curve" smooth="yes"/>
			<point x="178" y="-4"/>
			<point x="230" y="49"/>
			<point x="278" y="109" type="curve" smooth="yes"/>
			<point x="320" y="162"/>
			<point x="371" y="235"/>
			<point x="391" y="289" type="curve" smooth="yes"/>
		</contour>
	</outline>
</glyph>
<glyph name="e" format="2">
	<advance width="311"/>
	<unicode hex="0065"/>
	<outline>
		<contour>
			<point x="58" y="108" type="line"/>
			<point x="73" y="115"/>
			<point x="135" y="147"/>
			<point x="173" y="168" type="curve" smooth="yes"/>
			<point x="213" y="191"/>
			<point x="277" y="230"/>
			<point x="288" y="291" type="curve" smooth="yes"/>
			<point x="295" y="332"/>
			<point x="253" y="354"/>
			<point x="202" y="354" type="curve" smooth="yes"/>
			<point x="183" y="354"/>
			<point x="134" y="350"/>
			<point x="90" y="284" type="curve" smooth="yes"/>
			<point x="61" y="240"/>
			<point x="34" y="167"/>
			<point x="30" y="107" type="curve" smooth="yes"/>
			<point x="23" y="19"/>
			<point x="69" y="-4"/>
			<point x="117" y="-4" type="curve" smooth="yes"/>
			<point x="190" y="-4"/>
			<point x="228" y="50"/>
			<point x="239" y="64" type="curve" smooth="yes"/>
			<point x="261" y="93"/>
			<point x="256" y="106"/>
			<point x="246" y="113" type="curve" smooth="yes"/>
			<point x="235" y="121"/>
			<point x="220" y="122"/>
			<point x="201" y="97" type="curve" smooth="yes"/>
			<point x="190" y="84"/>
			<point x="164" y="45"/>
			<point x="118" y="45" type="curve" smooth="yes"/>
			<point x="86" y="45"/>
			<point x="79" y="64"/>
			<point x="81" y="98" type="curve" smooth="yes"/>
			<point x="84" y="142"/>
			<point x="102" y="216"/>
			<point x="131" y="259" type="curve" smooth="yes"/>
			<point x="155" y="294"/>
			<point x="183" y="303"/>
			<point x="208" y="303" type="curve" smooth="yes"/>
			<point x="226" y="303"/>
			<point x="239" y="296"/>
			<point x="237" y="288" type="curve" smooth="yes"/>
			<point x="233" y="267"/>
			<point x="194" y="239"/>
			<point x="145" y="210" type="curve" smooth="yes"/>
			<point x="120" y="196"/>
			<point x="92" y="181"/>
			<point x="70" y="169" type="curve"/>
		</contour>
	</outline>
</glyph>
<glyph name="f" format="2">
	<advance width="292"/>
	<unicode hex="0066"/>
	<outline>
		<contour>
			<point x="207" y="518" type="line" smooth="yes"/>
			<point x="214" y="558"/>
			<point x="243" y="600"/>
			<point x="276" y="600" type="curve" smooth="yes"/>
			<point x="370" y="600" type="line" smooth="yes"/>
			<point x="387" y="600"/>
			<point x="395" y="614"/>
			<point x="395" y="625" type="curve" smooth="yes"/>
			<point x="395" y="635"/>
			<point x="387" y="650"/>
			<point x="370" y="650" type="curve" smooth="yes"/>
			<point x="276" y="650" type="line" smooth="yes"/>
			<point x="226" y="650"/>
			<point x="174" y="616"/>
			<point x="158" y="527" type="curve" smooth="yes"/>
			<point x="70" y="28" type="line" smooth="yes"/>
			<point x="68" y="16"/>
			<point x="77" y="0"/>
			<point x="95" y="0" type="curve" smooth="yes"/>
			<point x="112" y="0"/>
			<point x="119" y="15"/>
			<point x="121" y="27" type="curve" smooth="yes"/>
		</contour>
		<contour>
			<point x="247" y="305" type="line" smooth="yes"/>
			<point x="267" y="305"/>
			<point x="273" y="316"/>
			<point x="273" y="328" type="curve" smooth="yes"/>
			<point x="273" y="340"/>
			<point x="267" y="350"/>
			<point x="247" y="350" type="curve" smooth="yes"/>
			<point x="53" y="350" type="line" smooth="yes"/>
			<point x="33" y="350"/>
			<point x="27" y="340"/>
			<point x="27" y="328" type="curve" smooth="yes"/>
			<point x="27" y="316"/>
			<point x="33" y="305"/>
			<point x="53" y="305" type="curve" smooth="yes"/>
		</contour>
	</outline>
</glyph>
<glyph name="g" format="2">
	<advance width="474"/>
	<unicode hex="0067"/>
	<outline>
		<contour>
			<point x="413" y="326" type="line" smooth="yes"/>
			<point x="416" y="343"/>
			<point x="405" y="350"/>
			<point x="388" y="350" type="curve"/>
			<point x="363" y="350" type="line"/>
			<point x="339" y="198" type="line"/>
			<point x="304" y="1" type="line" smooth="yes"/>
			<point x="292" y="-67"/>
			<point x="285" y="-138"/>
			<point x="256" y="-185" type="curve" smooth="yes"/>
			<point x="238" y="-215"/>
			<point x="211" y="-236"/>
			<point x="165" y="-241" type="curve" smooth="yes"/>
			<point x="142" y="-244"/>
			<point x="50" y="-250"/>
			<point x="35" y="-250" type="curve" smooth="yes"/>
			<point x="14" y="-250"/>
			<point x="1" y="-262"/>
			<point x="1" y="-276" type="curve" smooth="yes"/>
			<point x="1" y="-291"/>
			<point x="14" y="-300"/>
			<point x="39" y="-300" type="curve" smooth="yes"/>
			<point x="57" y="-300"/>
			<point x="146" y="-295"/>
			<point x="179" y="-290" type="curve" smooth="yes"/>
			<point x="233" y="-282"/>
			<point x="273" y="-254"/>
			<point x="298" y="-212" type="curve" smooth="yes"/>
			<point x="331" y="-159"/>
			<point x="340" y="-83"/>
			<point x="355" y="1" type="curve" smooth="yes"/>
		</contour>
		<contour>
			<point x="395" y="301" type="line"/>
			<point x="350" y="301" type="line"/>
			<point x="321" y="254"/>
			<point x="288" y="205"/>
			<point x="250" y="157" type="curve" smooth="yes"/>
			<point x="188" y="77"/>
			<point x="150" y="47"/>
			<point x="131" y="47" type="curve" smooth="yes"/>
			<point x="117" y="47"/>
			<point x="117" y="62"/>
			<point x="117" y="78" type="curve" smooth="yes"/>
			<point x="117" y="116"/>
			<point x="135" y="206"/>
			<point x="161" y="245" type="curve" smooth="yes"/>
			<point x="191" y="290"/>
			<point x="242" y="300"/>
			<point x="276" y="300" type="curve" smooth="yes"/>
			<point x="283" y="300"/>
			<point x="351" y="300"/>
			<point x="359" y="300" type="curve"/>
			<point x="370" y="300" type="line"/>
			<point x="370" y="302"/>
			<point x="370" y="347"/>
			<point x="370" y="350" type="curve"/>
			<point x="358" y="350"/>
			<point x="296" y="350"/>
			<point x="276" y="350" type="curve" smooth="yes"/>
			<point x="219" y="350"/>
			<point x="160" y="333"/>
			<point x="122" y="276" type="curve" smooth="yes"/>
			<point x="90" y="228"/>
			<point x="67" y="131"/>
			<point x="67" y="73" type="curve" smooth="yes"/>
			<point x="67" y="22"/>
			<point x="87" y="-4"/>
			<point x="120" y="-4" type="curve" smooth="yes"/>
			<point x="182" y="-4"/>
			<point x="230" y="50"/>
			<point x="264" y="93" type="curve" smooth="yes"/>
			<point x="320" y="163"/>
			<point x="368" y="240"/>
			<point x="391" y="292" type="curve" smooth="yes"/>
		</contour>
	</outline>
</glyph>
<glyph name="h" format="2">
	<advance width="486"/>
	<unicode hex="0068"/>
	<outline>
		<contour>
			<point x="220" y="623" type="line" smooth="yes"/>
			<point x="223" y="641"/>
			<point x="212" y="650"/>
			<point x="199" y="650" type="curve" smooth="yes"/>
			<point x="186" y="650"/>
			<point x="172" y="641"/>
			<point x="169" y="623" type="curve" smooth="yes"/>
			<point x="63" y="23" type="line" smooth="yes"/>
			<point x="60" y="8"/>
			<point x="71" y="0"/>
			<point x="84" y="0" type="curve" smooth="yes"/>
			<point x="97" y="0"/>
			<point x="111" y="7"/>
			<point x="114" y="23" type="curve" smooth="yes"/>
		</contour>
		<contour>
			<point x="408" y="234" type="line" smooth="yes"/>
			<point x="419" y="291"/>
			<point x="408" y="354"/>
			<point x="351" y="354" type="curve" smooth="yes"/>
			<point x="257" y="354"/>
			<point x="161" y="185"/>
			<point x="103" y="98" type="curve"/>
			<point x="111" y="14" type="line"/>
			<point x="180" y="129"/>
			<point x="292" y="305"/>
			<point x="343" y="305" type="curve" smooth="yes"/>
			<point x="368" y="305"/>
			<point x="362" y="261"/>
			<point x="357" y="234" type="curve" smooth="yes"/>
			<point x="318" y="23" type="line" smooth="yes"/>
			<point x="317" y="15"/>
			<point x="318" y="0"/>
			<point x="340" y="0" type="curve"/>
			<point x="366" y="0"/>
			<point x="368" y="18"/>
			<point x="369" y="23" type="curve" smooth="yes"/>
		</contour>
	</outline>
</glyph>
<glyph name="i" format="2">
	<advance width="145"/>
	<unicode hex="0069"/>
	<outline>
		<contour>
			<point x="124" y="320" type="line" smooth="yes"/>
			<point x="128" y="340"/>
			<point x="116" y="350"/>
			<point x="104" y="350" type="curve" smooth="yes"/>
			<point x="91" y="350"/>
			<point x="76" y="341"/>
			<point x="73" y="323" type="curve" smooth="yes"/>
			<point x="21" y="28" type="line" smooth="yes"/>
			<point x="18" y="9"/>
			<point x="29" y="0"/>
			<point x="42" y="0" type="curve" smooth="yes"/>
			<point x="54" y="0"/>
			<point x="69" y="10"/>
			<point x="72" y="28" type="curve" smooth="yes"/>
		</contour>
		<contour>
			<point x="124" y="441" type="curve" smooth="yes"/>
			<point x="139" y="441"/>
			<point x="152" y="454"/>
			<point x="152" y="468" type="curve" smooth="yes"/>
			<point x="152" y="483"/>
			<point x="138" y="494"/>
			<point x="124" y="494" type="curve" smooth="yes"/>
			<point x="108" y="494"/>
			<point x="97" y="481"/>
			<point x="97" y="468" type="curve" smooth="yes"/>
			<point x="97" y="454"/>
			<point x="109" y="441"/>
		</contour>
	</outline>
</glyph>
<glyph name="j" format="2">
  <advance width="162"/>
  <unicode hex="006A"/>
  <outline>
    <contour>
      <point x="103" y="317" type="line" smooth="yes"/>
      <point x="107" y="338"/>
      <point x="94" y="350"/>
      <point x="80" y="350" type="curve" smooth="yes"/>
      <point x="68" y="350"/>
      <point x="54" y="341"/>
      <point x="50" y="320" type="curve" smooth="yes"/>
      <point x="-5" y="-3" type="line" smooth="yes"/>
      <point x="-17" y="-71"/>
      <point x="-25" y="-142"/>
      <point x="-53" y="-189" type="curve" smooth="yes"/>
      <point x="-71" y="-219"/>
      <point x="-98" y="-240"/>
      <point x="-146" y="-246" type="curve" smooth="yes"/>
      <point x="-167" y="-248"/>
      <point x="-212" y="-250"/>
      <point x="-231" y="-250" type="curve" smooth="yes"/>
      <point x="-257" y="-250"/>
      <point x="-270" y="-263"/>
      <point x="-270" y="-277" type="curve" smooth="yes"/>
      <point x="-270" y="-292"/>
      <point x="-256" y="-300"/>
      <point x="-232" y="-300" type="curve" smooth="yes"/>
      <point x="-213" y="-300"/>
      <point x="-163" y="-299"/>
      <point x="-130" y="-294" type="curve" smooth="yes"/>
      <point x="-76" y="-286"/>
      <point x="-37" y="-257"/>
      <point x="-12" y="-217" type="curve" smooth="yes"/>
      <point x="22" y="-163"/>
      <point x="31" y="-87"/>
      <point x="46" y="-3" type="curve" smooth="yes"/>
    </contour>
    <contour>
      <point x="103" y="436" type="curve" smooth="yes"/>
      <point x="120" y="436"/>
      <point x="134" y="451"/>
      <point x="134" y="468" type="curve" smooth="yes"/>
      <point x="134" y="486"/>
      <point x="120" y="499"/>
      <point x="103" y="499" type="curve" smooth="yes"/>
      <point x="86" y="499"/>
      <point x="73" y="486"/>
      <point x="73" y="468" type="curve" smooth="yes"/>
      <point x="73" y="451"/>
      <point x="86" y="436"/>
    </contour>
  </outline>
</glyph>
<glyph name="k" format="2">
	<advance width="381"/>
	<unicode hex="006B"/>
	<outline>
		<contour>
			<point x="175" y="621" type="line" smooth="yes"/>
			<point x="179" y="642"/>
			<point x="167" y="650"/>
			<point x="151" y="650" type="curve" smooth="yes"/>
			<point x="136" y="650"/>
			<point x="127" y="639"/>
			<point x="124" y="622" type="curve" smooth="yes"/>
			<point x="19" y="26" type="line" smooth="yes"/>
			<point x="16" y="10"/>
			<point x="26" y="0"/>
			<point x="39" y="0" type="curve" smooth="yes"/>
			<point x="55" y="0"/>
			<point x="67" y="7"/>
			<point x="70" y="26" type="curve" smooth="yes"/>
		</contour>
		<contour>
			<point x="216" y="174" type="line"/>
			<point x="152" y="174" type="line"/>
			<point x="261" y="18" type="line" smooth="yes"/>
			<point x="268" y="8"/>
			<point x="278" y="-1"/>
			<point x="291" y="-1" type="curve" smooth="yes"/>
			<point x="301" y="-1"/>
			<point x="311" y="5"/>
			<point x="314" y="16" type="curve" smooth="yes"/>
			<point x="316" y="23"/>
			<point x="315" y="31"/>
			<point x="308" y="41" type="curve" smooth="yes"/>
		</contour>
		<contour>
			<point x="51" y="39" type="line"/>
			<point x="82" y="122"/>
			<point x="120" y="170"/>
			<point x="149" y="210" type="curve" smooth="yes"/>
			<point x="166" y="234"/>
			<point x="190" y="258"/>
			<point x="208" y="273" type="curve" smooth="yes"/>
			<point x="228" y="289"/>
			<point x="255" y="304"/>
			<point x="268" y="304" type="curve" smooth="yes"/>
			<point x="284" y="304"/>
			<point x="281" y="279"/>
			<point x="279" y="271" type="curve" smooth="yes"/>
			<point x="274" y="245"/>
			<point x="256" y="236"/>
			<point x="230" y="219" type="curve" smooth="yes"/>
			<point x="210" y="205"/>
			<point x="181" y="189"/>
			<point x="152" y="174" type="curve"/>
			<point x="209" y="146" type="line"/>
			<point x="228" y="158"/>
			<point x="246" y="169"/>
			<point x="263" y="181" type="curve" smooth="yes"/>
			<point x="296" y="205"/>
			<point x="321" y="228"/>
			<point x="329" y="272" type="curve" smooth="yes"/>
			<point x="335" y="310"/>
			<point x="327" y="354"/>
			<point x="278" y="354" type="curve" smooth="yes"/>
			<point x="247" y="354"/>
			<point x="210" y="337"/>
			<point x="178" y="312" type="curve" smooth="yes"/>
			<point x="151" y="291"/>
			<point x="96" y="225"/>
			<point x="79" y="201" type="curve"/>
		</contour>
	</outline>
</glyph>
<glyph name="l" format="2">
	<advance width="228"/>
	<unicode hex="006C"/>
	<outline>
		<contour>
			<point x="219" y="624" type="line" smooth="yes"/>
			<point x="222" y="640"/>
			<point x="209" y="650"/>
			<point x="195" y="650" type="curve" smooth="yes"/>
			<point x="184" y="650"/>
			<point x="173" y="644"/>
			<point x="170" y="629" type="curve" smooth="yes"/>
			<point x="64" y="27" type="line" smooth="yes"/>
			<point x="61" y="9"/>
			<point x="74" y="0"/>
			<point x="88" y="0" type="curve" smooth="yes"/>
			<point x="99" y="0"/>
			<point x="110" y="7"/>
			<point x="113" y="22" type="curve" smooth="yes"/>
		</contour>
	</outline>
</glyph>
<glyph name="m" format="2">
	<advance width="623"/>
	<unicode hex="006D"/>
	<outline>
		<contour>
			<point x="589" y="234" type="line" smooth="yes"/>
			<point x="600" y="291"/>
			<point x="592" y="354"/>
			<point x="531" y="354" type="curve" smooth="yes"/>
			<point x="440" y="354"/>
			<point x="370" y="211"/>
			<point x="312" y="124" type="curve"/>
			<point x="305" y="11" type="line"/>
			<point x="374" y="126"/>
			<point x="473" y="305"/>
			<point x="524" y="305" type="curve" smooth="yes"/>
			<point x="549" y="305"/>
			<point x="543" y="261"/>
			<point x="538" y="234" type="curve" smooth="yes"/>
			<point x="499" y="23" type="line" smooth="yes"/>
			<point x="498" y="15"/>
			<point x="499" y="0"/>
			<point x="521" y="0" type="curve"/>
			<point x="547" y="0"/>
			<point x="549" y="18"/>
			<point x="550" y="23" type="curve" smooth="yes"/>
		</contour>
		<contour>
			<point x="122" y="323" type="line" smooth="yes"/>
			<point x="125" y="340"/>
			<point x="121" y="350"/>
			<point x="104" y="350" type="curve"/>
			<point x="85" y="350"/>
			<point x="74" y="342"/>
			<point x="71" y="323" type="curve" smooth="yes"/>
			<point x="18" y="23" type="line" smooth="yes"/>
			<point x="17" y="15"/>
			<point x="18" y="0"/>
			<point x="40" y="0" type="curve" smooth="yes"/>
			<point x="66" y="0"/>
			<point x="68" y="18"/>
			<point x="69" y="23" type="curve" smooth="yes"/>
		</contour>
		<contour>
			<point x="348" y="233" type="line" smooth="yes"/>
			<point x="359" y="290"/>
			<point x="351" y="353"/>
			<point x="290" y="353" type="curve" smooth="yes"/>
			<point x="198" y="353"/>
			<point x="129" y="208"/>
			<point x="71" y="121" type="curve"/>
			<point x="64" y="10" type="line"/>
			<point x="133" y="125"/>
			<point x="232" y="304"/>
			<point x="283" y="304" type="curve" smooth="yes"/>
			<point x="308" y="304"/>
			<point x="302" y="260"/>
			<point x="297" y="233" type="curve" smooth="yes"/>
			<point x="258" y="22" type="line" smooth="yes"/>
			<point x="257" y="14"/>
			<point x="258" y="0"/>
			<point x="280" y="0" type="curve"/>
			<point x="306" y="0"/>
			<point x="308" y="17"/>
			<point x="309" y="22" type="curve" smooth="yes"/>
		</contour>
	</outline>
</glyph>
<glyph name="n" format="2">
	<advance width="486"/>
	<unicode hex="006E"/>
	<outline>
		<contour>
			<point x="408" y="234" type="line" smooth="yes"/>
			<point x="419" y="291"/>
			<point x="411" y="354"/>
			<point x="351" y="354" type="curve" smooth="yes"/>
			<point x="259" y="354"/>
			<point x="174" y="206"/>
			<point x="116" y="119" type="curve"/>
			<point x="109" y="11" type="line"/>
			<point x="178" y="126"/>
			<point x="292" y="305"/>
			<point x="343" y="305" type="curve" smooth="yes"/>
			<point x="368" y="305"/>
			<point x="362" y="261"/>
			<point x="357" y="234" type="curve" smooth="yes"/>
			<point x="318" y="23" type="line" smooth="yes"/>
			<point x="317" y="15"/>
			<point x="318" y="0"/>
			<point x="340" y="0" type="curve"/>
			<point x="366" y="0"/>
			<point x="368" y="18"/>
			<point x="369" y="23" type="curve" smooth="yes"/>
		</contour>
		<contour>
			<point x="167" y="323" type="line" smooth="yes"/>
			<point x="169" y="340"/>
			<point x="166" y="350"/>
			<point x="149" y="350" type="curve"/>
			<point x="129" y="350"/>
			<point x="120" y="341"/>
			<point x="116" y="323" type="curve" smooth="yes"/>
			<point x="63" y="23" type="line" smooth="yes"/>
			<point x="62" y="15"/>
			<point x="63" y="0"/>
			<point x="85" y="0" type="curve" smooth="yes"/>
			<point x="111" y="0"/>
			<point x="113" y="18"/>
			<point x="114" y="23" type="curve" smooth="yes"/>
		</contour>
	</outline>
</glyph>
<glyph name="o" format="2">
	<advance width="414"/>
	<unicode hex="006F"/>
	<outline>
		<contour>
			<point x="136" y="-4" type="curve" smooth="yes"/>
			<point x="239" y="-4"/>
			<point x="324" y="142"/>
			<point x="345" y="260" type="curve" smooth="yes"/>
			<point x="355" y="319"/>
			<point x="310" y="351"/>
			<point x="240" y="351" type="curve" smooth="yes"/>
			<point x="181" y="351"/>
			<point x="142" y="314"/>
			<point x="118" y="271" type="curve" smooth="yes"/>
			<point x="100" y="237"/>
			<point x="71" y="170"/>
			<point x="71" y="95" type="curve" smooth="yes"/>
			<point x="71" y="20"/>
			<point x="96" y="-4"/>
		</contour>
		<contour>
			<point x="148" y="46" type="curve" smooth="yes"/>
			<point x="121" y="46"/>
			<point x="121" y="77"/>
			<point x="121" y="105" type="curve" smooth="yes"/>
			<point x="121" y="152"/>
			<point x="140" y="203"/>
			<point x="164" y="251" type="curve" smooth="yes"/>
			<point x="185" y="287"/>
			<point x="207" y="301"/>
			<point x="237" y="301" type="curve" smooth="yes"/>
			<point x="277" y="301"/>
			<point x="302" y="287"/>
			<point x="295" y="247" type="curve" smooth="yes"/>
			<point x="284" y="187"/>
			<point x="205" y="46"/>
		</contour>
	</outline>
</glyph>
<glyph name="p" format="2">
  <advance width="394"/>
  <unicode hex="0070"/>
  <outline>
    <contour>
      <point x="-31" y="-300" type="curve" smooth="yes"/>
      <point x="-19" y="-300"/>
      <point x="-5" y="-292"/>
      <point x="-2" y="-277" type="curve" smooth="yes"/>
      <point x="105" y="327" type="line" smooth="yes"/>
      <point x="108" y="342"/>
      <point x="96" y="350"/>
      <point x="83" y="350" type="curve" smooth="yes"/>
      <point x="71" y="350"/>
      <point x="57" y="342"/>
      <point x="54" y="327" type="curve" smooth="yes"/>
      <point x="-53" y="-276" type="line" smooth="yes"/>
      <point x="-56" y="-292"/>
      <point x="-44" y="-300"/>
    </contour>
    <contour>
      <point x="346" y="277" type="curve" smooth="yes"/>
      <point x="346" y="328"/>
      <point x="326" y="354"/>
      <point x="287" y="354" type="curve" smooth="yes"/>
      <point x="204" y="354"/>
      <point x="81" y="193"/>
      <point x="28" y="49" type="curve"/>
      <point x="64" y="49" type="line"/>
      <point x="99" y="139"/>
      <point x="242" y="303"/>
      <point x="278" y="303" type="curve" smooth="yes"/>
      <point x="296" y="303"/>
      <point x="296" y="288"/>
      <point x="296" y="272" type="curve" smooth="yes"/>
      <point x="296" y="118"/>
      <point x="220" y="49"/>
      <point x="131" y="49" type="curve"/>
      <point x="39" y="49" type="line"/>
      <point x="32" y="0" type="line"/>
      <point x="131" y="0" type="line"/>
      <point x="267" y="0"/>
      <point x="346" y="117"/>
    </contour>
  </outline>
</glyph>
<glyph name="q" format="2">
	<advance width="391"/>
	<unicode hex="0071"/>
	<outline>
		<contour>
			<point x="355" y="301" type="line"/>
			<point x="310" y="301" type="line"/>
			<point x="282" y="254"/>
			<point x="249" y="205"/>
			<point x="208" y="153" type="curve" smooth="yes"/>
			<point x="147" y="77"/>
			<point x="110" y="47"/>
			<point x="91" y="47" type="curve" smooth="yes"/>
			<point x="77" y="47"/>
			<point x="77" y="62"/>
			<point x="77" y="78" type="curve" smooth="yes"/>
			<point x="77" y="116"/>
			<point x="95" y="206"/>
			<point x="121" y="245" type="curve" smooth="yes"/>
			<point x="151" y="290"/>
			<point x="202" y="300"/>
			<point x="236" y="300" type="curve" smooth="yes"/>
			<point x="243" y="300"/>
			<point x="311" y="300"/>
			<point x="319" y="300" type="curve"/>
			<point x="330" y="300" type="line"/>
			<point x="330" y="302"/>
			<point x="330" y="347"/>
			<point x="330" y="350" type="curve"/>
			<point x="318" y="350"/>
			<point x="256" y="350"/>
			<point x="236" y="350" type="curve" smooth="yes"/>
			<point x="179" y="350"/>
			<point x="120" y="333"/>
			<point x="82" y="276" type="curve" smooth="yes"/>
			<point x="50" y="228"/>
			<point x="27" y="131"/>
			<point x="27" y="73" type="curve" smooth="yes"/>
			<point x="27" y="22"/>
			<point x="47" y="-4"/>
			<point x="80" y="-4" type="curve" smooth="yes"/>
			<point x="138" y="-4"/>
			<point x="190" y="50"/>
			<point x="231" y="101" type="curve" smooth="yes"/>
			<point x="280" y="163"/>
			<point x="328" y="240"/>
			<point x="351" y="292" type="curve" smooth="yes"/>
		</contour>
		<contour>
			<point x="246" y="-235" type="line"/>
			<point x="252" y="-294" type="line"/>
			<point x="360" y="-205" type="line" smooth="yes"/>
			<point x="372" y="-195"/>
			<point x="377" y="-185"/>
			<point x="379" y="-176" type="curve" smooth="yes"/>
			<point x="380" y="-164"/>
			<point x="372" y="-154"/>
			<point x="359" y="-154" type="curve" smooth="yes"/>
			<point x="351" y="-153"/>
			<point x="340" y="-157"/>
			<point x="328" y="-167" type="curve" smooth="yes"/>
		</contour>
		<contour>
			<point x="373" y="327" type="line" smooth="yes"/>
			<point x="374" y="335"/>
			<point x="373" y="350"/>
			<point x="351" y="350" type="curve" smooth="yes"/>
			<point x="326" y="350" type="line"/>
			<point x="215" y="-273" type="line" smooth="yes"/>
			<point x="212" y="-291"/>
			<point x="222" y="-300"/>
			<point x="234" y="-300" type="curve" smooth="yes"/>
			<point x="247" y="-300"/>
			<point x="262" y="-291"/>
			<point x="265" y="-273" type="curve" smooth="yes"/>
		</contour>
	</outline>
</glyph>
<glyph name="r" format="2">
	<advance width="336"/>
	<unicode hex="0072"/>
	<outline>
		<contour>
			<point x="76" y="91" type="line"/>
			<point x="121" y="163"/>
			<point x="143" y="194"/>
			<point x="172" y="228" type="curve" smooth="yes"/>
			<point x="190" y="249"/>
			<point x="214" y="275"/>
			<point x="235" y="289" type="curve" smooth="yes"/>
			<point x="248" y="298"/>
			<point x="255" y="301"/>
			<point x="261" y="301" type="curve" smooth="yes"/>
			<point x="272" y="301"/>
			<point x="280" y="271"/>
			<point x="281" y="268" type="curve" smooth="yes"/>
			<point x="286" y="249"/>
			<point x="294" y="241"/>
			<point x="309" y="241" type="curve" smooth="yes"/>
			<point x="328" y="241"/>
			<point x="332" y="253"/>
			<point x="331" y="265" type="curve" smooth="yes"/>
			<point x="330" y="281"/>
			<point x="319" y="329"/>
			<point x="303" y="341" type="curve" smooth="yes"/>
			<point x="298" y="345"/>
			<point x="287" y="350"/>
			<point x="266" y="350" type="curve" smooth="yes"/>
			<point x="253" y="350"/>
			<point x="233" y="348"/>
			<point x="211" y="334" type="curve" smooth="yes"/>
			<point x="194" y="323"/>
			<point x="168" y="300"/>
			<point x="141" y="271" type="curve" smooth="yes"/>
			<point x="125" y="254"/>
			<point x="107" y="233"/>
			<point x="98" y="216" type="curve"/>
		</contour>
		<contour>
			<point x="121" y="320" type="line" smooth="yes"/>
			<point x="124" y="340"/>
			<point x="113" y="350"/>
			<point x="100" y="350" type="curve" smooth="yes"/>
			<point x="88" y="350"/>
			<point x="74" y="341"/>
			<point x="71" y="323" type="curve" smooth="yes"/>
			<point x="19" y="27" type="line" smooth="yes"/>
			<point x="16" y="9"/>
			<point x="27" y="0"/>
			<point x="40" y="0" type="curve" smooth="yes"/>
			<point x="53" y="0"/>
			<point x="67" y="9"/>
			<point x="70" y="27" type="curve" smooth="yes"/>
		</contour>
	</outline>
</glyph>
<glyph name="s" format="2">
	<advance width="302"/>
	<unicode hex="0073"/>
	<outline>
		<contour>
			<point x="119" y="0" type="line" smooth="yes"/>
			<point x="179" y="0"/>
			<point x="241" y="16"/>
			<point x="251" y="80" type="curve" smooth="yes"/>
			<point x="257" y="117"/>
			<point x="243" y="144"/>
			<point x="224" y="159" type="curve" smooth="yes"/>
			<point x="205" y="174"/>
			<point x="165" y="200"/>
			<point x="133" y="226" type="curve" smooth="yes"/>
			<point x="118" y="238"/>
			<point x="104" y="251"/>
			<point x="104" y="263" type="curve" smooth="yes"/>
			<point x="104" y="281"/>
			<point x="139" y="300"/>
			<point x="171" y="300" type="curve" smooth="yes"/>
			<point x="266" y="300" type="line" smooth="yes"/>
			<point x="279" y="300"/>
			<point x="294" y="308"/>
			<point x="294" y="325" type="curve" smooth="yes"/>
			<point x="294" y="349"/>
			<point x="279" y="350"/>
			<point x="251" y="350" type="curve" smooth="yes"/>
			<point x="171" y="350" type="line" smooth="yes"/>
			<point x="111" y="350"/>
			<point x="56" y="316"/>
			<point x="54" y="262" type="curve" smooth="yes"/>
			<point x="53" y="224"/>
			<point x="79" y="202"/>
			<point x="107" y="182" type="curve" smooth="yes"/>
			<point x="134" y="163"/>
			<point x="167" y="143"/>
			<point x="181" y="132" type="curve" smooth="yes"/>
			<point x="194" y="121"/>
			<point x="204" y="107"/>
			<point x="201" y="88" type="curve" smooth="yes"/>
			<point x="196" y="55"/>
			<point x="160" y="50"/>
			<point x="119" y="50" type="curve" smooth="yes"/>
			<point x="44" y="50" type="line" smooth="yes"/>
			<point x="28" y="50"/>
			<point x="13" y="45"/>
			<point x="13" y="25" type="curve" smooth="yes"/>
			<point x="13" y="6"/>
			<point x="28" y="0"/>
			<point x="43" y="0" type="curve" smooth="yes"/>
		</contour>
	</outline>
</glyph>
<glyph name="t" format="2">
  <advance width="287"/>
  <unicode hex="0074"/>
  <outline>
    <contour>
      <point x="195" y="540" type="line" smooth="yes"/>
      <point x="198" y="558"/>
      <point x="184" y="568"/>
      <point x="170" y="568" type="curve" smooth="yes"/>
      <point x="159" y="568"/>
      <point x="149" y="561"/>
      <point x="146" y="547" type="curve" smooth="yes"/>
      <point x="53" y="24" type="line" smooth="yes"/>
      <point x="50" y="8"/>
      <point x="63" y="0"/>
      <point x="76" y="0" type="curve" smooth="yes"/>
      <point x="89" y="0"/>
      <point x="102" y="7"/>
      <point x="105" y="23" type="curve" smooth="yes"/>
    </contour>
    <contour>
      <point x="250" y="305" type="line" smooth="yes"/>
      <point x="270" y="305"/>
      <point x="276" y="316"/>
      <point x="276" y="328" type="curve" smooth="yes"/>
      <point x="276" y="340"/>
      <point x="270" y="350"/>
      <point x="250" y="350" type="curve" smooth="yes"/>
      <point x="26" y="350" type="line" smooth="yes"/>
      <point x="6" y="350"/>
      <point x="0" y="340"/>
      <point x="0" y="328" type="curve" smooth="yes"/>
      <point x="0" y="316"/>
      <point x="6" y="305"/>
      <point x="26" y="305" type="curve" smooth="yes"/>
    </contour>
  </outline>
</glyph>
<glyph name="u" format="2">
	<advance width="485"/>
	<unicode hex="0075"/>
	<outline>
		<contour>
			<point x="379" y="337" type="line"/>
			<point x="310" y="222"/>
			<point x="196" y="45"/>
			<point x="145" y="45" type="curve" smooth="yes"/>
			<point x="120" y="45"/>
			<point x="126" y="89"/>
			<point x="131" y="116" type="curve" smooth="yes"/>
			<point x="167" y="321" type="line" smooth="yes"/>
			<point x="170" y="340"/>
			<point x="159" y="350"/>
			<point x="147" y="350" type="curve" smooth="yes"/>
			<point x="134" y="350"/>
			<point x="119" y="341"/>
			<point x="116" y="322" type="curve" smooth="yes"/>
			<point x="80" y="116" type="line" smooth="yes"/>
			<point x="70" y="59"/>
			<point x="77" y="-4"/>
			<point x="135" y="-4" type="curve" smooth="yes"/>
			<point x="224" y="-4"/>
			<point x="330" y="163"/>
			<point x="385" y="251" type="curve"/>
		</contour>
		<contour>
			<point x="423" y="323" type="line" smooth="yes"/>
			<point x="426" y="340"/>
			<point x="422" y="350"/>
			<point x="405" y="350" type="curve"/>
			<point x="386" y="350"/>
			<point x="375" y="342"/>
			<point x="372" y="323" type="curve" smooth="yes"/>
			<point x="320" y="31" type="line" smooth="yes"/>
			<point x="317" y="12"/>
			<point x="328" y="-1"/>
			<point x="342" y="-1" type="curve" smooth="yes"/>
			<point x="353" y="-1"/>
			<point x="367" y="7"/>
			<point x="371" y="31" type="curve" smooth="yes"/>
		</contour>
	</outline>
</glyph>
<glyph name="v" format="2">
	<advance width="483"/>
	<unicode hex="0076"/>
	<outline>
		<contour>
			<point x="167" y="320" type="line" smooth="yes"/>
			<point x="171" y="340"/>
			<point x="159" y="350"/>
			<point x="146" y="350" type="curve" smooth="yes"/>
			<point x="134" y="350"/>
			<point x="119" y="341"/>
			<point x="116" y="323" type="curve" smooth="yes"/>
			<point x="77" y="102" type="line" smooth="yes"/>
			<point x="72" y="76"/>
			<point x="71" y="49"/>
			<point x="78" y="28" type="curve" smooth="yes"/>
			<point x="85" y="9"/>
			<point x="99" y="-4"/>
			<point x="125" y="-4" type="curve" smooth="yes"/>
			<point x="149" y="-4"/>
			<point x="175" y="7"/>
			<point x="200" y="25" type="curve" smooth="yes"/>
			<point x="238" y="53"/>
			<point x="278" y="100"/>
			<point x="304" y="138" type="curve" smooth="yes"/>
			<point x="338" y="186"/>
			<point x="384" y="269"/>
			<point x="394" y="288" type="curve" smooth="yes"/>
			<point x="417" y="333"/>
			<point x="407" y="350"/>
			<point x="387" y="350" type="curve" smooth="yes"/>
			<point x="369" y="350"/>
			<point x="363" y="337"/>
			<point x="351" y="315" type="curve" smooth="yes"/>
			<point x="333" y="280"/>
			<point x="304" y="229"/>
			<point x="273" y="183" type="curve" smooth="yes"/>
			<point x="240" y="133"/>
			<point x="205" y="89"/>
			<point x="171" y="63" type="curve" smooth="yes"/>
			<point x="157" y="52"/>
			<point x="148" y="47"/>
			<point x="139" y="47" type="curve" smooth="yes"/>
			<point x="131" y="47"/>
			<point x="124" y="51"/>
			<point x="123" y="60" type="curve" smooth="yes"/>
			<point x="121" y="69"/>
			<point x="125" y="86"/>
			<point x="128" y="102" type="curve" smooth="yes"/>
		</contour>
		<contour>
			<point x="403" y="344" type="line"/>
			<point x="375" y="294" type="line"/>
			<point x="419" y="230" type="line" smooth="yes"/>
			<point x="426" y="220"/>
			<point x="436" y="211"/>
			<point x="449" y="211" type="curve" smooth="yes"/>
			<point x="459" y="211"/>
			<point x="469" y="217"/>
			<point x="472" y="228" type="curve" smooth="yes"/>
			<point x="474" y="235"/>
			<point x="473" y="243"/>
			<point x="466" y="253" type="curve" smooth="yes"/>
		</contour>
	</outline>
</glyph>
<glyph name="w" format="2">
	<advance width="725"/>
	<unicode hex="0077"/>
	<outline>
		<contour>
			<point x="409" y="320" type="line" smooth="yes"/>
			<point x="413" y="340"/>
			<point x="401" y="350"/>
			<point x="388" y="350" type="curve"/>
			<point x="350" y="270" type="line"/>
			<point x="319" y="102" type="line" smooth="yes"/>
			<point x="314" y="76"/>
			<point x="313" y="49"/>
			<point x="320" y="28" type="curve" smooth="yes"/>
			<point x="327" y="9"/>
			<point x="341" y="-4"/>
			<point x="367" y="-4" type="curve" smooth="yes"/>
			<point x="391" y="-4"/>
			<point x="417" y="7"/>
			<point x="442" y="25" type="curve" smooth="yes"/>
			<point x="480" y="53"/>
			<point x="520" y="100"/>
			<point x="546" y="138" type="curve" smooth="yes"/>
			<point x="580" y="186"/>
			<point x="626" y="269"/>
			<point x="636" y="288" type="curve" smooth="yes"/>
			<point x="659" y="333"/>
			<point x="649" y="350"/>
			<point x="629" y="350" type="curve" smooth="yes"/>
			<point x="611" y="350"/>
			<point x="605" y="337"/>
			<point x="593" y="315" type="curve" smooth="yes"/>
			<point x="575" y="280"/>
			<point x="546" y="229"/>
			<point x="515" y="183" type="curve" smooth="yes"/>
			<point x="482" y="133"/>
			<point x="447" y="89"/>
			<point x="413" y="63" type="curve" smooth="yes"/>
			<point x="399" y="52"/>
			<point x="390" y="47"/>
			<point x="381" y="47" type="curve" smooth="yes"/>
			<point x="373" y="47"/>
			<point x="366" y="51"/>
			<point x="365" y="60" type="curve" smooth="yes"/>
			<point x="363" y="69"/>
			<point x="367" y="86"/>
			<point x="370" y="102" type="curve" smooth="yes"/>
		</contour>
		<contour>
			<point x="388" y="350" type="line"/>
			<point x="370" y="350"/>
			<point x="363" y="337"/>
			<point x="351" y="315" type="curve" smooth="yes"/>
			<point x="333" y="280"/>
			<point x="304" y="229"/>
			<point x="273" y="183" type="curve" smooth="yes"/>
			<point x="240" y="133"/>
			<point x="205" y="89"/>
			<point x="171" y="63" type="curve" smooth="yes"/>
			<point x="157" y="52"/>
			<point x="148" y="47"/>
			<point x="139" y="47" type="curve" smooth="yes"/>
			<point x="131" y="47"/>
			<point x="124" y="51"/>
			<point x="123" y="60" type="curve" smooth="yes"/>
			<point x="121" y="69"/>
			<point x="125" y="86"/>
			<point x="128" y="102" type="curve" smooth="yes"/>
			<point x="167" y="320" type="line" smooth="yes"/>
			<point x="171" y="340"/>
			<point x="159" y="350"/>
			<point x="146" y="350" type="curve" smooth="yes"/>
			<point x="134" y="350"/>
			<point x="119" y="341"/>
			<point x="116" y="323" type="curve" smooth="yes"/>
			<point x="77" y="102" type="line" smooth="yes"/>
			<point x="72" y="76"/>
			<point x="71" y="49"/>
			<point x="78" y="28" type="curve" smooth="yes"/>
			<point x="85" y="9"/>
			<point x="99" y="-4"/>
			<point x="125" y="-4" type="curve" smooth="yes"/>
			<point x="149" y="-4"/>
			<point x="175" y="7"/>
			<point x="200" y="25" type="curve" smooth="yes"/>
			<point x="238" y="53"/>
			<point x="278" y="100"/>
			<point x="304" y="138" type="curve" smooth="yes"/>
			<point x="339" y="189"/>
			<point x="367" y="248"/>
			<point x="377" y="267" type="curve"/>
		</contour>
		<contour>
			<point x="645" y="344" type="line"/>
			<point x="617" y="294" type="line"/>
			<point x="661" y="230" type="line" smooth="yes"/>
			<point x="668" y="220"/>
			<point x="678" y="211"/>
			<point x="691" y="211" type="curve" smooth="yes"/>
			<point x="701" y="211"/>
			<point x="711" y="217"/>
			<point x="714" y="228" type="curve" smooth="yes"/>
			<point x="716" y="235"/>
			<point x="715" y="243"/>
			<point x="708" y="253" type="curve" smooth="yes"/>
		</contour>
	</outline>
</glyph>
<glyph name="x" format="2">
  <advance width="378"/>
  <unicode hex="0078"/>
  <outline>
    <contour>
      <point x="-8" y="8" type="curve" smooth="yes"/>
      <point x="0" y="-1"/>
      <point x="16" y="-4"/>
      <point x="30" y="10" type="curve" smooth="yes"/>
      <point x="172" y="151" type="line"/>
      <point x="184" y="161" type="line"/>
      <point x="334" y="308" type="line" smooth="yes"/>
      <point x="348" y="321"/>
      <point x="346" y="336"/>
      <point x="338" y="344" type="curve" smooth="yes"/>
      <point x="329" y="353"/>
      <point x="312" y="355"/>
      <point x="298" y="341" type="curve" smooth="yes"/>
      <point x="154" y="197" type="line"/>
      <point x="145" y="193" type="line"/>
      <point x="-3" y="46" type="line" smooth="yes"/>
      <point x="-17" y="32"/>
      <point x="-17" y="17"/>
    </contour>
    <contour>
      <point x="282" y="4" type="curve" smooth="yes"/>
      <point x="296" y="15"/>
      <point x="295" y="28"/>
      <point x="285" y="43" type="curve" smooth="yes"/>
      <point x="184" y="191" type="line"/>
      <point x="85" y="335" type="line" smooth="yes"/>
      <point x="74" y="351"/>
      <point x="59" y="354"/>
      <point x="47" y="344" type="curve" smooth="yes"/>
      <point x="33" y="333"/>
      <point x="34" y="322"/>
      <point x="45" y="305" type="curve" smooth="yes"/>
      <point x="146" y="158" type="line"/>
      <point x="245" y="13" type="line" smooth="yes"/>
      <point x="255" y="-1"/>
      <point x="270" y="-6"/>
    </contour>
  </outline>
</glyph>
<glyph name="y" format="2">
	<advance width="395"/>
	<unicode hex="0079"/>
	<outline>
		<contour>
			<point x="376" y="317" type="line" smooth="yes"/>
			<point x="380" y="338"/>
			<point x="367" y="350"/>
			<point x="353" y="350" type="curve" smooth="yes"/>
			<point x="341" y="350"/>
			<point x="327" y="341"/>
			<point x="323" y="320" type="curve" smooth="yes"/>
			<point x="268" y="-3" type="line" smooth="yes"/>
			<point x="256" y="-71"/>
			<point x="248" y="-142"/>
			<point x="220" y="-189" type="curve" smooth="yes"/>
			<point x="202" y="-219"/>
			<point x="175" y="-240"/>
			<point x="127" y="-246" type="curve" smooth="yes"/>
			<point x="106" y="-248"/>
			<point x="23" y="-250"/>
			<point x="4" y="-250" type="curve" smooth="yes"/>
			<point x="-22" y="-250"/>
			<point x="-35" y="-263"/>
			<point x="-35" y="-277" type="curve" smooth="yes"/>
			<point x="-35" y="-292"/>
			<point x="-21" y="-300"/>
			<point x="3" y="-300" type="curve" smooth="yes"/>
			<point x="22" y="-300"/>
			<point x="110" y="-299"/>
			<point x="143" y="-294" type="curve" smooth="yes"/>
			<point x="197" y="-286"/>
			<point x="236" y="-257"/>
			<point x="261" y="-217" type="curve" smooth="yes"/>
			<point x="295" y="-163"/>
			<point x="304" y="-87"/>
			<point x="319" y="-3" type="curve" smooth="yes"/>
		</contour>
		<contour>
			<point x="333" y="340" type="line"/>
			<point x="264" y="225"/>
			<point x="151" y="45"/>
			<point x="100" y="45" type="curve" smooth="yes"/>
			<point x="75" y="45"/>
			<point x="81" y="89"/>
			<point x="86" y="116" type="curve" smooth="yes"/>
			<point x="122" y="321" type="line" smooth="yes"/>
			<point x="125" y="340"/>
			<point x="114" y="350"/>
			<point x="102" y="350" type="curve" smooth="yes"/>
			<point x="89" y="350"/>
			<point x="74" y="341"/>
			<point x="71" y="322" type="curve" smooth="yes"/>
			<point x="35" y="116" type="line" smooth="yes"/>
			<point x="25" y="59"/>
			<point x="32" y="-4"/>
			<point x="90" y="-4" type="curve" smooth="yes"/>
			<point x="179" y="-4"/>
			<point x="284" y="166"/>
			<point x="339" y="254" type="curve"/>
		</contour>
	</outline>
</glyph>
<glyph name="z" format="2">
	<advance width="396"/>
	<unicode hex="007A"/>
	<outline>
		<contour>
			<point x="369" y="308" type="line"/>
			<point x="374" y="313"/>
			<point x="378" y="317"/>
			<point x="378" y="327" type="curve" smooth="yes"/>
			<point x="378" y="333"/>
			<point x="376" y="339"/>
			<point x="371" y="344" type="curve" smooth="yes"/>
			<point x="366" y="349"/>
			<point x="359" y="350"/>
			<point x="352" y="350" type="curve" smooth="yes"/>
			<point x="345" y="349"/>
			<point x="338" y="346"/>
			<point x="333" y="341" type="curve"/>
			<point x="26" y="44" type="line" smooth="yes"/>
			<point x="18" y="37"/>
			<point x="17" y="28"/>
			<point x="18" y="21" type="curve" smooth="yes"/>
			<point x="19" y="16"/>
			<point x="22" y="11"/>
			<point x="26" y="6" type="curve" smooth="yes"/>
			<point x="30" y="2"/>
			<point x="35" y="0"/>
			<point x="42" y="0" type="curve" smooth="yes"/>
			<point x="50" y="0"/>
			<point x="58" y="5"/>
			<point x="63" y="10" type="curve"/>
		</contour>
		<contour>
			<point x="40" y="0" type="line"/>
			<point x="299" y="0" type="line" smooth="yes"/>
			<point x="319" y="0"/>
			<point x="325" y="13"/>
			<point x="325" y="25" type="curve" smooth="yes"/>
			<point x="325" y="37"/>
			<point x="319" y="50"/>
			<point x="299" y="50" type="curve" smooth="yes"/>
			<point x="62" y="50" type="line"/>
		</contour>
		<contour>
			<point x="330" y="300" type="line"/>
			<point x="354" y="350" type="line"/>
			<point x="97" y="350" type="line" smooth="yes"/>
			<point x="77" y="350"/>
			<point x="71" y="337"/>
			<point x="71" y="325" type="curve" smooth="yes"/>
			<point x="71" y="313"/>
			<point x="77" y="300"/>
			<point x="97" y="300" type="curve" smooth="yes"/>
		</contour>
	</outline>
</glyph>
<glyph name="braceleft" format="2">
  <advance width="350"/>
  <unicode hex="007B"/>
  <outline>
    <contour>
      <point x="43" y="205" type="curve" smooth="yes"/>
      <point x="41" y="188"/>
      <point x="53" y="178"/>
      <point x="64" y="162" type="curve" smooth="yes"/>
      <point x="86" y="129"/>
      <point x="95" y="100"/>
      <point x="91" y="71" type="curve" smooth="yes"/>
      <point x="81" y="14"/>
      <point x="19" y="-94"/>
      <point x="23" y="-160" type="curve" smooth="yes"/>
      <point x="27" y="-217"/>
      <point x="77" y="-267"/>
      <point x="111" y="-294" type="curve" smooth="yes"/>
      <point x="126" y="-306"/>
      <point x="144" y="-308"/>
      <point x="155" y="-298" type="curve" smooth="yes"/>
      <point x="166" y="-289"/>
      <point x="162" y="-268"/>
      <point x="148" y="-258" type="curve" smooth="yes"/>
      <point x="111" y="-231"/>
      <point x="77" y="-212"/>
      <point x="74" y="-158" type="curve" smooth="yes"/>
      <point x="71" y="-95"/>
      <point x="135" y="9"/>
      <point x="143" y="63" type="curve" smooth="yes"/>
      <point x="150" y="107"/>
      <point x="147" y="144"/>
      <point x="110" y="197" type="curve"/>
      <point x="167" y="236"/>
      <point x="182" y="267"/>
      <point x="193" y="311" type="curve" smooth="yes"/>
      <point x="205" y="364"/>
      <point x="178" y="479"/>
      <point x="212" y="534" type="curve" smooth="yes"/>
      <point x="234" y="570"/>
      <point x="288" y="585"/>
      <point x="333" y="596" type="curve" smooth="yes"/>
      <point x="350" y="601"/>
      <point x="366" y="616"/>
      <point x="364" y="630" type="curve" smooth="yes"/>
      <point x="362" y="645"/>
      <point x="337" y="653"/>
      <point x="314" y="646" type="curve" smooth="yes"/>
      <point x="274" y="634"/>
      <point x="196" y="600"/>
      <point x="167" y="550" type="curve" smooth="yes"/>
      <point x="133" y="492"/>
      <point x="154" y="366"/>
      <point x="141" y="317" type="curve" smooth="yes"/>
      <point x="133" y="288"/>
      <point x="112" y="264"/>
      <point x="78" y="240" type="curve" smooth="yes"/>
      <point x="60" y="228"/>
      <point x="45" y="221"/>
    </contour>
  </outline>
</glyph>
<glyph name="bar" format="2">
	<advance width="141"/>
	<unicode hex="007C"/>
	<outline>
		<contour>
			<point x="183" y="668" type="line" smooth="yes"/>
			<point x="187" y="690"/>
			<point x="176" y="700"/>
			<point x="163" y="700" type="curve" smooth="yes"/>
			<point x="151" y="700"/>
			<point x="136" y="690"/>
			<point x="133" y="672" type="curve" smooth="yes"/>
			<point x="-34" y="-273" type="line" smooth="yes"/>
			<point x="-37" y="-288"/>
			<point x="-28" y="-300"/>
			<point x="-10" y="-300" type="curve" smooth="yes"/>
			<point x="12" y="-300"/>
			<point x="15" y="-285"/>
			<point x="17" y="-275" type="curve" smooth="yes"/>
		</contour>
	</outline>
</glyph>
<glyph name="braceright" format="2">
	<advance width="254"/>
	<unicode hex="007D"/>
	<outline>
		<contour>
			<point x="162" y="166" type="line"/>
			<point x="119" y="125"/>
			<point x="103" y="91"/>
			<point x="94" y="48" type="curve" smooth="yes"/>
			<point x="82" y="-5"/>
			<point x="91" y="-119"/>
			<point x="69" y="-178" type="curve" smooth="yes"/>
			<point x="49" y="-228"/>
			<point x="21" y="-253"/>
			<point x="-14" y="-270" type="curve" smooth="yes"/>
			<point x="-26" y="-276"/>
			<point x="-37" y="-282"/>
			<point x="-32" y="-293" type="curve" smooth="yes"/>
			<point x="-28" y="-305"/>
			<point x="-15" y="-305"/>
			<point x="-1" y="-297" type="curve" smooth="yes"/>
			<point x="31" y="-280"/>
			<point x="81" y="-244"/>
			<point x="102" y="-191" type="curve" smooth="yes"/>
			<point x="127" y="-130"/>
			<point x="119" y="-13"/>
			<point x="131" y="43" type="curve" smooth="yes"/>
			<point x="138" y="72"/>
			<point x="152" y="97"/>
			<point x="178" y="123" type="curve" smooth="yes"/>
			<point x="191" y="136"/>
			<point x="200" y="142"/>
			<point x="206" y="159" type="curve"/>
		</contour>
		<contour>
			<point x="206" y="159" type="line"/>
			<point x="209" y="175"/>
			<point x="202" y="185"/>
			<point x="194" y="200" type="curve" smooth="yes"/>
			<point x="178" y="231"/>
			<point x="175" y="259"/>
			<point x="177" y="288" type="curve" smooth="yes"/>
			<point x="187" y="346"/>
			<point x="236" y="448"/>
			<point x="235" y="514" type="curve" smooth="yes"/>
			<point x="234" y="569"/>
			<point x="188" y="614"/>
			<point x="165" y="636" type="curve" smooth="yes"/>
			<point x="154" y="645"/>
			<point x="140" y="657"/>
			<point x="131" y="646" type="curve" smooth="yes"/>
			<point x="124" y="637"/>
			<point x="125" y="627"/>
			<point x="136" y="618" type="curve" smooth="yes"/>
			<point x="162" y="597"/>
			<point x="198" y="563"/>
			<point x="200" y="509" type="curve" smooth="yes"/>
			<point x="199" y="447"/>
			<point x="149" y="347"/>
			<point x="140" y="294" type="curve" smooth="yes"/>
			<point x="133" y="250"/>
			<point x="136" y="216"/>
			<point x="162" y="166" type="curve"/>
		</contour>
	</outline>
</glyph>
<glyph name="exclamdown" format="2">
	<advance width="246"/>
	<unicode hex="00A1"/>
	<outline>
		<contour>
			<point x="191" y="424" type="line" smooth="yes"/>
			<point x="194" y="441"/>
			<point x="182" y="450"/>
			<point x="170" y="451" type="curve" smooth="yes"/>
			<point x="158" y="452"/>
			<point x="143" y="443"/>
			<point x="140" y="424" type="curve" smooth="yes"/>
			<point x="66" y="21" type="line" smooth="yes"/>
			<point x="63" y="6"/>
			<point x="75" y="-1"/>
			<point x="88" y="0" type="curve" smooth="yes"/>
			<point x="100" y="0"/>
			<point x="114" y="7"/>
			<point x="117" y="21" type="curve" smooth="yes"/>
		</contour>
		<contour>
			<point x="202" y="585" type="curve" smooth="yes"/>
			<point x="220" y="585"/>
			<point x="233" y="601"/>
			<point x="233" y="617" type="curve" smooth="yes"/>
			<point x="233" y="633"/>
			<point x="220" y="650"/>
			<point x="202" y="650" type="curve" smooth="yes"/>
			<point x="184" y="650"/>
			<point x="168" y="634"/>
			<point x="168" y="617" type="curve" smooth="yes"/>
			<point x="168" y="600"/>
			<point x="184" y="585"/>
		</contour>
	</outline>
</glyph>
<glyph name="brokenbar" format="2">
	<advance width="141"/>
	<unicode hex="00A6"/>
	<outline>
		<contour>
			<point x="89" y="135" type="line" smooth="yes"/>
			<point x="92" y="152"/>
			<point x="81" y="162"/>
			<point x="69" y="162" type="curve" smooth="yes"/>
			<point x="56" y="162"/>
			<point x="41" y="152"/>
			<point x="38" y="135" type="curve" smooth="yes"/>
			<point x="-34" y="-273" type="line" smooth="yes"/>
			<point x="-37" y="-288"/>
			<point x="-28" y="-300"/>
			<point x="-10" y="-300" type="curve" smooth="yes"/>
			<point x="12" y="-300"/>
			<point x="15" y="-285"/>
			<point x="17" y="-275" type="curve" smooth="yes"/>
		</contour>
		<contour>
			<point x="183" y="668" type="line" smooth="yes"/>
			<point x="187" y="690"/>
			<point x="176" y="700"/>
			<point x="163" y="700" type="curve" smooth="yes"/>
			<point x="151" y="700"/>
			<point x="136" y="690"/>
			<point x="133" y="672" type="curve" smooth="yes"/>
			<point x="61" y="266" type="line" smooth="yes"/>
			<point x="58" y="249"/>
			<point x="69" y="238"/>
			<point x="82" y="239" type="curve" smooth="yes"/>
			<point x="95" y="239"/>
			<point x="109" y="249"/>
			<point x="112" y="266" type="curve" smooth="yes"/>
		</contour>
	</outline>
</glyph>
<glyph name="degree" format="2">
	<advance width="310"/>
	<unicode hex="00B0"/>
	<outline>
		<contour>
			<point x="190" y="433" type="curve" smooth="yes"/>
			<point x="254" y="433"/>
			<point x="320" y="532"/>
			<point x="320" y="595" type="curve" smooth="yes"/>
			<point x="320" y="634"/>
			<point x="297" y="655"/>
			<point x="252" y="655" type="curve" smooth="yes"/>
			<point x="215" y="655"/>
			<point x="189" y="630"/>
			<point x="174" y="604" type="curve" smooth="yes"/>
			<point x="163" y="583"/>
			<point x="146" y="543"/>
			<point x="146" y="496" type="curve" smooth="yes"/>
			<point x="146" y="449"/>
			<point x="163" y="433"/>
		</contour>
		<contour>
			<point x="197" y="472" type="curve" smooth="yes"/>
			<point x="185" y="472"/>
			<point x="185" y="486"/>
			<point x="185" y="503" type="curve" smooth="yes"/>
			<point x="185" y="530"/>
			<point x="197" y="559"/>
			<point x="211" y="588" type="curve"/>
			<point x="223" y="608"/>
			<point x="233" y="615"/>
			<point x="250" y="615" type="curve" smooth="yes"/>
			<point x="272" y="615"/>
			<point x="280" y="609"/>
			<point x="280" y="588" type="curve" smooth="yes"/>
			<point x="280" y="550"/>
			<point x="228" y="472"/>
		</contour>
	</outline>
</glyph>
<glyph name="plusminus" format="2">
	<advance width="341"/>
	<unicode hex="00B1"/>
	<outline>
		<contour>
			<point x="225" y="345" type="line" smooth="yes"/>
			<point x="228" y="364"/>
			<point x="216" y="375"/>
			<point x="204" y="375" type="curve" smooth="yes"/>
			<point x="194" y="375"/>
			<point x="184" y="368"/>
			<point x="181" y="352" type="curve" smooth="yes"/>
			<point x="153" y="196" type="line" smooth="yes"/>
			<point x="150" y="177"/>
			<point x="162" y="166"/>
			<point x="174" y="166" type="curve" smooth="yes"/>
			<point x="184" y="166"/>
			<point x="194" y="173"/>
			<point x="197" y="189" type="curve" smooth="yes"/>
		</contour>
		<contour>
			<point x="260" y="97" type="line" smooth="yes"/>
			<point x="278" y="97"/>
			<point x="287" y="108"/>
			<point x="287" y="120" type="curve" smooth="yes"/>
			<point x="287" y="131"/>
			<point x="278" y="142"/>
			<point x="260" y="142" type="curve" smooth="yes"/>
			<point x="63" y="142" type="line" smooth="yes"/>
			<point x="45" y="142"/>
			<point x="36" y="131"/>
			<point x="36" y="120" type="curve" smooth="yes"/>
			<point x="36" y="109"/>
			<point x="45" y="97"/>
			<point x="63" y="97" type="curve" smooth="yes"/>
		</contour>
		<contour>
			<point x="286" y="248" type="line" smooth="yes"/>
			<point x="304" y="248"/>
			<point x="313" y="260"/>
			<point x="313" y="271" type="curve" smooth="yes"/>
			<point x="313" y="282"/>
			<point x="304" y="293"/>
			<point x="286" y="293" type="curve" smooth="yes"/>
			<point x="89" y="293" type="line" smooth="yes"/>
			<point x="71" y="293"/>
			<point x="62" y="282"/>
			<point x="62" y="271" type="curve" smooth="yes"/>
			<point x="62" y="260"/>
			<point x="71" y="248"/>
			<point x="89" y="248" type="curve" smooth="yes"/>
		</contour>
	</outline>
</glyph>
<glyph name="periodcentered" format="2">
	<advance width="254"/>
	<unicode hex="00B7"/>
	<outline>
		<contour>
			<point x="128" y="138" type="curve" smooth="yes"/>
			<point x="148" y="138"/>
			<point x="166" y="157"/>
			<point x="166" y="177" type="curve" smooth="yes"/>
			<point x="166" y="198"/>
			<point x="148" y="214"/>
			<point x="128" y="214" type="curve" smooth="yes"/>
			<point x="107" y="214"/>
			<point x="91" y="197"/>
			<point x="91" y="177" type="curve" smooth="yes"/>
			<point x="91" y="158"/>
			<point x="107" y="138"/>
		</contour>
	</outline>
</glyph>
<glyph name="questiondown" format="2">
	<advance width="488"/>
	<unicode hex="00BF"/>
	<outline>
		<contour>
			<point x="331" y="382" type="line"/>
			<point x="175" y="382"/>
			<point x="107" y="290"/>
			<point x="82" y="151" type="curve" smooth="yes"/>
			<point x="68" y="72"/>
			<point x="136" y="0"/>
			<point x="227" y="0" type="curve" smooth="yes"/>
			<point x="342" y="0"/>
			<point x="406" y="64"/>
			<point x="423" y="159" type="curve" smooth="yes"/>
			<point x="427" y="181"/>
			<point x="422" y="194"/>
			<point x="411" y="197" type="curve" smooth="yes"/>
			<point x="398" y="200"/>
			<point x="378" y="191"/>
			<point x="374" y="169" type="curve" smooth="yes"/>
			<point x="364" y="112"/>
			<point x="326" y="50"/>
			<point x="241" y="50" type="curve" smooth="yes"/>
			<point x="175" y="50"/>
			<point x="121" y="86"/>
			<point x="132" y="147" type="curve" smooth="yes"/>
			<point x="140" y="193"/>
			<point x="164" y="332"/>
			<point x="326" y="332" type="curve"/>
		</contour>
		<contour>
			<point x="371" y="452" type="line" smooth="yes"/>
			<point x="373" y="466"/>
			<point x="363" y="476"/>
			<point x="351" y="479" type="curve" smooth="yes"/>
			<point x="338" y="481"/>
			<point x="324" y="474"/>
			<point x="320" y="452" type="curve" smooth="yes"/>
			<point x="302" y="351" type="line" smooth="yes"/>
			<point x="301" y="344"/>
			<point x="308" y="332"/>
			<point x="328" y="332" type="curve" smooth="yes"/>
			<point x="339" y="332"/>
			<point x="351" y="340"/>
			<point x="353" y="351" type="curve" smooth="yes"/>
		</contour>
		<contour>
			<point x="376" y="585" type="curve" smooth="yes"/>
			<point x="393" y="585"/>
			<point x="407" y="601"/>
			<point x="407" y="619" type="curve" smooth="yes"/>
			<point x="407" y="634"/>
			<point x="393" y="650"/>
			<point x="376" y="650" type="curve" smooth="yes"/>
			<point x="358" y="650"/>
			<point x="342" y="635"/>
			<point x="342" y="619" type="curve" smooth="yes"/>
			<point x="342" y="600"/>
			<point x="357" y="585"/>
		</contour>
	</outline>
</glyph>
<glyph name="multiply" format="2">
	<advance width="460"/>
	<unicode hex="00D7"/>
	<outline>
		<contour>
			<point x="385" y="290" type="line" smooth="yes"/>
			<point x="399" y="302"/>
			<point x="397" y="317"/>
			<point x="388" y="325" type="curve" smooth="yes"/>
			<point x="379" y="334"/>
			<point x="363" y="337"/>
			<point x="349" y="325" type="curve" smooth="yes"/>
			<point x="83" y="101" type="line" smooth="yes"/>
			<point x="71" y="91"/>
			<point x="73" y="76"/>
			<point x="81" y="67" type="curve" smooth="yes"/>
			<point x="90" y="58"/>
			<point x="105" y="54"/>
			<point x="121" y="67" type="curve" smooth="yes"/>
		</contour>
		<contour>
			<point x="161" y="321" type="line" smooth="yes"/>
			<point x="148" y="336"/>
			<point x="133" y="335"/>
			<point x="124" y="327" type="curve" smooth="yes"/>
			<point x="115" y="318"/>
			<point x="111" y="303"/>
			<point x="121" y="291" type="curve" smooth="yes"/>
			<point x="310" y="69" type="line" smooth="yes"/>
			<point x="321" y="56"/>
			<point x="336" y="58"/>
			<point x="345" y="66" type="curve" smooth="yes"/>
			<point x="355" y="74"/>
			<point x="359" y="89"/>
			<point x="348" y="102" type="curve" smooth="yes"/>
		</contour>
	</outline>
</glyph>
<glyph name="divide" format="2">
	<advance width="370"/>
	<unicode hex="00F7"/>
	<outline>
		<contour>
			<point x="303" y="175" type="line" smooth="yes"/>
			<point x="338" y="175"/>
			<point x="340" y="220"/>
			<point x="303" y="220" type="curve" smooth="yes"/>
			<point x="76" y="220" type="line" smooth="yes"/>
			<point x="39" y="220"/>
			<point x="41" y="175"/>
			<point x="76" y="175" type="curve" smooth="yes"/>
		</contour>
		<contour>
			<point x="169" y="57" type="curve" smooth="yes"/>
			<point x="187" y="57"/>
			<point x="203" y="73"/>
			<point x="203" y="90" type="curve" smooth="yes"/>
			<point x="203" y="108"/>
			<point x="186" y="122"/>
			<point x="169" y="122" type="curve" smooth="yes"/>
			<point x="150" y="122"/>
			<point x="138" y="106"/>
			<point x="138" y="90" type="curve" smooth="yes"/>
			<point x="138" y="73"/>
			<point x="151" y="57"/>
		</contour>
		<contour>
			<point x="208" y="273" type="curve" smooth="yes"/>
			<point x="225" y="273"/>
			<point x="241" y="289"/>
			<point x="241" y="306" type="curve" smooth="yes"/>
			<point x="241" y="323"/>
			<point x="225" y="338"/>
			<point x="208" y="338" type="curve" smooth="yes"/>
			<point x="190" y="338"/>
			<point x="176" y="322"/>
			<point x="176" y="306" type="curve" smooth="yes"/>
			<point x="176" y="290"/>
			<point x="190" y="273"/>
		</contour>
	</outline>
</glyph>
<glyph name="tilde" format="2">
	<advance width="371"/>
	<unicode hex="02DC"/>
	<outline>
		<contour>
			<point x="232" y="158" type="curve" smooth="yes"/>
			<point x="264" y="158"/>
			<point x="284" y="168"/>
			<point x="305" y="177" type="curve" smooth="yes"/>
			<point x="323" y="185"/>
			<point x="331" y="191"/>
			<point x="331" y="202" type="curve" smooth="yes"/>
			<point x="331" y="213"/>
			<point x="319" y="233"/>
			<point x="302" y="225" type="curve" smooth="yes"/>
			<point x="283" y="216"/>
			<point x="270" y="203"/>
			<point x="240" y="203" type="curve" smooth="yes"/>
			<point x="212" y="203"/>
			<point x="169" y="241"/>
			<point x="138" y="241" type="curve" smooth="yes"/>
			<point x="112" y="241"/>
			<point x="95" y="232"/>
			<point x="77" y="225" type="curve" smooth="yes"/>
			<point x="59" y="218"/>
			<point x="50" y="213"/>
			<point x="50" y="202" type="curve" smooth="yes"/>
			<point x="50" y="190"/>
			<point x="60" y="169"/>
			<point x="78" y="177" type="curve" smooth="yes"/>
			<point x="93" y="184"/>
			<point x="107" y="196"/>
			<point x="130" y="196" type="curve" smooth="yes"/>
			<point x="161" y="196"/>
			<point x="204" y="158"/>
		</contour>
	</outline>
</glyph>
<glyph name="endash" format="2">
	<advance width="371"/>
	<unicode hex="2013"/>
	<outline>
		<contour>
			<point x="304" y="175" type="line" smooth="yes"/>
			<point x="322" y="175"/>
			<point x="331" y="187"/>
			<point x="331" y="199" type="curve" smooth="yes"/>
			<point x="331" y="210"/>
			<point x="322" y="220"/>
			<point x="304" y="220" type="curve" smooth="yes"/>
			<point x="77" y="220" type="line" smooth="yes"/>
			<point x="59" y="220"/>
			<point x="50" y="210"/>
			<point x="50" y="199" type="curve" smooth="yes"/>
			<point x="50" y="187"/>
			<point x="59" y="175"/>
			<point x="77" y="175" type="curve" smooth="yes"/>
		</contour>
	</outline>
</glyph>
<glyph name="emdash" format="2">
	<advance width="562"/>
	<unicode hex="2014"/>
	<outline>
		<contour>
			<point x="447" y="175" type="line" smooth="yes"/>
			<point x="467" y="175"/>
			<point x="478" y="187"/>
			<point x="478" y="199" type="curve" smooth="yes"/>
			<point x="478" y="209"/>
			<point x="468" y="220"/>
			<point x="447" y="220" type="curve" smooth="yes"/>
			<point x="124" y="220" type="line" smooth="yes"/>
			<point x="104" y="220"/>
			<point x="94" y="209"/>
			<point x="94" y="199" type="curve" smooth="yes"/>
			<point x="94" y="187"/>
			<point x="105" y="175"/>
			<point x="124" y="175" type="curve" smooth="yes"/>
		</contour>
	</outline>
</glyph>
<glyph name="bullet" format="2">
	<advance width="241"/>
	<unicode hex="2022"/>
	<outline>
		<contour>
			<point x="151" y="278" type="curve" smooth="yes"/>
			<point x="191" y="278"/>
			<point x="228" y="314"/>
			<point x="228" y="355" type="curve" smooth="yes"/>
			<point x="228" y="396"/>
			<point x="192" y="430"/>
			<point x="152" y="430" type="curve" smooth="yes"/>
			<point x="110" y="430"/>
			<point x="78" y="395"/>
			<point x="78" y="355" type="curve" smooth="yes"/>
			<point x="78" y="316"/>
			<point x="109" y="278"/>
		</contour>
	</outline>
</glyph>
<glyph name="ellipsis" format="2">
	<advance width="474"/>
	<unicode hex="2026"/>
	<outline>
		<contour>
			<point x="318" y="-30" type="curve" smooth="yes"/>
			<point x="338" y="-30"/>
			<point x="356" y="-12"/>
			<point x="356" y="9" type="curve" smooth="yes"/>
			<point x="356" y="29"/>
			<point x="338" y="46"/>
			<point x="318" y="46" type="curve" smooth="yes"/>
			<point x="297" y="46"/>
			<point x="281" y="29"/>
			<point x="281" y="9" type="curve" smooth="yes"/>
			<point x="281" y="-11"/>
			<point x="297" y="-30"/>
		</contour>
		<contour>
			<point x="98" y="-30" type="curve" smooth="yes"/>
			<point x="118" y="-30"/>
			<point x="136" y="-12"/>
			<point x="136" y="9" type="curve" smooth="yes"/>
			<point x="136" y="29"/>
			<point x="118" y="46"/>
			<point x="98" y="46" type="curve" smooth="yes"/>
			<point x="77" y="46"/>
			<point x="61" y="29"/>
			<point x="61" y="9" type="curve" smooth="yes"/>
			<point x="61" y="-11"/>
			<point x="77" y="-30"/>
		</contour>
		<contour>
			<point x="208" y="-30" type="curve" smooth="yes"/>
			<point x="228" y="-30"/>
			<point x="246" y="-12"/>
			<point x="246" y="9" type="curve" smooth="yes"/>
			<point x="246" y="29"/>
			<point x="228" y="46"/>
			<point x="208" y="46" type="curve" smooth="yes"/>
			<point x="187" y="46"/>
			<point x="171" y="29"/>
			<point x="171" y="9" type="curve" smooth="yes"/>
			<point x="171" y="-11"/>
			<point x="187" y="-30"/>
		</contour>
	</outline>
</glyph>
<glyph name="minus" format="2">
	<advance width="459"/>
	<unicode hex="2212"/>
	<outline>
		<contour>
			<point x="348" y="175" type="line" smooth="yes"/>
			<point x="366" y="175"/>
			<point x="375" y="187"/>
			<point x="375" y="198" type="curve" smooth="yes"/>
			<point x="375" y="209"/>
			<point x="366" y="220"/>
			<point x="348" y="220" type="curve" smooth="yes"/>
			<point x="121" y="220" type="line" smooth="yes"/>
			<point x="103" y="220"/>
			<point x="94" y="209"/>
			<point x="94" y="198" type="curve" smooth="yes"/>
			<point x="94" y="186"/>
			<point x="103" y="175"/>
			<point x="121" y="175" type="curve" smooth="yes"/>
		</contour>
	</outline>
</glyph>
<glyph name="infinity" format="2">
	<advance width="745"/>
	<unicode hex="221E"/>
	<outline>
		<contour>
			<point x="338" y="213" type="line"/>
			<point x="349" y="196" type="line" smooth="yes"/>
			<point x="382" y="146"/>
			<point x="431" y="90"/>
			<point x="489" y="80" type="curve" smooth="yes"/>
			<point x="553" y="69"/>
			<point x="649" y="109"/>
			<point x="667" y="211" type="curve" smooth="yes"/>
			<point x="684" y="307"/>
			<point x="612" y="349"/>
			<point x="555" y="359" type="curve" smooth="yes"/>
			<point x="503" y="368"/>
			<point x="426" y="356"/>
			<point x="345" y="279" type="curve"/>
		</contour>
		<contour>
			<point x="348" y="280" type="line"/>
			<point x="289" y="214"/>
			<point x="178" y="123"/>
			<point x="153" y="127" type="curve" smooth="yes"/>
			<point x="134" y="130"/>
			<point x="134" y="191"/>
			<point x="140" y="227" type="curve" smooth="yes"/>
			<point x="147" y="267"/>
			<point x="171" y="322"/>
			<point x="227" y="312" type="curve" smooth="yes"/>
			<point x="268" y="305"/>
			<point x="296" y="267"/>
			<point x="314" y="241" type="curve"/>
			<point x="347" y="279" type="line"/>
			<point x="325" y="309"/>
			<point x="296" y="352"/>
			<point x="241" y="361" type="curve" smooth="yes"/>
			<point x="155" y="377"/>
			<point x="102" y="298"/>
			<point x="89" y="226" type="curve" smooth="yes"/>
			<point x="79" y="168"/>
			<point x="91" y="90"/>
			<point x="145" y="81" type="curve" smooth="yes"/>
			<point x="201" y="71"/>
			<point x="277" y="140"/>
			<point x="346" y="210" type="curve"/>
		</contour>
		<contour>
			<point x="379" y="241" type="line"/>
			<point x="446" y="307"/>
			<point x="501" y="319"/>
			<point x="540" y="312" type="curve" smooth="yes"/>
			<point x="588" y="303"/>
			<point x="627" y="263"/>
			<point x="618" y="214" type="curve" smooth="yes"/>
			<point x="608" y="158"/>
			<point x="541" y="123"/>
			<point x="498" y="130" type="curve" smooth="yes"/>
			<point x="457" y="137"/>
			<point x="417" y="186"/>
			<point x="389" y="227" type="curve" smooth="yes"/>
		</contour>
	</outline>
</glyph>
<glyph name="approxequal" format="2">
	<advance width="371"/>
	<unicode hex="2248"/>
	<outline>
		<contour>
			<point x="244" y="227" type="curve" smooth="yes"/>
			<point x="276" y="227"/>
			<point x="296" y="237"/>
			<point x="317" y="246" type="curve" smooth="yes"/>
			<point x="335" y="254"/>
			<point x="343" y="260"/>
			<point x="343" y="271" type="curve" smooth="yes"/>
			<point x="343" y="282"/>
			<point x="331" y="302"/>
			<point x="314" y="294" type="curve" smooth="yes"/>
			<point x="295" y="285"/>
			<point x="282" y="272"/>
			<point x="252" y="272" type="curve" smooth="yes"/>
			<point x="224" y="272"/>
			<point x="181" y="310"/>
			<point x="150" y="310" type="curve" smooth="yes"/>
			<point x="124" y="310"/>
			<point x="107" y="301"/>
			<point x="89" y="294" type="curve" smooth="yes"/>
			<point x="71" y="287"/>
			<point x="62" y="282"/>
			<point x="62" y="271" type="curve" smooth="yes"/>
			<point x="62" y="259"/>
			<point x="72" y="238"/>
			<point x="90" y="246" type="curve" smooth="yes"/>
			<point x="105" y="253"/>
			<point x="119" y="265"/>
			<point x="142" y="265" type="curve" smooth="yes"/>
			<point x="173" y="265"/>
			<point x="216" y="227"/>
		</contour>
		<contour>
			<point x="218" y="76" type="curve" smooth="yes"/>
			<point x="250" y="76"/>
			<point x="270" y="86"/>
			<point x="291" y="95" type="curve" smooth="yes"/>
			<point x="309" y="103"/>
			<point x="317" y="109"/>
			<point x="317" y="120" type="curve" smooth="yes"/>
			<point x="317" y="131"/>
			<point x="305" y="151"/>
			<point x="288" y="143" type="curve" smooth="yes"/>
			<point x="269" y="134"/>
			<point x="256" y="121"/>
			<point x="226" y="121" type="curve" smooth="yes"/>
			<point x="198" y="121"/>
			<point x="155" y="159"/>
			<point x="124" y="159" type="curve" smooth="yes"/>
			<point x="98" y="159"/>
			<point x="81" y="150"/>
			<point x="63" y="143" type="curve" smooth="yes"/>
			<point x="45" y="136"/>
			<point x="36" y="131"/>
			<point x="36" y="120" type="curve" smooth="yes"/>
			<point x="36" y="108"/>
			<point x="46" y="87"/>
			<point x="64" y="95" type="curve" smooth="yes"/>
			<point x="79" y="102"/>
			<point x="93" y="114"/>
			<point x="116" y="114" type="curve" smooth="yes"/>
			<point x="147" y="114"/>
			<point x="190" y="76"/>
		</contour>
	</outline>
</glyph>
<glyph name="notequal" format="2">
	<advance width="460"/>
	<unicode hex="2260"/>
	<outline>
		<contour>
			<point x="314" y="312" type="line" smooth="yes"/>
			<point x="326" y="337"/>
			<point x="314" y="350"/>
			<point x="300" y="350" type="curve" smooth="yes"/>
			<point x="290" y="350"/>
			<point x="280" y="345"/>
			<point x="274" y="333" type="curve" smooth="yes"/>
			<point x="153" y="72" type="line" smooth="yes"/>
			<point x="145" y="54"/>
			<point x="153" y="42"/>
			<point x="164" y="38" type="curve" smooth="yes"/>
			<point x="174" y="35"/>
			<point x="187" y="38"/>
			<point x="193" y="51" type="curve" smooth="yes"/>
		</contour>
		<contour>
			<point x="335" y="97" type="line" smooth="yes"/>
			<point x="353" y="97"/>
			<point x="362" y="108"/>
			<point x="362" y="120" type="curve" smooth="yes"/>
			<point x="362" y="131"/>
			<point x="353" y="142"/>
			<point x="335" y="142" type="curve" smooth="yes"/>
			<point x="108" y="142" type="line" smooth="yes"/>
			<point x="90" y="142"/>
			<point x="81" y="131"/>
			<point x="81" y="120" type="curve" smooth="yes"/>
			<point x="81" y="109"/>
			<point x="90" y="97"/>
			<point x="108" y="97" type="curve" smooth="yes"/>
		</contour>
		<contour>
			<point x="361" y="248" type="line" smooth="yes"/>
			<point x="379" y="248"/>
			<point x="388" y="260"/>
			<point x="388" y="271" type="curve" smooth="yes"/>
			<point x="388" y="282"/>
			<point x="379" y="293"/>
			<point x="361" y="293" type="curve" smooth="yes"/>
			<point x="134" y="293" type="line" smooth="yes"/>
			<point x="116" y="293"/>
			<point x="107" y="282"/>
			<point x="107" y="271" type="curve" smooth="yes"/>
			<point x="107" y="260"/>
			<point x="116" y="248"/>
			<point x="134" y="248" type="curve" smooth="yes"/>
		</contour>
	</outline>
</glyph>
<glyph name="lessequal" format="2">
	<advance width="349"/>
	<unicode hex="2264"/>
	<outline>
		<contour>
			<point x="320" y="324" type="line" smooth="yes"/>
			<point x="336" y="332"/>
			<point x="338" y="348"/>
			<point x="330" y="359" type="curve" smooth="yes"/>
			<point x="322" y="369"/>
			<point x="310" y="369"/>
			<point x="293" y="360" type="curve" smooth="yes"/>
			<point x="67" y="243" type="line" smooth="yes"/>
			<point x="52" y="235"/>
			<point x="52" y="223"/>
			<point x="60" y="212" type="curve" smooth="yes"/>
			<point x="67" y="202"/>
			<point x="78" y="199"/>
			<point x="93" y="207" type="curve" smooth="yes"/>
		</contour>
		<contour>
			<point x="268" y="97" type="line" smooth="yes"/>
			<point x="286" y="97"/>
			<point x="295" y="109"/>
			<point x="295" y="120" type="curve" smooth="yes"/>
			<point x="295" y="131"/>
			<point x="286" y="142"/>
			<point x="268" y="142" type="curve" smooth="yes"/>
			<point x="64" y="142" type="line" smooth="yes"/>
			<point x="46" y="142"/>
			<point x="37" y="131"/>
			<point x="37" y="120" type="curve" smooth="yes"/>
			<point x="37" y="108"/>
			<point x="46" y="97"/>
			<point x="64" y="97" type="curve" smooth="yes"/>
		</contour>
		<contour>
			<point x="74" y="202" type="line"/>
			<point x="287" y="202" type="line" smooth="yes"/>
			<point x="303" y="202"/>
			<point x="313" y="213"/>
			<point x="313" y="225" type="curve" smooth="yes"/>
			<point x="314" y="236"/>
			<point x="304" y="248"/>
			<point x="281" y="248" type="curve" smooth="yes"/>
			<point x="75" y="248" type="line"/>
		</contour>
	</outline>
</glyph>
<glyph name="greaterequal" format="2">
	<advance width="350"/>
	<unicode hex="2265"/>
	<outline>
		<contour>
			<point x="274" y="207" type="line" smooth="yes"/>
			<point x="289" y="198"/>
			<point x="300" y="202"/>
			<point x="307" y="212" type="curve" smooth="yes"/>
			<point x="315" y="223"/>
			<point x="315" y="233"/>
			<point x="300" y="243" type="curve" smooth="yes"/>
			<point x="117" y="360" type="line" smooth="yes"/>
			<point x="101" y="370"/>
			<point x="88" y="369"/>
			<point x="80" y="359" type="curve" smooth="yes"/>
			<point x="72" y="348"/>
			<point x="75" y="334"/>
			<point x="90" y="324" type="curve" smooth="yes"/>
		</contour>
		<contour>
			<point x="269" y="97" type="line" smooth="yes"/>
			<point x="287" y="97"/>
			<point x="296" y="108"/>
			<point x="296" y="120" type="curve" smooth="yes"/>
			<point x="296" y="131"/>
			<point x="287" y="142"/>
			<point x="269" y="142" type="curve" smooth="yes"/>
			<point x="65" y="142" type="line" smooth="yes"/>
			<point x="47" y="142"/>
			<point x="38" y="131"/>
			<point x="38" y="120" type="curve" smooth="yes"/>
			<point x="38" y="109"/>
			<point x="47" y="97"/>
			<point x="65" y="97" type="curve" smooth="yes"/>
		</contour>
		<contour>
			<point x="293" y="202" type="line"/>
			<point x="292" y="248" type="line"/>
			<point x="86" y="248" type="line" smooth="yes"/>
			<point x="64" y="248"/>
			<point x="56" y="239"/>
			<point x="54" y="227" type="curve" smooth="yes"/>
			<point x="53" y="216"/>
			<point x="58" y="202"/>
			<point x="80" y="202" type="curve" smooth="yes"/>
		</contour>
	</outline>
</glyph>
<glyph name=".notdef" format="2">
	<advance width="535"/>
	<outline>
		<contour>
			<point x="439" y="0" type="line" smooth="yes"/>
			<point x="450" y="0"/>
			<point x="461" y="12"/>
			<point x="464" y="27" type="curve" smooth="yes"/>
			<point x="578" y="673" type="line" smooth="yes"/>
			<point x="581" y="689"/>
			<point x="574" y="700"/>
			<point x="560" y="700" type="curve" smooth="yes"/>
			<point x="164" y="700" type="line" smooth="yes"/>
			<point x="147" y="700"/>
			<point x="136" y="689"/>
			<point x="133" y="673" type="curve" smooth="yes"/>
			<point x="19" y="27" type="line" smooth="yes"/>
			<point x="16" y="12"/>
			<point x="24" y="0"/>
			<point x="43" y="0" type="curve" smooth="yes"/>
		</contour>
		<contour>
			<point x="73" y="45" type="line"/>
			<point x="181" y="655" type="line"/>
			<point x="524" y="655" type="line"/>
			<point x="417" y="45" type="line"/>
		</contour>
	</outline>
</glyph>
<glyph name="a.sc" format="2">
	<advance width="323"/>
	<guideline x="209" y="396" angle="0"/>
	<outline>
		<contour>
			<point x="231" y="359" type="line"/>
			<point x="233" y="365" type="line"/>
			<point x="237" y="381"/>
			<point x="227" y="396"/>
			<point x="209" y="396" type="curve" smooth="yes"/>
			<point x="194" y="396"/>
			<point x="189" y="387"/>
			<point x="184" y="377" type="curve" smooth="yes"/>
			<point x="6" y="35" type="line" smooth="yes"/>
			<point x="-3" y="18"/>
			<point x="9" y="0"/>
			<point x="26" y="0" type="curve" smooth="yes"/>
			<point x="41" y="0"/>
			<point x="47" y="6"/>
			<point x="55" y="21" type="curve" smooth="yes"/>
		</contour>
		<contour>
			<point x="90" y="175" type="line"/>
			<point x="231" y="175" type="line"/>
			<point x="227" y="216" type="line"/>
			<point x="113" y="216" type="line"/>
		</contour>
		<contour>
			<point x="234" y="378" type="line"/>
			<point x="185" y="358" type="line"/>
			<point x="214" y="25" type="line" smooth="yes"/>
			<point x="215" y="13"/>
			<point x="221" y="0"/>
			<point x="240" y="0" type="curve" smooth="yes"/>
			<point x="255" y="0"/>
			<point x="266" y="10"/>
			<point x="264" y="28" type="curve" smooth="yes"/>
		</contour>
	</outline>
</glyph>
<glyph name="b.sc" format="2">
	<advance width="335"/>
	<outline>
		<contour>
			<point x="60" y="0" type="line"/>
			<point x="218" y="-1"/>
			<point x="256" y="18"/>
			<point x="270" y="92" type="curve" smooth="yes"/>
			<point x="284" y="175"/>
			<point x="195" y="224"/>
			<point x="101" y="224" type="curve"/>
			<point x="93" y="171" type="line"/>
			<point x="175" y="171"/>
			<point x="228" y="144"/>
			<point x="221" y="100" type="curve" smooth="yes"/>
			<point x="213" y="59"/>
			<point x="178" y="49"/>
			<point x="68" y="50" type="curve"/>
		</contour>
		<contour>
			<point x="146" y="363" type="line" smooth="yes"/>
			<point x="150" y="384"/>
			<point x="139" y="396"/>
			<point x="124" y="396" type="curve" smooth="yes"/>
			<point x="109" y="396"/>
			<point x="99" y="387"/>
			<point x="96" y="369" type="curve" smooth="yes"/>
			<point x="37" y="32" type="line" smooth="yes"/>
			<point x="34" y="15"/>
			<point x="45" y="0"/>
			<point x="61" y="0" type="curve" smooth="yes"/>
			<point x="73" y="0"/>
			<point x="84" y="8"/>
			<point x="87" y="27" type="curve" smooth="yes"/>
		</contour>
		<contour>
			<point x="96" y="171" type="line"/>
			<point x="256" y="171"/>
			<point x="291" y="212"/>
			<point x="303" y="281" type="curve" smooth="yes"/>
			<point x="317" y="360"/>
			<point x="242" y="396"/>
			<point x="123" y="396" type="curve"/>
			<point x="113" y="345" type="line"/>
			<point x="216" y="346"/>
			<point x="261" y="329"/>
			<point x="253" y="286" type="curve" smooth="yes"/>
			<point x="247" y="247"/>
			<point x="228" y="224"/>
			<point x="105" y="224" type="curve"/>
		</contour>
	</outline>
</glyph>
<glyph name="c.sc" format="2">
	<advance width="362"/>
	<outline>
		<contour>
			<point x="132" y="0" type="curve" smooth="yes"/>
			<point x="182" y="0"/>
			<point x="223" y="31"/>
			<point x="272" y="103" type="curve" smooth="yes"/>
			<point x="286" y="125"/>
			<point x="286" y="130"/>
			<point x="286" y="135" type="curve" smooth="yes"/>
			<point x="286" y="148"/>
			<point x="277" y="158"/>
			<point x="265" y="158" type="curve" smooth="yes"/>
			<point x="251" y="158"/>
			<point x="245" y="152"/>
			<point x="232" y="134" type="curve" smooth="yes"/>
			<point x="189" y="72"/>
			<point x="163" y="50"/>
			<point x="131" y="50" type="curve" smooth="yes"/>
			<point x="106" y="50"/>
			<point x="103" y="71"/>
			<point x="103" y="92" type="curve" smooth="yes"/>
			<point x="103" y="122"/>
			<point x="111" y="180"/>
			<point x="117" y="209" type="curve" smooth="yes"/>
			<point x="131" y="278"/>
			<point x="146" y="346"/>
			<point x="272" y="346" type="curve" smooth="yes"/>
			<point x="303" y="346"/>
			<point x="309" y="345"/>
			<point x="317" y="349" type="curve" smooth="yes"/>
			<point x="330" y="356"/>
			<point x="332" y="381"/>
			<point x="319" y="390" type="curve" smooth="yes"/>
			<point x="312" y="394"/>
			<point x="304" y="396"/>
			<point x="272" y="396" type="curve" smooth="yes"/>
			<point x="108" y="396"/>
			<point x="82" y="301"/>
			<point x="66" y="209" type="curve" smooth="yes"/>
			<point x="64" y="197"/>
			<point x="53" y="131"/>
			<point x="53" y="93" type="curve" smooth="yes"/>
			<point x="53" y="51"/>
			<point x="67" y="0"/>
		</contour>
	</outline>
</glyph>
<glyph name="d.sc" format="2">
  <advance width="359"/>
  <outline>
    <contour>
      <point x="33" y="0" type="line"/>
      <point x="70" y="0" type="line" smooth="yes"/>
      <point x="171" y="0"/>
      <point x="265" y="78"/>
      <point x="288" y="210" type="curve" smooth="yes"/>
      <point x="306" y="315"/>
      <point x="223" y="396"/>
      <point x="117" y="396" type="curve" smooth="yes"/>
      <point x="96" y="396" type="line"/>
      <point x="91" y="342" type="line"/>
      <point x="120" y="342" type="line" smooth="yes"/>
      <point x="197" y="342"/>
      <point x="251" y="287"/>
      <point x="238" y="214" type="curve" smooth="yes"/>
      <point x="220" y="107"/>
      <point x="145" y="50"/>
      <point x="70" y="50" type="curve" smooth="yes"/>
      <point x="44" y="50" type="line"/>
    </contour>
    <contour>
      <point x="118" y="359" type="line" smooth="yes"/>
      <point x="121" y="377"/>
      <point x="115" y="396"/>
      <point x="97" y="396" type="curve" smooth="yes"/>
      <point x="80" y="396"/>
      <point x="72" y="388"/>
      <point x="69" y="369" type="curve" smooth="yes"/>
      <point x="9" y="29" type="line" smooth="yes"/>
      <point x="6" y="14"/>
      <point x="16" y="0"/>
      <point x="34" y="0" type="curve" smooth="yes"/>
      <point x="52" y="0"/>
      <point x="57" y="12"/>
      <point x="59" y="22" type="curve" smooth="yes"/>
    </contour>
  </outline>
</glyph>
<glyph name="e.sc" format="2">
	<advance width="368"/>
	<outline>
		<contour>
			<point x="145" y="360" type="line" smooth="yes"/>
			<point x="148" y="378"/>
			<point x="143" y="396"/>
			<point x="124" y="396" type="curve" smooth="yes"/>
			<point x="106" y="396"/>
			<point x="99" y="388"/>
			<point x="96" y="369" type="curve" smooth="yes"/>
			<point x="36" y="29" type="line" smooth="yes"/>
			<point x="34" y="15"/>
			<point x="43" y="0"/>
			<point x="60" y="0" type="curve" smooth="yes"/>
			<point x="79" y="0"/>
			<point x="84" y="14"/>
			<point x="86" y="24" type="curve" smooth="yes"/>
		</contour>
		<contour>
			<point x="59" y="0" type="line"/>
			<point x="247" y="0" type="line" smooth="yes"/>
			<point x="264" y="0"/>
			<point x="273" y="14"/>
			<point x="273" y="27" type="curve" smooth="yes"/>
			<point x="273" y="40"/>
			<point x="264" y="53"/>
			<point x="247" y="53" type="curve" smooth="yes"/>
			<point x="68" y="53" type="line"/>
		</contour>
		<contour>
			<point x="90" y="174" type="line"/>
			<point x="262" y="174" type="line" smooth="yes"/>
			<point x="279" y="174"/>
			<point x="288" y="186"/>
			<point x="288" y="198" type="curve" smooth="yes"/>
			<point x="288" y="211"/>
			<point x="279" y="224"/>
			<point x="262" y="224" type="curve" smooth="yes"/>
			<point x="98" y="224" type="line"/>
		</contour>
		<contour>
			<point x="114" y="343" type="line"/>
			<point x="309" y="343" type="line" smooth="yes"/>
			<point x="325" y="343"/>
			<point x="334" y="354"/>
			<point x="334" y="369" type="curve" smooth="yes"/>
			<point x="334" y="384"/>
			<point x="325" y="396"/>
			<point x="309" y="396" type="curve" smooth="yes"/>
			<point x="123" y="396" type="line"/>
		</contour>
	</outline>
</glyph>
<glyph name="eight.c2sc" format="2">
	<advance width="367"/>
	<outline>
		<contour>
			<point x="189" y="229" type="line"/>
			<point x="138" y="231" type="line"/>
			<point x="74" y="184"/>
			<point x="56" y="132"/>
			<point x="56" y="94" type="curve" smooth="yes"/>
			<point x="56" y="53"/>
			<point x="78" y="-4"/>
			<point x="148" y="-4" type="curve" smooth="yes"/>
			<point x="223" y="-4"/>
			<point x="264" y="59"/>
			<point x="264" y="106" type="curve" smooth="yes"/>
			<point x="264" y="147"/>
			<point x="231" y="187"/>
			<point x="201" y="217" type="curve" smooth="yes"/>
		</contour>
		<contour>
			<point x="165" y="184" type="line" smooth="yes"/>
			<point x="188" y="161"/>
			<point x="214" y="131"/>
			<point x="214" y="106" type="curve" smooth="yes"/>
			<point x="214" y="79"/>
			<point x="186" y="44"/>
			<point x="152" y="44" type="curve" smooth="yes"/>
			<point x="123" y="44"/>
			<point x="105" y="68"/>
			<point x="105" y="99" type="curve" smooth="yes"/>
			<point x="105" y="124"/>
			<point x="117" y="154"/>
			<point x="162" y="187" type="curve"/>
		</contour>
		<contour>
			<point x="188" y="208" type="line"/>
			<point x="245" y="246"/>
			<point x="303" y="291"/>
			<point x="303" y="333" type="curve" smooth="yes"/>
			<point x="303" y="374"/>
			<point x="248" y="396"/>
			<point x="206" y="396" type="curve" smooth="yes"/>
			<point x="154" y="396"/>
			<point x="91" y="366"/>
			<point x="91" y="302" type="curve" smooth="yes"/>
			<point x="91" y="259"/>
			<point x="123" y="230"/>
			<point x="140" y="214" type="curve"/>
			<point x="182" y="239" type="line"/>
			<point x="166" y="254"/>
			<point x="141" y="275"/>
			<point x="141" y="306" type="curve" smooth="yes"/>
			<point x="141" y="339"/>
			<point x="173" y="348"/>
			<point x="199" y="348" type="curve" smooth="yes"/>
			<point x="223" y="348"/>
			<point x="256" y="340"/>
			<point x="256" y="333" type="curve" smooth="yes"/>
			<point x="256" y="317"/>
			<point x="177" y="252"/>
			<point x="130" y="227" type="curve"/>
		</contour>
	</outline>
</glyph>
<glyph name="exclam.c2sc" format="2">
  <advance width="246"/>
  <outline>
    <contour>
      <point x="61" y="-24" type="curve" smooth="yes"/>
      <point x="79" y="-24"/>
      <point x="95" y="-8"/>
      <point x="95" y="9" type="curve" smooth="yes"/>
      <point x="95" y="26"/>
      <point x="79" y="41"/>
      <point x="61" y="41" type="curve" smooth="yes"/>
      <point x="43" y="41"/>
      <point x="30" y="25"/>
      <point x="30" y="9" type="curve" smooth="yes"/>
      <point x="30" y="-7"/>
      <point x="43" y="-24"/>
    </contour>
    <contour>
      <point x="151" y="367" type="line" smooth="yes"/>
      <point x="154" y="382"/>
      <point x="145" y="396"/>
      <point x="131" y="396" type="curve" smooth="yes"/>
      <point x="113" y="396"/>
      <point x="104" y="386"/>
      <point x="101" y="372" type="curve" smooth="yes"/>
      <point x="71" y="205" type="line" smooth="yes"/>
      <point x="68" y="188"/>
      <point x="80" y="175"/>
      <point x="93" y="175" type="curve" smooth="yes"/>
      <point x="108" y="175"/>
      <point x="118" y="185"/>
      <point x="121" y="199" type="curve" smooth="yes"/>
    </contour>
  </outline>
</glyph>
<glyph name="exclamdown.c2sc" format="2">
	<advance width="156"/>
	<outline>
		<contour>
			<point x="113" y="420" type="curve" smooth="yes"/>
			<point x="95" y="420"/>
			<point x="79" y="404"/>
			<point x="79" y="387" type="curve" smooth="yes"/>
			<point x="79" y="370"/>
			<point x="95" y="355"/>
			<point x="113" y="355" type="curve" smooth="yes"/>
			<point x="131" y="355"/>
			<point x="144" y="371"/>
			<point x="144" y="387" type="curve" smooth="yes"/>
			<point x="144" y="403"/>
			<point x="131" y="420"/>
		</contour>
		<contour>
			<point x="23" y="29" type="line" smooth="yes"/>
			<point x="20" y="14"/>
			<point x="29" y="0"/>
			<point x="43" y="0" type="curve" smooth="yes"/>
			<point x="61" y="0"/>
			<point x="70" y="10"/>
			<point x="73" y="24" type="curve" smooth="yes"/>
			<point x="103" y="191" type="line" smooth="yes"/>
			<point x="106" y="208"/>
			<point x="94" y="221"/>
			<point x="81" y="221" type="curve" smooth="yes"/>
			<point x="66" y="221"/>
			<point x="56" y="211"/>
			<point x="53" y="197" type="curve" smooth="yes"/>
		</contour>
	</outline>
</glyph>
<glyph name="f.sc" format="2">
	<advance width="298"/>
	<outline>
		<contour>
			<point x="146" y="359" type="line" smooth="yes"/>
			<point x="149" y="377"/>
			<point x="143" y="396"/>
			<point x="124" y="396" type="curve" smooth="yes"/>
			<point x="106" y="396"/>
			<point x="99" y="388"/>
			<point x="96" y="369" type="curve" smooth="yes"/>
			<point x="36" y="29" type="line" smooth="yes"/>
			<point x="34" y="15"/>
			<point x="43" y="0"/>
			<point x="60" y="0" type="curve" smooth="yes"/>
			<point x="79" y="0"/>
			<point x="85" y="14"/>
			<point x="87" y="24" type="curve" smooth="yes"/>
		</contour>
		<contour>
			<point x="90" y="175" type="line"/>
			<point x="261" y="175" type="line" smooth="yes"/>
			<point x="279" y="175"/>
			<point x="287" y="187"/>
			<point x="287" y="199" type="curve" smooth="yes"/>
			<point x="287" y="214"/>
			<point x="278" y="225"/>
			<point x="261" y="225" type="curve" smooth="yes"/>
			<point x="98" y="225" type="line"/>
		</contour>
		<contour>
			<point x="115" y="343" type="line"/>
			<point x="309" y="343" type="line" smooth="yes"/>
			<point x="325" y="343"/>
			<point x="334" y="354"/>
			<point x="334" y="369" type="curve" smooth="yes"/>
			<point x="334" y="384"/>
			<point x="325" y="396"/>
			<point x="309" y="396" type="curve" smooth="yes"/>
			<point x="123" y="396" type="line"/>
		</contour>
	</outline>
</glyph>
<glyph name="five.c2sc" format="2">
	<advance width="361"/>
	<outline>
		<contour>
			<point x="93" y="192" type="line"/>
			<point x="123" y="200"/>
			<point x="142" y="204"/>
			<point x="161" y="204" type="curve" smooth="yes"/>
			<point x="209" y="204"/>
			<point x="228" y="174"/>
			<point x="228" y="149" type="curve" smooth="yes"/>
			<point x="228" y="109"/>
			<point x="181" y="44"/>
			<point x="121" y="44" type="curve" smooth="yes"/>
			<point x="105" y="44"/>
			<point x="93" y="50"/>
			<point x="85" y="57" type="curve" smooth="yes"/>
			<point x="79" y="63"/>
			<point x="71" y="65"/>
			<point x="65" y="65" type="curve" smooth="yes"/>
			<point x="53" y="65"/>
			<point x="41" y="56"/>
			<point x="41" y="44" type="curve" smooth="yes"/>
			<point x="41" y="38"/>
			<point x="45" y="29"/>
			<point x="52" y="21" type="curve"/>
			<point x="68" y="7"/>
			<point x="92" y="-4"/>
			<point x="121" y="-4" type="curve" smooth="yes"/>
			<point x="213" y="-4"/>
			<point x="278" y="89"/>
			<point x="278" y="150" type="curve" smooth="yes"/>
			<point x="278" y="203"/>
			<point x="232" y="252"/>
			<point x="158" y="252" type="curve" smooth="yes"/>
			<point x="137" y="252"/>
			<point x="116" y="248"/>
			<point x="89" y="239" type="curve"/>
		</contour>
		<contour>
			<point x="148" y="371" type="line"/>
			<point x="133" y="395" type="line"/>
			<point x="127" y="398"/>
			<point x="114" y="394"/>
			<point x="109" y="389" type="curve"/>
			<point x="103" y="386"/>
			<point x="100" y="379"/>
			<point x="98" y="372" type="curve"/>
			<point x="70" y="216" type="line" smooth="yes"/>
			<point x="67" y="202"/>
			<point x="79" y="193"/>
			<point x="94" y="193" type="curve" smooth="yes"/>
			<point x="105" y="193"/>
			<point x="119" y="200"/>
			<point x="121" y="214" type="curve" smooth="yes"/>
		</contour>
		<contour>
			<point x="120" y="352" type="line"/>
			<point x="292" y="352" type="line" smooth="yes"/>
			<point x="310" y="352"/>
			<point x="317" y="362"/>
			<point x="317" y="373" type="curve" smooth="yes"/>
			<point x="317" y="383"/>
			<point x="311" y="396"/>
			<point x="292" y="396" type="curve" smooth="yes"/>
			<point x="120" y="396" type="line"/>
		</contour>
	</outline>
</glyph>
<glyph name="four.c2sc" format="2">
	<advance width="348"/>
	<outline>
		<contour>
			<point x="153" y="369" type="line" smooth="yes"/>
			<point x="156" y="387"/>
			<point x="143" y="396"/>
			<point x="130" y="396" type="curve" smooth="yes"/>
			<point x="120" y="396"/>
			<point x="106" y="390"/>
			<point x="103" y="374" type="curve" smooth="yes"/>
			<point x="56" y="116" type="line"/>
			<point x="55" y="103"/>
			<point x="64" y="91"/>
			<point x="81" y="91" type="curve" smooth="yes"/>
			<point x="97" y="91"/>
			<point x="105" y="103"/>
			<point x="106" y="114" type="curve"/>
		</contour>
		<contour>
			<point x="227" y="195" type="line" smooth="yes"/>
			<point x="230" y="211"/>
			<point x="219" y="221"/>
			<point x="209" y="224" type="curve" smooth="yes"/>
			<point x="196" y="226"/>
			<point x="181" y="219"/>
			<point x="178" y="202" type="curve" smooth="yes"/>
			<point x="146" y="29" type="line" smooth="yes"/>
			<point x="143" y="11"/>
			<point x="154" y="0"/>
			<point x="168" y="0" type="curve" smooth="yes"/>
			<point x="178" y="0"/>
			<point x="193" y="6"/>
			<point x="196" y="23" type="curve" smooth="yes"/>
		</contour>
		<contour>
			<point x="74" y="91" type="line"/>
			<point x="283" y="91" type="line" smooth="yes"/>
			<point x="299" y="91"/>
			<point x="309" y="103"/>
			<point x="309" y="114" type="curve" smooth="yes"/>
			<point x="309" y="125"/>
			<point x="299" y="135"/>
			<point x="283" y="135" type="curve" smooth="yes"/>
			<point x="74" y="135" type="line"/>
		</contour>
	</outline>
</glyph>
<glyph name="g.sc" format="2">
	<advance width="332"/>
	<outline>
		<contour>
			<point x="266" y="224" type="line"/>
			<point x="251" y="224"/>
			<point x="250" y="230"/>
			<point x="207" y="164" type="curve" smooth="yes"/>
			<point x="186" y="132"/>
			<point x="130" y="48"/>
			<point x="97" y="48" type="curve" smooth="yes"/>
			<point x="85" y="48"/>
			<point x="81" y="64"/>
			<point x="81" y="89" type="curve" smooth="yes"/>
			<point x="81" y="125"/>
			<point x="92" y="187"/>
			<point x="99" y="217" type="curve" smooth="yes"/>
			<point x="110" y="276"/>
			<point x="132" y="343"/>
			<point x="259" y="343" type="curve" smooth="yes"/>
			<point x="291" y="343" type="line" smooth="yes"/>
			<point x="306" y="343"/>
			<point x="316" y="356"/>
			<point x="316" y="370" type="curve" smooth="yes"/>
			<point x="316" y="383"/>
			<point x="306" y="396"/>
			<point x="293" y="396" type="curve" smooth="yes"/>
			<point x="260" y="396" type="line" smooth="yes"/>
			<point x="96" y="396"/>
			<point x="61" y="300"/>
			<point x="45" y="207" type="curve" smooth="yes"/>
			<point x="43" y="195"/>
			<point x="31" y="129"/>
			<point x="31" y="92" type="curve" smooth="yes"/>
			<point x="31" y="49"/>
			<point x="48" y="-2"/>
			<point x="95" y="-2" type="curve" smooth="yes"/>
			<point x="143" y="-2"/>
			<point x="190" y="52"/>
			<point x="235" y="115" type="curve"/>
		</contour>
		<contour>
			<point x="286" y="194" type="line" smooth="yes"/>
			<point x="289" y="213"/>
			<point x="280" y="224"/>
			<point x="265" y="224" type="curve" smooth="yes"/>
			<point x="248" y="224"/>
			<point x="238" y="214"/>
			<point x="235" y="198" type="curve" smooth="yes"/>
			<point x="205" y="29" type="line" smooth="yes"/>
			<point x="203" y="17"/>
			<point x="210" y="0"/>
			<point x="227" y="0" type="curve" smooth="yes"/>
			<point x="247" y="0"/>
			<point x="254" y="14"/>
			<point x="256" y="25" type="curve" smooth="yes"/>
		</contour>
	</outline>
</glyph>
<glyph name="h.sc" format="2">
	<advance width="411"/>
	<outline>
		<contour>
			<point x="376" y="364" type="line" smooth="yes"/>
			<point x="379" y="381"/>
			<point x="370" y="395"/>
			<point x="352" y="395" type="curve" smooth="yes"/>
			<point x="337" y="395"/>
			<point x="328" y="384"/>
			<point x="326" y="371" type="curve" smooth="yes"/>
			<point x="266" y="30" type="line" smooth="yes"/>
			<point x="264" y="17"/>
			<point x="270" y="0"/>
			<point x="290" y="0" type="curve" smooth="yes"/>
			<point x="304" y="0"/>
			<point x="314" y="10"/>
			<point x="316" y="23" type="curve" smooth="yes"/>
		</contour>
		<contour>
			<point x="145" y="359" type="line" smooth="yes"/>
			<point x="149" y="381"/>
			<point x="140" y="395"/>
			<point x="124" y="395" type="curve" smooth="yes"/>
			<point x="109" y="395"/>
			<point x="99" y="385"/>
			<point x="96" y="369" type="curve" smooth="yes"/>
			<point x="36" y="29" type="line" smooth="yes"/>
			<point x="34" y="15"/>
			<point x="43" y="0"/>
			<point x="60" y="0" type="curve" smooth="yes"/>
			<point x="77" y="0"/>
			<point x="84" y="13"/>
			<point x="86" y="24" type="curve" smooth="yes"/>
		</contour>
		<contour>
			<point x="100" y="174" type="line"/>
			<point x="306" y="174" type="line"/>
			<point x="314" y="224" type="line"/>
			<point x="108" y="224" type="line"/>
		</contour>
	</outline>
</glyph>
<glyph name="i.sc" format="2">
	<advance width="243"/>
	<outline>
		<contour>
			<point x="70" y="42" type="line"/>
			<point x="121" y="42" type="line"/>
			<point x="176" y="358" type="line"/>
			<point x="125" y="358" type="line"/>
		</contour>
		<contour>
			<point x="122" y="0" type="line" smooth="yes"/>
			<point x="139" y="0"/>
			<point x="148" y="12"/>
			<point x="148" y="25" type="curve" smooth="yes"/>
			<point x="148" y="38"/>
			<point x="139" y="50"/>
			<point x="122" y="50" type="curve" smooth="yes"/>
			<point x="66" y="50" type="line" smooth="yes"/>
			<point x="49" y="50"/>
			<point x="40" y="38"/>
			<point x="40" y="25" type="curve" smooth="yes"/>
			<point x="40" y="12"/>
			<point x="49" y="0"/>
			<point x="66" y="0" type="curve" smooth="yes"/>
		</contour>
		<contour>
			<point x="178" y="345" type="line" smooth="yes"/>
			<point x="196" y="345"/>
			<point x="204" y="357"/>
			<point x="204" y="370" type="curve" smooth="yes"/>
			<point x="204" y="383"/>
			<point x="196" y="396"/>
			<point x="178" y="396" type="curve" smooth="yes"/>
			<point x="123" y="396" type="line" smooth="yes"/>
			<point x="105" y="396"/>
			<point x="97" y="383"/>
			<point x="97" y="370" type="curve" smooth="yes"/>
			<point x="97" y="357"/>
			<point x="105" y="345"/>
			<point x="123" y="345" type="curve" smooth="yes"/>
		</contour>
	</outline>
</glyph>
